<?xml version="1.0" encoding="utf-8" standalone="no"?>
<!DOCTYPE svg PUBLIC "-//W3C//DTD SVG 1.1//EN"
  "http://www.w3.org/Graphics/SVG/1.1/DTD/svg11.dtd">
<svg xmlns:xlink="http://www.w3.org/1999/xlink" width="741.130313pt" height="286.193437pt" viewBox="0 0 741.130313 286.193437" xmlns="http://www.w3.org/2000/svg" version="1.1">
 <metadata>
  <rdf:RDF xmlns:dc="http://purl.org/dc/elements/1.1/" xmlns:cc="http://creativecommons.org/ns#" xmlns:rdf="http://www.w3.org/1999/02/22-rdf-syntax-ns#">
   <cc:Work>
    <dc:type rdf:resource="http://purl.org/dc/dcmitype/StillImage"/>
    <dc:date>2024-10-21T08:36:44.325886</dc:date>
    <dc:format>image/svg+xml</dc:format>
    <dc:creator>
     <cc:Agent>
      <dc:title>Matplotlib v3.9.0, https://matplotlib.org/</dc:title>
     </cc:Agent>
    </dc:creator>
   </cc:Work>
  </rdf:RDF>
 </metadata>
 <defs>
  <style type="text/css">*{stroke-linejoin: round; stroke-linecap: butt}</style>
 </defs>
 <g id="figure_1">
  <g id="patch_1">
   <path d="M 0 286.193437 
L 741.130313 286.193437 
L 741.130313 0 
L 0 0 
z
" style="fill: #ffffff"/>
  </g>
  <g id="axes_1">
   <g id="patch_2">
    <path d="M 57.967813 248.637187 
L 349.098247 248.637187 
L 349.098247 26.877187 
L 57.967813 26.877187 
z
" style="fill: #ffffff"/>
   </g>
   <g id="matplotlib.axis_1">
    <g id="xtick_1">
     <g id="line2d_1">
      <defs>
       <path id="m0f603504b2" d="M 0 0 
L 0 3.5 
" style="stroke: #000000; stroke-width: 0.8"/>
      </defs>
      <g>
       <use xlink:href="#m0f603504b2" x="57.967813" y="248.637187" style="stroke: #000000; stroke-width: 0.8"/>
      </g>
     </g>
     <g id="text_1">
      <!-- 0 -->
      <g transform="translate(54.786563 263.235625) scale(0.1 -0.1)">
       <defs>
        <path id="DejaVuSans-30" d="M 2034 4250 
Q 1547 4250 1301 3770 
Q 1056 3291 1056 2328 
Q 1056 1369 1301 889 
Q 1547 409 2034 409 
Q 2525 409 2770 889 
Q 3016 1369 3016 2328 
Q 3016 3291 2770 3770 
Q 2525 4250 2034 4250 
z
M 2034 4750 
Q 2819 4750 3233 4129 
Q 3647 3509 3647 2328 
Q 3647 1150 3233 529 
Q 2819 -91 2034 -91 
Q 1250 -91 836 529 
Q 422 1150 422 2328 
Q 422 3509 836 4129 
Q 1250 4750 2034 4750 
z
" transform="scale(0.015625)"/>
       </defs>
       <use xlink:href="#DejaVuSans-30"/>
      </g>
     </g>
    </g>
    <g id="xtick_2">
     <g id="line2d_2">
      <g>
       <use xlink:href="#m0f603504b2" x="116.193899" y="248.637187" style="stroke: #000000; stroke-width: 0.8"/>
      </g>
     </g>
     <g id="text_2">
      <!-- 2 -->
      <g transform="translate(113.012649 263.235625) scale(0.1 -0.1)">
       <defs>
        <path id="DejaVuSans-32" d="M 1228 531 
L 3431 531 
L 3431 0 
L 469 0 
L 469 531 
Q 828 903 1448 1529 
Q 2069 2156 2228 2338 
Q 2531 2678 2651 2914 
Q 2772 3150 2772 3378 
Q 2772 3750 2511 3984 
Q 2250 4219 1831 4219 
Q 1534 4219 1204 4116 
Q 875 4013 500 3803 
L 500 4441 
Q 881 4594 1212 4672 
Q 1544 4750 1819 4750 
Q 2544 4750 2975 4387 
Q 3406 4025 3406 3419 
Q 3406 3131 3298 2873 
Q 3191 2616 2906 2266 
Q 2828 2175 2409 1742 
Q 1991 1309 1228 531 
z
" transform="scale(0.015625)"/>
       </defs>
       <use xlink:href="#DejaVuSans-32"/>
      </g>
     </g>
    </g>
    <g id="xtick_3">
     <g id="line2d_3">
      <g>
       <use xlink:href="#m0f603504b2" x="174.419986" y="248.637187" style="stroke: #000000; stroke-width: 0.8"/>
      </g>
     </g>
     <g id="text_3">
      <!-- 4 -->
      <g transform="translate(171.238736 263.235625) scale(0.1 -0.1)">
       <defs>
        <path id="DejaVuSans-34" d="M 2419 4116 
L 825 1625 
L 2419 1625 
L 2419 4116 
z
M 2253 4666 
L 3047 4666 
L 3047 1625 
L 3713 1625 
L 3713 1100 
L 3047 1100 
L 3047 0 
L 2419 0 
L 2419 1100 
L 313 1100 
L 313 1709 
L 2253 4666 
z
" transform="scale(0.015625)"/>
       </defs>
       <use xlink:href="#DejaVuSans-34"/>
      </g>
     </g>
    </g>
    <g id="xtick_4">
     <g id="line2d_4">
      <g>
       <use xlink:href="#m0f603504b2" x="232.646073" y="248.637187" style="stroke: #000000; stroke-width: 0.8"/>
      </g>
     </g>
     <g id="text_4">
      <!-- 6 -->
      <g transform="translate(229.464823 263.235625) scale(0.1 -0.1)">
       <defs>
        <path id="DejaVuSans-36" d="M 2113 2584 
Q 1688 2584 1439 2293 
Q 1191 2003 1191 1497 
Q 1191 994 1439 701 
Q 1688 409 2113 409 
Q 2538 409 2786 701 
Q 3034 994 3034 1497 
Q 3034 2003 2786 2293 
Q 2538 2584 2113 2584 
z
M 3366 4563 
L 3366 3988 
Q 3128 4100 2886 4159 
Q 2644 4219 2406 4219 
Q 1781 4219 1451 3797 
Q 1122 3375 1075 2522 
Q 1259 2794 1537 2939 
Q 1816 3084 2150 3084 
Q 2853 3084 3261 2657 
Q 3669 2231 3669 1497 
Q 3669 778 3244 343 
Q 2819 -91 2113 -91 
Q 1303 -91 875 529 
Q 447 1150 447 2328 
Q 447 3434 972 4092 
Q 1497 4750 2381 4750 
Q 2619 4750 2861 4703 
Q 3103 4656 3366 4563 
z
" transform="scale(0.015625)"/>
       </defs>
       <use xlink:href="#DejaVuSans-36"/>
      </g>
     </g>
    </g>
    <g id="xtick_5">
     <g id="line2d_5">
      <g>
       <use xlink:href="#m0f603504b2" x="290.87216" y="248.637187" style="stroke: #000000; stroke-width: 0.8"/>
      </g>
     </g>
     <g id="text_5">
      <!-- 8 -->
      <g transform="translate(287.69091 263.235625) scale(0.1 -0.1)">
       <defs>
        <path id="DejaVuSans-38" d="M 2034 2216 
Q 1584 2216 1326 1975 
Q 1069 1734 1069 1313 
Q 1069 891 1326 650 
Q 1584 409 2034 409 
Q 2484 409 2743 651 
Q 3003 894 3003 1313 
Q 3003 1734 2745 1975 
Q 2488 2216 2034 2216 
z
M 1403 2484 
Q 997 2584 770 2862 
Q 544 3141 544 3541 
Q 544 4100 942 4425 
Q 1341 4750 2034 4750 
Q 2731 4750 3128 4425 
Q 3525 4100 3525 3541 
Q 3525 3141 3298 2862 
Q 3072 2584 2669 2484 
Q 3125 2378 3379 2068 
Q 3634 1759 3634 1313 
Q 3634 634 3220 271 
Q 2806 -91 2034 -91 
Q 1263 -91 848 271 
Q 434 634 434 1313 
Q 434 1759 690 2068 
Q 947 2378 1403 2484 
z
M 1172 3481 
Q 1172 3119 1398 2916 
Q 1625 2713 2034 2713 
Q 2441 2713 2670 2916 
Q 2900 3119 2900 3481 
Q 2900 3844 2670 4047 
Q 2441 4250 2034 4250 
Q 1625 4250 1398 4047 
Q 1172 3844 1172 3481 
z
" transform="scale(0.015625)"/>
       </defs>
       <use xlink:href="#DejaVuSans-38"/>
      </g>
     </g>
    </g>
    <g id="xtick_6">
     <g id="line2d_6">
      <g>
       <use xlink:href="#m0f603504b2" x="349.098247" y="248.637187" style="stroke: #000000; stroke-width: 0.8"/>
      </g>
     </g>
     <g id="text_6">
      <!-- 10 -->
      <g transform="translate(342.735747 263.235625) scale(0.1 -0.1)">
       <defs>
        <path id="DejaVuSans-31" d="M 794 531 
L 1825 531 
L 1825 4091 
L 703 3866 
L 703 4441 
L 1819 4666 
L 2450 4666 
L 2450 531 
L 3481 531 
L 3481 0 
L 794 0 
L 794 531 
z
" transform="scale(0.015625)"/>
       </defs>
       <use xlink:href="#DejaVuSans-31"/>
       <use xlink:href="#DejaVuSans-30" x="63.623047"/>
      </g>
     </g>
    </g>
    <g id="text_7">
     <!-- Time(s) -->
     <g transform="translate(184.793186 276.91375) scale(0.1 -0.1)">
      <defs>
       <path id="DejaVuSans-54" d="M -19 4666 
L 3928 4666 
L 3928 4134 
L 2272 4134 
L 2272 0 
L 1638 0 
L 1638 4134 
L -19 4134 
L -19 4666 
z
" transform="scale(0.015625)"/>
       <path id="DejaVuSans-69" d="M 603 3500 
L 1178 3500 
L 1178 0 
L 603 0 
L 603 3500 
z
M 603 4863 
L 1178 4863 
L 1178 4134 
L 603 4134 
L 603 4863 
z
" transform="scale(0.015625)"/>
       <path id="DejaVuSans-6d" d="M 3328 2828 
Q 3544 3216 3844 3400 
Q 4144 3584 4550 3584 
Q 5097 3584 5394 3201 
Q 5691 2819 5691 2113 
L 5691 0 
L 5113 0 
L 5113 2094 
Q 5113 2597 4934 2840 
Q 4756 3084 4391 3084 
Q 3944 3084 3684 2787 
Q 3425 2491 3425 1978 
L 3425 0 
L 2847 0 
L 2847 2094 
Q 2847 2600 2669 2842 
Q 2491 3084 2119 3084 
Q 1678 3084 1418 2786 
Q 1159 2488 1159 1978 
L 1159 0 
L 581 0 
L 581 3500 
L 1159 3500 
L 1159 2956 
Q 1356 3278 1631 3431 
Q 1906 3584 2284 3584 
Q 2666 3584 2933 3390 
Q 3200 3197 3328 2828 
z
" transform="scale(0.015625)"/>
       <path id="DejaVuSans-65" d="M 3597 1894 
L 3597 1613 
L 953 1613 
Q 991 1019 1311 708 
Q 1631 397 2203 397 
Q 2534 397 2845 478 
Q 3156 559 3463 722 
L 3463 178 
Q 3153 47 2828 -22 
Q 2503 -91 2169 -91 
Q 1331 -91 842 396 
Q 353 884 353 1716 
Q 353 2575 817 3079 
Q 1281 3584 2069 3584 
Q 2775 3584 3186 3129 
Q 3597 2675 3597 1894 
z
M 3022 2063 
Q 3016 2534 2758 2815 
Q 2500 3097 2075 3097 
Q 1594 3097 1305 2825 
Q 1016 2553 972 2059 
L 3022 2063 
z
" transform="scale(0.015625)"/>
       <path id="DejaVuSans-28" d="M 1984 4856 
Q 1566 4138 1362 3434 
Q 1159 2731 1159 2009 
Q 1159 1288 1364 580 
Q 1569 -128 1984 -844 
L 1484 -844 
Q 1016 -109 783 600 
Q 550 1309 550 2009 
Q 550 2706 781 3412 
Q 1013 4119 1484 4856 
L 1984 4856 
z
" transform="scale(0.015625)"/>
       <path id="DejaVuSans-73" d="M 2834 3397 
L 2834 2853 
Q 2591 2978 2328 3040 
Q 2066 3103 1784 3103 
Q 1356 3103 1142 2972 
Q 928 2841 928 2578 
Q 928 2378 1081 2264 
Q 1234 2150 1697 2047 
L 1894 2003 
Q 2506 1872 2764 1633 
Q 3022 1394 3022 966 
Q 3022 478 2636 193 
Q 2250 -91 1575 -91 
Q 1294 -91 989 -36 
Q 684 19 347 128 
L 347 722 
Q 666 556 975 473 
Q 1284 391 1588 391 
Q 1994 391 2212 530 
Q 2431 669 2431 922 
Q 2431 1156 2273 1281 
Q 2116 1406 1581 1522 
L 1381 1569 
Q 847 1681 609 1914 
Q 372 2147 372 2553 
Q 372 3047 722 3315 
Q 1072 3584 1716 3584 
Q 2034 3584 2315 3537 
Q 2597 3491 2834 3397 
z
" transform="scale(0.015625)"/>
       <path id="DejaVuSans-29" d="M 513 4856 
L 1013 4856 
Q 1481 4119 1714 3412 
Q 1947 2706 1947 2009 
Q 1947 1309 1714 600 
Q 1481 -109 1013 -844 
L 513 -844 
Q 928 -128 1133 580 
Q 1338 1288 1338 2009 
Q 1338 2731 1133 3434 
Q 928 4138 513 4856 
z
" transform="scale(0.015625)"/>
      </defs>
      <use xlink:href="#DejaVuSans-54"/>
      <use xlink:href="#DejaVuSans-69" x="57.958984"/>
      <use xlink:href="#DejaVuSans-6d" x="85.742188"/>
      <use xlink:href="#DejaVuSans-65" x="183.154297"/>
      <use xlink:href="#DejaVuSans-28" x="244.677734"/>
      <use xlink:href="#DejaVuSans-73" x="283.691406"/>
      <use xlink:href="#DejaVuSans-29" x="335.791016"/>
     </g>
    </g>
   </g>
   <g id="matplotlib.axis_2">
    <g id="ytick_1">
     <g id="line2d_7">
      <defs>
       <path id="m9fd020f846" d="M 0 0 
L -3.5 0 
" style="stroke: #000000; stroke-width: 0.8"/>
      </defs>
      <g>
       <use xlink:href="#m9fd020f846" x="57.967813" y="238.042967" style="stroke: #000000; stroke-width: 0.8"/>
      </g>
     </g>
     <g id="text_8">
      <!-- −2.0 -->
      <g transform="translate(26.685 241.842185) scale(0.1 -0.1)">
       <defs>
        <path id="DejaVuSans-2212" d="M 678 2272 
L 4684 2272 
L 4684 1741 
L 678 1741 
L 678 2272 
z
" transform="scale(0.015625)"/>
        <path id="DejaVuSans-2e" d="M 684 794 
L 1344 794 
L 1344 0 
L 684 0 
L 684 794 
z
" transform="scale(0.015625)"/>
       </defs>
       <use xlink:href="#DejaVuSans-2212"/>
       <use xlink:href="#DejaVuSans-32" x="83.789062"/>
       <use xlink:href="#DejaVuSans-2e" x="147.412109"/>
       <use xlink:href="#DejaVuSans-30" x="179.199219"/>
      </g>
     </g>
    </g>
    <g id="ytick_2">
     <g id="line2d_8">
      <g>
       <use xlink:href="#m9fd020f846" x="57.967813" y="212.958667" style="stroke: #000000; stroke-width: 0.8"/>
      </g>
     </g>
     <g id="text_9">
      <!-- −1.5 -->
      <g transform="translate(26.685 216.757886) scale(0.1 -0.1)">
       <defs>
        <path id="DejaVuSans-35" d="M 691 4666 
L 3169 4666 
L 3169 4134 
L 1269 4134 
L 1269 2991 
Q 1406 3038 1543 3061 
Q 1681 3084 1819 3084 
Q 2600 3084 3056 2656 
Q 3513 2228 3513 1497 
Q 3513 744 3044 326 
Q 2575 -91 1722 -91 
Q 1428 -91 1123 -41 
Q 819 9 494 109 
L 494 744 
Q 775 591 1075 516 
Q 1375 441 1709 441 
Q 2250 441 2565 725 
Q 2881 1009 2881 1497 
Q 2881 1984 2565 2268 
Q 2250 2553 1709 2553 
Q 1456 2553 1204 2497 
Q 953 2441 691 2322 
L 691 4666 
z
" transform="scale(0.015625)"/>
       </defs>
       <use xlink:href="#DejaVuSans-2212"/>
       <use xlink:href="#DejaVuSans-31" x="83.789062"/>
       <use xlink:href="#DejaVuSans-2e" x="147.412109"/>
       <use xlink:href="#DejaVuSans-35" x="179.199219"/>
      </g>
     </g>
    </g>
    <g id="ytick_3">
     <g id="line2d_9">
      <g>
       <use xlink:href="#m9fd020f846" x="57.967813" y="187.874367" style="stroke: #000000; stroke-width: 0.8"/>
      </g>
     </g>
     <g id="text_10">
      <!-- −1.0 -->
      <g transform="translate(26.685 191.673586) scale(0.1 -0.1)">
       <use xlink:href="#DejaVuSans-2212"/>
       <use xlink:href="#DejaVuSans-31" x="83.789062"/>
       <use xlink:href="#DejaVuSans-2e" x="147.412109"/>
       <use xlink:href="#DejaVuSans-30" x="179.199219"/>
      </g>
     </g>
    </g>
    <g id="ytick_4">
     <g id="line2d_10">
      <g>
       <use xlink:href="#m9fd020f846" x="57.967813" y="162.790067" style="stroke: #000000; stroke-width: 0.8"/>
      </g>
     </g>
     <g id="text_11">
      <!-- −0.5 -->
      <g transform="translate(26.685 166.589286) scale(0.1 -0.1)">
       <use xlink:href="#DejaVuSans-2212"/>
       <use xlink:href="#DejaVuSans-30" x="83.789062"/>
       <use xlink:href="#DejaVuSans-2e" x="147.412109"/>
       <use xlink:href="#DejaVuSans-35" x="179.199219"/>
      </g>
     </g>
    </g>
    <g id="ytick_5">
     <g id="line2d_11">
      <g>
       <use xlink:href="#m9fd020f846" x="57.967813" y="137.705767" style="stroke: #000000; stroke-width: 0.8"/>
      </g>
     </g>
     <g id="text_12">
      <!-- 0.0 -->
      <g transform="translate(35.064688 141.504986) scale(0.1 -0.1)">
       <use xlink:href="#DejaVuSans-30"/>
       <use xlink:href="#DejaVuSans-2e" x="63.623047"/>
       <use xlink:href="#DejaVuSans-30" x="95.410156"/>
      </g>
     </g>
    </g>
    <g id="ytick_6">
     <g id="line2d_12">
      <g>
       <use xlink:href="#m9fd020f846" x="57.967813" y="112.621467" style="stroke: #000000; stroke-width: 0.8"/>
      </g>
     </g>
     <g id="text_13">
      <!-- 0.5 -->
      <g transform="translate(35.064688 116.420686) scale(0.1 -0.1)">
       <use xlink:href="#DejaVuSans-30"/>
       <use xlink:href="#DejaVuSans-2e" x="63.623047"/>
       <use xlink:href="#DejaVuSans-35" x="95.410156"/>
      </g>
     </g>
    </g>
    <g id="ytick_7">
     <g id="line2d_13">
      <g>
       <use xlink:href="#m9fd020f846" x="57.967813" y="87.537168" style="stroke: #000000; stroke-width: 0.8"/>
      </g>
     </g>
     <g id="text_14">
      <!-- 1.0 -->
      <g transform="translate(35.064688 91.336386) scale(0.1 -0.1)">
       <use xlink:href="#DejaVuSans-31"/>
       <use xlink:href="#DejaVuSans-2e" x="63.623047"/>
       <use xlink:href="#DejaVuSans-30" x="95.410156"/>
      </g>
     </g>
    </g>
    <g id="ytick_8">
     <g id="line2d_14">
      <g>
       <use xlink:href="#m9fd020f846" x="57.967813" y="62.452868" style="stroke: #000000; stroke-width: 0.8"/>
      </g>
     </g>
     <g id="text_15">
      <!-- 1.5 -->
      <g transform="translate(35.064688 66.252087) scale(0.1 -0.1)">
       <use xlink:href="#DejaVuSans-31"/>
       <use xlink:href="#DejaVuSans-2e" x="63.623047"/>
       <use xlink:href="#DejaVuSans-35" x="95.410156"/>
      </g>
     </g>
    </g>
    <g id="ytick_9">
     <g id="line2d_15">
      <g>
       <use xlink:href="#m9fd020f846" x="57.967813" y="37.368568" style="stroke: #000000; stroke-width: 0.8"/>
      </g>
     </g>
     <g id="text_16">
      <!-- 2.0 -->
      <g transform="translate(35.064688 41.167787) scale(0.1 -0.1)">
       <use xlink:href="#DejaVuSans-32"/>
       <use xlink:href="#DejaVuSans-2e" x="63.623047"/>
       <use xlink:href="#DejaVuSans-30" x="95.410156"/>
      </g>
     </g>
    </g>
    <g id="text_17">
     <!-- $x$ -->
     <g transform="translate(19.3575 142.397187) rotate(-90) scale(0.16 -0.16)">
      <defs>
       <path id="Cmmi10-78" d="M 500 184 
Q 613 97 819 97 
Q 1019 97 1172 289 
Q 1325 481 1381 709 
L 1672 1844 
Q 1741 2153 1741 2266 
Q 1741 2425 1652 2544 
Q 1563 2663 1403 2663 
Q 1200 2663 1022 2536 
Q 844 2409 722 2214 
Q 600 2019 550 1819 
Q 538 1778 500 1778 
L 422 1778 
Q 372 1778 372 1838 
L 372 1856 
Q 434 2094 584 2320 
Q 734 2547 951 2687 
Q 1169 2828 1416 2828 
Q 1650 2828 1839 2703 
Q 2028 2578 2106 2363 
Q 2216 2559 2386 2693 
Q 2556 2828 2759 2828 
Q 2897 2828 3040 2779 
Q 3184 2731 3275 2631 
Q 3366 2531 3366 2381 
Q 3366 2219 3261 2101 
Q 3156 1984 2994 1984 
Q 2891 1984 2822 2050 
Q 2753 2116 2753 2216 
Q 2753 2350 2845 2451 
Q 2938 2553 3066 2572 
Q 2950 2663 2747 2663 
Q 2541 2663 2389 2472 
Q 2238 2281 2175 2047 
L 1894 916 
Q 1825 659 1825 494 
Q 1825 331 1917 214 
Q 2009 97 2163 97 
Q 2463 97 2698 361 
Q 2934 625 3009 941 
Q 3022 978 3059 978 
L 3138 978 
Q 3163 978 3178 961 
Q 3194 944 3194 922 
Q 3194 916 3188 903 
Q 3097 522 2806 225 
Q 2516 -72 2150 -72 
Q 1916 -72 1727 54 
Q 1538 181 1459 397 
Q 1359 209 1182 68 
Q 1006 -72 806 -72 
Q 669 -72 523 -23 
Q 378 25 287 125 
Q 197 225 197 378 
Q 197 528 301 651 
Q 406 775 563 775 
Q 669 775 741 711 
Q 813 647 813 544 
Q 813 409 723 309 
Q 634 209 500 184 
z
" transform="scale(0.015625)"/>
      </defs>
      <use xlink:href="#Cmmi10-78" transform="translate(0 0.8125)"/>
     </g>
    </g>
   </g>
   <g id="line2d_16">
    <path d="M 57.967813 37.368568 
L 59.233312 37.459361 
L 60.922447 37.836397 
L 62.189298 38.285125 
L 64.273236 39.284213 
L 66.357175 40.555503 
L 68.441113 42.051857 
L 70.525052 43.737985 
L 74.692928 47.5838 
L 78.860805 51.966843 
L 81.644502 55.166874 
L 84.428199 58.582474 
L 87.211896 62.220727 
L 89.995592 66.096034 
L 92.779289 70.229814 
L 95.562986 74.650704 
L 98.346683 79.395168 
L 101.13038 84.508466 
L 104.76951 91.844796 
L 108.408641 100.057225 
L 112.047771 109.336504 
L 115.686901 119.900388 
L 119.326032 131.970137 
L 122.965162 145.702772 
L 126.604293 161.049902 
L 135.518245 201.264321 
L 137.276519 208.409491 
L 139.034793 214.893564 
L 140.793066 220.595904 
L 142.55134 225.448099 
L 144.309614 229.435402 
L 146.067888 232.586486 
L 147.826162 234.964447 
L 149.584436 236.652071 
L 151.34271 237.739265 
L 153.100984 238.314188 
L 154.859257 238.458116 
L 156.617531 238.242355 
L 158.375805 237.727093 
L 160.553713 236.747847 
L 162.731621 235.460765 
L 164.909529 233.922607 
L 167.087436 232.175342 
L 169.265344 230.249272 
L 173.62116 225.938504 
L 175.799067 223.576737 
L 178.724703 220.198999 
L 181.650338 216.585726 
L 184.575974 212.727467 
L 187.501609 208.606084 
L 190.427245 204.195001 
L 193.35288 199.458831 
L 196.278516 194.352445 
L 199.204151 188.819626 
L 202.843282 181.234724 
L 206.482412 172.72228 
L 210.121543 163.080333 
L 213.760673 152.085367 
L 217.399804 139.525499 
L 221.038934 125.286616 
L 224.678064 109.516874 
L 231.988973 76.336304 
L 233.824863 68.715733 
L 235.660752 61.775748 
L 237.496641 55.664124 
L 239.33253 50.471446 
L 241.168419 46.223622 
L 243.004309 42.889449 
L 244.840198 40.40128 
L 246.676087 38.664746 
L 248.511976 37.577025 
L 250.347866 37.038151 
L 252.183755 36.957187 
L 254.019644 37.254742 
L 255.855533 37.864564 
L 257.691422 38.733212 
L 259.60297 39.865613 
L 261.514517 41.193136 
L 263.426065 42.686484 
L 267.24916 46.087906 
L 271.072255 49.955713 
L 275.606257 55.076999 
L 278.228712 58.296763 
L 280.851167 61.711692 
L 283.473622 65.333686 
L 286.096077 69.180071 
L 288.718532 73.273724 
L 291.340987 77.643487 
L 293.963442 82.324836 
L 297.602572 89.420926 
L 301.241703 97.341567 
L 304.880833 106.265534 
L 308.519964 116.402886 
L 312.159094 127.979005 
L 315.798225 141.182907 
L 319.437355 156.050898 
L 324.954421 180.929743 
L 328.710293 197.89764 
L 330.588229 205.774648 
L 332.466165 212.962826 
L 334.3441 219.296041 
L 336.222036 224.672898 
L 338.099972 229.062584 
L 339.474756 231.663856 
L 340.849541 233.777785 
L 342.224325 235.440866 
L 343.59911 236.694601 
L 344.973894 237.58224 
L 346.348678 238.146352 
L 347.723463 238.42711 
L 349.098247 238.461221 
L 349.098247 238.461221 
" clip-path="url(#pdfba6ba9d2)" style="fill: none; stroke: #0000ff; stroke-width: 2; stroke-linecap: square"/>
   </g>
   <g id="line2d_17">
    <path d="M 57.967813 37.364286 
L 58.811029 37.464406 
L 60.500163 37.820405 
L 62.189298 38.375892 
L 64.273236 39.319553 
L 66.357175 40.526198 
L 68.441113 41.970217 
L 70.525052 43.625774 
L 72.60899 45.468433 
L 76.776867 49.631497 
L 78.860805 51.919583 
L 81.644502 55.166622 
L 84.428199 58.622144 
L 87.211896 62.286632 
L 89.995592 66.172916 
L 92.779289 70.304755 
L 95.562986 74.715995 
L 98.346683 79.449527 
L 101.13038 84.556341 
L 104.76951 91.894265 
L 108.408641 100.123275 
L 112.047771 109.422515 
L 115.686901 119.998824 
L 119.326032 132.070223 
L 122.965162 145.801542 
L 126.604293 161.158163 
L 135.518245 201.394764 
L 137.276519 208.521251 
L 139.034793 214.976317 
L 140.793066 220.644181 
L 142.55134 225.461997 
L 144.309614 229.418726 
L 146.067888 232.546901 
L 147.826162 234.909929 
L 149.584436 236.588811 
L 151.34271 237.670587 
L 153.100984 238.240696 
L 154.859257 238.377185 
L 156.617531 238.149098 
L 158.375805 237.615661 
L 160.553713 236.605455 
L 162.731621 235.280305 
L 164.909529 233.701694 
L 167.087436 231.917548 
L 171.443252 227.865998 
L 175.799067 223.285329 
L 178.724703 219.922273 
L 181.650338 216.307094 
L 184.575974 212.414651 
L 187.501609 208.225715 
L 190.427245 203.72869 
L 193.35288 198.911251 
L 196.278516 193.746772 
L 199.204151 188.184537 
L 202.843282 180.589332 
L 206.482412 172.04158 
L 210.121543 162.270485 
L 213.760673 151.042589 
L 217.399804 138.305281 
L 221.038934 124.094907 
L 224.678064 108.378497 
L 231.988973 75.031098 
L 233.824863 67.517723 
L 235.660752 60.771139 
L 237.496641 54.901277 
L 239.33253 49.951099 
L 241.168419 45.910128 
L 243.004309 42.729766 
L 244.840198 40.338557 
L 246.676087 38.653378 
L 248.511976 37.587379 
L 250.347866 37.056012 
L 252.183755 36.980023 
L 254.019644 37.287699 
L 255.855533 37.915724 
L 257.691422 38.809459 
L 259.60297 39.972978 
L 261.514517 41.332132 
L 265.337612 44.510652 
L 269.160707 48.166421 
L 272.983802 52.219078 
L 275.606257 55.220686 
L 278.228712 58.411945 
L 280.851167 61.808175 
L 283.473622 65.428168 
L 286.096077 69.292945 
L 288.718532 73.424653 
L 291.340987 77.847017 
L 293.963442 82.586942 
L 297.602572 89.75256 
L 301.241703 97.710931 
L 304.880833 106.631401 
L 308.519964 116.744154 
L 312.159094 128.317799 
L 315.798225 141.580614 
L 319.437355 156.566704 
L 330.588229 206.322897 
L 332.466165 213.438236 
L 334.3441 219.699605 
L 336.222036 225.015787 
L 338.099972 229.359691 
L 339.474756 231.937906 
L 340.849541 234.035146 
L 342.224325 235.684436 
L 343.59911 236.923148 
L 344.973894 237.789845 
L 346.348678 238.322522 
L 347.723463 238.557187 
L 349.098247 238.527034 
L 349.098247 238.527034 
" clip-path="url(#pdfba6ba9d2)" style="fill: none; stroke-dasharray: 12.8,3.2,2,3.2; stroke-dashoffset: 0; stroke: #ff0000; stroke-width: 2"/>
   </g>
   <g id="line2d_18">
    <path d="M 57.967813 37.355375 
L 60.07788 37.727438 
L 62.189298 38.345601 
L 64.273236 39.20972 
L 66.357175 40.323445 
L 68.441113 41.675231 
L 70.525052 43.249112 
L 72.60899 45.027205 
L 74.692928 46.991826 
L 78.860805 51.417862 
L 81.644502 54.703756 
L 84.428199 58.23254 
L 87.211896 61.998931 
L 89.995592 66.009646 
L 92.779289 70.283434 
L 95.562986 74.850575 
L 98.346683 79.752107 
L 101.13038 85.037771 
L 104.76951 92.6198 
L 108.408641 101.078688 
L 112.047771 110.517048 
L 115.686901 120.980216 
L 119.326032 132.415588 
L 122.965162 144.632444 
L 130.243423 169.790723 
L 133.759971 181.124082 
L 135.518245 186.289279 
L 137.276519 191.007034 
L 139.034793 195.202734 
L 140.793066 198.817099 
L 142.55134 201.8114 
L 144.309614 204.17133 
L 146.067888 205.907858 
L 147.826162 207.054212 
L 149.584436 207.660115 
L 151.34271 207.784403 
L 153.100984 207.488078 
L 154.859257 206.82902 
L 156.617531 205.858949 
L 158.375805 204.622216 
L 160.553713 202.775993 
L 162.731621 200.635633 
L 164.909529 198.24806 
L 167.087436 195.652257 
L 171.443252 189.964885 
L 175.799067 183.797274 
L 181.650338 175.0779 
L 193.35288 157.499888 
L 199.204151 149.228482 
L 202.843282 144.398316 
L 206.482412 139.857897 
L 210.121543 135.637976 
L 213.760673 131.760573 
L 217.399804 128.239911 
L 221.038934 125.083059 
L 224.678064 122.290971 
L 228.317195 119.859444 
L 231.988973 117.763436 
L 235.660752 116.014854 
L 239.33253 114.600215 
L 243.004309 113.504785 
L 246.676087 112.71309 
L 250.347866 112.209562 
L 254.019644 111.97882 
L 257.691422 112.006041 
L 261.514517 112.293296 
L 265.337612 112.829785 
L 269.160707 113.601099 
L 272.983802 114.594061 
L 278.228712 116.29388 
L 283.473622 118.356905 
L 288.718532 120.755123 
L 293.963442 123.462243 
L 297.602572 125.508899 
L 304.880833 129.980949 
L 312.159094 134.907306 
L 319.437355 140.229768 
L 326.832357 145.985977 
L 334.3441 152.135084 
L 343.59911 160.047524 
L 349.098247 164.887014 
L 349.098247 164.887014 
" clip-path="url(#pdfba6ba9d2)" style="fill: none; stroke-dasharray: 7.4,3.2; stroke-dashoffset: 0; stroke: #000000; stroke-width: 2"/>
   </g>
   <g id="patch_3">
    <path d="M 57.967813 248.637187 
L 57.967813 26.877187 
" style="fill: none; stroke: #000000; stroke-width: 0.8; stroke-linejoin: miter; stroke-linecap: square"/>
   </g>
   <g id="patch_4">
    <path d="M 349.098247 248.637187 
L 349.098247 26.877187 
" style="fill: none; stroke: #000000; stroke-width: 0.8; stroke-linejoin: miter; stroke-linecap: square"/>
   </g>
   <g id="patch_5">
    <path d="M 57.967813 248.637187 
L 349.098247 248.637187 
" style="fill: none; stroke: #000000; stroke-width: 0.8; stroke-linejoin: miter; stroke-linecap: square"/>
   </g>
   <g id="patch_6">
    <path d="M 57.967813 26.877187 
L 349.098247 26.877187 
" style="fill: none; stroke: #000000; stroke-width: 0.8; stroke-linejoin: miter; stroke-linecap: square"/>
   </g>
   <g id="text_18">
    <!-- Oscillator Position -->
    <g transform="translate(123.164436 20.877187) scale(0.18 -0.18)">
     <defs>
      <path id="DejaVuSans-4f" d="M 2522 4238 
Q 1834 4238 1429 3725 
Q 1025 3213 1025 2328 
Q 1025 1447 1429 934 
Q 1834 422 2522 422 
Q 3209 422 3611 934 
Q 4013 1447 4013 2328 
Q 4013 3213 3611 3725 
Q 3209 4238 2522 4238 
z
M 2522 4750 
Q 3503 4750 4090 4092 
Q 4678 3434 4678 2328 
Q 4678 1225 4090 567 
Q 3503 -91 2522 -91 
Q 1538 -91 948 565 
Q 359 1222 359 2328 
Q 359 3434 948 4092 
Q 1538 4750 2522 4750 
z
" transform="scale(0.015625)"/>
      <path id="DejaVuSans-63" d="M 3122 3366 
L 3122 2828 
Q 2878 2963 2633 3030 
Q 2388 3097 2138 3097 
Q 1578 3097 1268 2742 
Q 959 2388 959 1747 
Q 959 1106 1268 751 
Q 1578 397 2138 397 
Q 2388 397 2633 464 
Q 2878 531 3122 666 
L 3122 134 
Q 2881 22 2623 -34 
Q 2366 -91 2075 -91 
Q 1284 -91 818 406 
Q 353 903 353 1747 
Q 353 2603 823 3093 
Q 1294 3584 2113 3584 
Q 2378 3584 2631 3529 
Q 2884 3475 3122 3366 
z
" transform="scale(0.015625)"/>
      <path id="DejaVuSans-6c" d="M 603 4863 
L 1178 4863 
L 1178 0 
L 603 0 
L 603 4863 
z
" transform="scale(0.015625)"/>
      <path id="DejaVuSans-61" d="M 2194 1759 
Q 1497 1759 1228 1600 
Q 959 1441 959 1056 
Q 959 750 1161 570 
Q 1363 391 1709 391 
Q 2188 391 2477 730 
Q 2766 1069 2766 1631 
L 2766 1759 
L 2194 1759 
z
M 3341 1997 
L 3341 0 
L 2766 0 
L 2766 531 
Q 2569 213 2275 61 
Q 1981 -91 1556 -91 
Q 1019 -91 701 211 
Q 384 513 384 1019 
Q 384 1609 779 1909 
Q 1175 2209 1959 2209 
L 2766 2209 
L 2766 2266 
Q 2766 2663 2505 2880 
Q 2244 3097 1772 3097 
Q 1472 3097 1187 3025 
Q 903 2953 641 2809 
L 641 3341 
Q 956 3463 1253 3523 
Q 1550 3584 1831 3584 
Q 2591 3584 2966 3190 
Q 3341 2797 3341 1997 
z
" transform="scale(0.015625)"/>
      <path id="DejaVuSans-74" d="M 1172 4494 
L 1172 3500 
L 2356 3500 
L 2356 3053 
L 1172 3053 
L 1172 1153 
Q 1172 725 1289 603 
Q 1406 481 1766 481 
L 2356 481 
L 2356 0 
L 1766 0 
Q 1100 0 847 248 
Q 594 497 594 1153 
L 594 3053 
L 172 3053 
L 172 3500 
L 594 3500 
L 594 4494 
L 1172 4494 
z
" transform="scale(0.015625)"/>
      <path id="DejaVuSans-6f" d="M 1959 3097 
Q 1497 3097 1228 2736 
Q 959 2375 959 1747 
Q 959 1119 1226 758 
Q 1494 397 1959 397 
Q 2419 397 2687 759 
Q 2956 1122 2956 1747 
Q 2956 2369 2687 2733 
Q 2419 3097 1959 3097 
z
M 1959 3584 
Q 2709 3584 3137 3096 
Q 3566 2609 3566 1747 
Q 3566 888 3137 398 
Q 2709 -91 1959 -91 
Q 1206 -91 779 398 
Q 353 888 353 1747 
Q 353 2609 779 3096 
Q 1206 3584 1959 3584 
z
" transform="scale(0.015625)"/>
      <path id="DejaVuSans-72" d="M 2631 2963 
Q 2534 3019 2420 3045 
Q 2306 3072 2169 3072 
Q 1681 3072 1420 2755 
Q 1159 2438 1159 1844 
L 1159 0 
L 581 0 
L 581 3500 
L 1159 3500 
L 1159 2956 
Q 1341 3275 1631 3429 
Q 1922 3584 2338 3584 
Q 2397 3584 2469 3576 
Q 2541 3569 2628 3553 
L 2631 2963 
z
" transform="scale(0.015625)"/>
      <path id="DejaVuSans-20" transform="scale(0.015625)"/>
      <path id="DejaVuSans-50" d="M 1259 4147 
L 1259 2394 
L 2053 2394 
Q 2494 2394 2734 2622 
Q 2975 2850 2975 3272 
Q 2975 3691 2734 3919 
Q 2494 4147 2053 4147 
L 1259 4147 
z
M 628 4666 
L 2053 4666 
Q 2838 4666 3239 4311 
Q 3641 3956 3641 3272 
Q 3641 2581 3239 2228 
Q 2838 1875 2053 1875 
L 1259 1875 
L 1259 0 
L 628 0 
L 628 4666 
z
" transform="scale(0.015625)"/>
      <path id="DejaVuSans-6e" d="M 3513 2113 
L 3513 0 
L 2938 0 
L 2938 2094 
Q 2938 2591 2744 2837 
Q 2550 3084 2163 3084 
Q 1697 3084 1428 2787 
Q 1159 2491 1159 1978 
L 1159 0 
L 581 0 
L 581 3500 
L 1159 3500 
L 1159 2956 
Q 1366 3272 1645 3428 
Q 1925 3584 2291 3584 
Q 2894 3584 3203 3211 
Q 3513 2838 3513 2113 
z
" transform="scale(0.015625)"/>
     </defs>
     <use xlink:href="#DejaVuSans-4f"/>
     <use xlink:href="#DejaVuSans-73" x="78.710938"/>
     <use xlink:href="#DejaVuSans-63" x="130.810547"/>
     <use xlink:href="#DejaVuSans-69" x="185.791016"/>
     <use xlink:href="#DejaVuSans-6c" x="213.574219"/>
     <use xlink:href="#DejaVuSans-6c" x="241.357422"/>
     <use xlink:href="#DejaVuSans-61" x="269.140625"/>
     <use xlink:href="#DejaVuSans-74" x="330.419922"/>
     <use xlink:href="#DejaVuSans-6f" x="369.628906"/>
     <use xlink:href="#DejaVuSans-72" x="430.810547"/>
     <use xlink:href="#DejaVuSans-20" x="471.923828"/>
     <use xlink:href="#DejaVuSans-50" x="503.710938"/>
     <use xlink:href="#DejaVuSans-6f" x="560.388672"/>
     <use xlink:href="#DejaVuSans-73" x="621.570312"/>
     <use xlink:href="#DejaVuSans-69" x="673.669922"/>
     <use xlink:href="#DejaVuSans-74" x="701.453125"/>
     <use xlink:href="#DejaVuSans-69" x="740.662109"/>
     <use xlink:href="#DejaVuSans-6f" x="768.445312"/>
     <use xlink:href="#DejaVuSans-6e" x="829.626953"/>
    </g>
   </g>
   <g id="legend_1">
    <g id="patch_7">
     <path d="M 64.967813 78.911562 
L 193.34125 78.911562 
Q 195.34125 78.911562 195.34125 76.911562 
L 195.34125 33.877187 
Q 195.34125 31.877187 193.34125 31.877187 
L 64.967813 31.877187 
Q 62.967813 31.877187 62.967813 33.877187 
L 62.967813 76.911562 
Q 62.967813 78.911562 64.967813 78.911562 
z
" style="fill: #ffffff; opacity: 0.8; stroke: #cccccc; stroke-linejoin: miter"/>
    </g>
    <g id="line2d_19">
     <path d="M 66.967813 39.975625 
L 76.967813 39.975625 
L 86.967813 39.975625 
" style="fill: none; stroke: #0000ff; stroke-width: 2; stroke-linecap: square"/>
    </g>
    <g id="text_19">
     <!-- Numerical Solver -->
     <g transform="translate(94.967813 43.475625) scale(0.1 -0.1)">
      <defs>
       <path id="DejaVuSans-4e" d="M 628 4666 
L 1478 4666 
L 3547 763 
L 3547 4666 
L 4159 4666 
L 4159 0 
L 3309 0 
L 1241 3903 
L 1241 0 
L 628 0 
L 628 4666 
z
" transform="scale(0.015625)"/>
       <path id="DejaVuSans-75" d="M 544 1381 
L 544 3500 
L 1119 3500 
L 1119 1403 
Q 1119 906 1312 657 
Q 1506 409 1894 409 
Q 2359 409 2629 706 
Q 2900 1003 2900 1516 
L 2900 3500 
L 3475 3500 
L 3475 0 
L 2900 0 
L 2900 538 
Q 2691 219 2414 64 
Q 2138 -91 1772 -91 
Q 1169 -91 856 284 
Q 544 659 544 1381 
z
M 1991 3584 
L 1991 3584 
z
" transform="scale(0.015625)"/>
       <path id="DejaVuSans-53" d="M 3425 4513 
L 3425 3897 
Q 3066 4069 2747 4153 
Q 2428 4238 2131 4238 
Q 1616 4238 1336 4038 
Q 1056 3838 1056 3469 
Q 1056 3159 1242 3001 
Q 1428 2844 1947 2747 
L 2328 2669 
Q 3034 2534 3370 2195 
Q 3706 1856 3706 1288 
Q 3706 609 3251 259 
Q 2797 -91 1919 -91 
Q 1588 -91 1214 -16 
Q 841 59 441 206 
L 441 856 
Q 825 641 1194 531 
Q 1563 422 1919 422 
Q 2459 422 2753 634 
Q 3047 847 3047 1241 
Q 3047 1584 2836 1778 
Q 2625 1972 2144 2069 
L 1759 2144 
Q 1053 2284 737 2584 
Q 422 2884 422 3419 
Q 422 4038 858 4394 
Q 1294 4750 2059 4750 
Q 2388 4750 2728 4690 
Q 3069 4631 3425 4513 
z
" transform="scale(0.015625)"/>
       <path id="DejaVuSans-76" d="M 191 3500 
L 800 3500 
L 1894 563 
L 2988 3500 
L 3597 3500 
L 2284 0 
L 1503 0 
L 191 3500 
z
" transform="scale(0.015625)"/>
      </defs>
      <use xlink:href="#DejaVuSans-4e"/>
      <use xlink:href="#DejaVuSans-75" x="74.804688"/>
      <use xlink:href="#DejaVuSans-6d" x="138.183594"/>
      <use xlink:href="#DejaVuSans-65" x="235.595703"/>
      <use xlink:href="#DejaVuSans-72" x="297.119141"/>
      <use xlink:href="#DejaVuSans-69" x="338.232422"/>
      <use xlink:href="#DejaVuSans-63" x="366.015625"/>
      <use xlink:href="#DejaVuSans-61" x="420.996094"/>
      <use xlink:href="#DejaVuSans-6c" x="482.275391"/>
      <use xlink:href="#DejaVuSans-20" x="510.058594"/>
      <use xlink:href="#DejaVuSans-53" x="541.845703"/>
      <use xlink:href="#DejaVuSans-6f" x="605.322266"/>
      <use xlink:href="#DejaVuSans-6c" x="666.503906"/>
      <use xlink:href="#DejaVuSans-76" x="694.287109"/>
      <use xlink:href="#DejaVuSans-65" x="753.466797"/>
      <use xlink:href="#DejaVuSans-72" x="814.990234"/>
     </g>
    </g>
    <g id="line2d_20">
     <path d="M 66.967813 54.65375 
L 76.967813 54.65375 
L 86.967813 54.65375 
" style="fill: none; stroke-dasharray: 12.8,3.2,2,3.2; stroke-dashoffset: 0; stroke: #ff0000; stroke-width: 2"/>
    </g>
    <g id="text_20">
     <!-- co-PINN (Proposed) -->
     <g transform="translate(94.967813 58.15375) scale(0.1 -0.1)">
      <defs>
       <path id="DejaVuSans-2d" d="M 313 2009 
L 1997 2009 
L 1997 1497 
L 313 1497 
L 313 2009 
z
" transform="scale(0.015625)"/>
       <path id="DejaVuSans-49" d="M 628 4666 
L 1259 4666 
L 1259 0 
L 628 0 
L 628 4666 
z
" transform="scale(0.015625)"/>
       <path id="DejaVuSans-70" d="M 1159 525 
L 1159 -1331 
L 581 -1331 
L 581 3500 
L 1159 3500 
L 1159 2969 
Q 1341 3281 1617 3432 
Q 1894 3584 2278 3584 
Q 2916 3584 3314 3078 
Q 3713 2572 3713 1747 
Q 3713 922 3314 415 
Q 2916 -91 2278 -91 
Q 1894 -91 1617 61 
Q 1341 213 1159 525 
z
M 3116 1747 
Q 3116 2381 2855 2742 
Q 2594 3103 2138 3103 
Q 1681 3103 1420 2742 
Q 1159 2381 1159 1747 
Q 1159 1113 1420 752 
Q 1681 391 2138 391 
Q 2594 391 2855 752 
Q 3116 1113 3116 1747 
z
" transform="scale(0.015625)"/>
       <path id="DejaVuSans-64" d="M 2906 2969 
L 2906 4863 
L 3481 4863 
L 3481 0 
L 2906 0 
L 2906 525 
Q 2725 213 2448 61 
Q 2172 -91 1784 -91 
Q 1150 -91 751 415 
Q 353 922 353 1747 
Q 353 2572 751 3078 
Q 1150 3584 1784 3584 
Q 2172 3584 2448 3432 
Q 2725 3281 2906 2969 
z
M 947 1747 
Q 947 1113 1208 752 
Q 1469 391 1925 391 
Q 2381 391 2643 752 
Q 2906 1113 2906 1747 
Q 2906 2381 2643 2742 
Q 2381 3103 1925 3103 
Q 1469 3103 1208 2742 
Q 947 2381 947 1747 
z
" transform="scale(0.015625)"/>
      </defs>
      <use xlink:href="#DejaVuSans-63"/>
      <use xlink:href="#DejaVuSans-6f" x="54.980469"/>
      <use xlink:href="#DejaVuSans-2d" x="118.037109"/>
      <use xlink:href="#DejaVuSans-50" x="154.121094"/>
      <use xlink:href="#DejaVuSans-49" x="214.423828"/>
      <use xlink:href="#DejaVuSans-4e" x="243.916016"/>
      <use xlink:href="#DejaVuSans-4e" x="318.720703"/>
      <use xlink:href="#DejaVuSans-20" x="393.525391"/>
      <use xlink:href="#DejaVuSans-28" x="425.3125"/>
      <use xlink:href="#DejaVuSans-50" x="464.326172"/>
      <use xlink:href="#DejaVuSans-72" x="522.878906"/>
      <use xlink:href="#DejaVuSans-6f" x="561.742188"/>
      <use xlink:href="#DejaVuSans-70" x="622.923828"/>
      <use xlink:href="#DejaVuSans-6f" x="686.400391"/>
      <use xlink:href="#DejaVuSans-73" x="747.582031"/>
      <use xlink:href="#DejaVuSans-65" x="799.681641"/>
      <use xlink:href="#DejaVuSans-64" x="861.205078"/>
      <use xlink:href="#DejaVuSans-29" x="924.681641"/>
     </g>
    </g>
    <g id="line2d_21">
     <path d="M 66.967813 69.331875 
L 76.967813 69.331875 
L 86.967813 69.331875 
" style="fill: none; stroke-dasharray: 7.4,3.2; stroke-dashoffset: 0; stroke: #000000; stroke-width: 2"/>
    </g>
    <g id="text_21">
     <!-- Vanilla PINN -->
     <g transform="translate(94.967813 72.831875) scale(0.1 -0.1)">
      <defs>
       <path id="DejaVuSans-56" d="M 1831 0 
L 50 4666 
L 709 4666 
L 2188 738 
L 3669 4666 
L 4325 4666 
L 2547 0 
L 1831 0 
z
" transform="scale(0.015625)"/>
      </defs>
      <use xlink:href="#DejaVuSans-56"/>
      <use xlink:href="#DejaVuSans-61" x="60.658203"/>
      <use xlink:href="#DejaVuSans-6e" x="121.9375"/>
      <use xlink:href="#DejaVuSans-69" x="185.316406"/>
      <use xlink:href="#DejaVuSans-6c" x="213.099609"/>
      <use xlink:href="#DejaVuSans-6c" x="240.882812"/>
      <use xlink:href="#DejaVuSans-61" x="268.666016"/>
      <use xlink:href="#DejaVuSans-20" x="329.945312"/>
      <use xlink:href="#DejaVuSans-50" x="361.732422"/>
      <use xlink:href="#DejaVuSans-49" x="422.035156"/>
      <use xlink:href="#DejaVuSans-4e" x="451.527344"/>
      <use xlink:href="#DejaVuSans-4e" x="526.332031"/>
     </g>
    </g>
   </g>
  </g>
  <g id="axes_2">
   <g id="patch_8">
    <path d="M 436.437378 248.637187 
L 727.567813 248.637187 
L 727.567813 26.877187 
L 436.437378 26.877187 
z
" style="fill: #ffffff"/>
   </g>
   <g id="matplotlib.axis_3">
    <g id="xtick_7">
     <g id="line2d_22">
      <g>
       <use xlink:href="#m0f603504b2" x="436.437378" y="248.637187" style="stroke: #000000; stroke-width: 0.8"/>
      </g>
     </g>
     <g id="text_22">
      <!-- 0 -->
      <g transform="translate(433.256128 263.235625) scale(0.1 -0.1)">
       <use xlink:href="#DejaVuSans-30"/>
      </g>
     </g>
    </g>
    <g id="xtick_8">
     <g id="line2d_23">
      <g>
       <use xlink:href="#m0f603504b2" x="494.663465" y="248.637187" style="stroke: #000000; stroke-width: 0.8"/>
      </g>
     </g>
     <g id="text_23">
      <!-- 2 -->
      <g transform="translate(491.482215 263.235625) scale(0.1 -0.1)">
       <use xlink:href="#DejaVuSans-32"/>
      </g>
     </g>
    </g>
    <g id="xtick_9">
     <g id="line2d_24">
      <g>
       <use xlink:href="#m0f603504b2" x="552.889552" y="248.637187" style="stroke: #000000; stroke-width: 0.8"/>
      </g>
     </g>
     <g id="text_24">
      <!-- 4 -->
      <g transform="translate(549.708302 263.235625) scale(0.1 -0.1)">
       <use xlink:href="#DejaVuSans-34"/>
      </g>
     </g>
    </g>
    <g id="xtick_10">
     <g id="line2d_25">
      <g>
       <use xlink:href="#m0f603504b2" x="611.115639" y="248.637187" style="stroke: #000000; stroke-width: 0.8"/>
      </g>
     </g>
     <g id="text_25">
      <!-- 6 -->
      <g transform="translate(607.934389 263.235625) scale(0.1 -0.1)">
       <use xlink:href="#DejaVuSans-36"/>
      </g>
     </g>
    </g>
    <g id="xtick_11">
     <g id="line2d_26">
      <g>
       <use xlink:href="#m0f603504b2" x="669.341726" y="248.637187" style="stroke: #000000; stroke-width: 0.8"/>
      </g>
     </g>
     <g id="text_26">
      <!-- 8 -->
      <g transform="translate(666.160476 263.235625) scale(0.1 -0.1)">
       <use xlink:href="#DejaVuSans-38"/>
      </g>
     </g>
    </g>
    <g id="xtick_12">
     <g id="line2d_27">
      <g>
       <use xlink:href="#m0f603504b2" x="727.567813" y="248.637187" style="stroke: #000000; stroke-width: 0.8"/>
      </g>
     </g>
     <g id="text_27">
      <!-- 10 -->
      <g transform="translate(721.205313 263.235625) scale(0.1 -0.1)">
       <use xlink:href="#DejaVuSans-31"/>
       <use xlink:href="#DejaVuSans-30" x="63.623047"/>
      </g>
     </g>
    </g>
    <g id="text_28">
     <!-- Time(s) -->
     <g transform="translate(563.262751 276.91375) scale(0.1 -0.1)">
      <use xlink:href="#DejaVuSans-54"/>
      <use xlink:href="#DejaVuSans-69" x="57.958984"/>
      <use xlink:href="#DejaVuSans-6d" x="85.742188"/>
      <use xlink:href="#DejaVuSans-65" x="183.154297"/>
      <use xlink:href="#DejaVuSans-28" x="244.677734"/>
      <use xlink:href="#DejaVuSans-73" x="283.691406"/>
      <use xlink:href="#DejaVuSans-29" x="335.791016"/>
     </g>
    </g>
   </g>
   <g id="matplotlib.axis_4">
    <g id="ytick_10">
     <g id="line2d_28">
      <g>
       <use xlink:href="#m9fd020f846" x="436.437378" y="212.978078" style="stroke: #000000; stroke-width: 0.8"/>
      </g>
     </g>
     <g id="text_29">
      <!-- −2 -->
      <g transform="translate(414.69519 216.777297) scale(0.1 -0.1)">
       <use xlink:href="#DejaVuSans-2212"/>
       <use xlink:href="#DejaVuSans-32" x="83.789062"/>
      </g>
     </g>
    </g>
    <g id="ytick_11">
     <g id="line2d_29">
      <g>
       <use xlink:href="#m9fd020f846" x="436.437378" y="175.318713" style="stroke: #000000; stroke-width: 0.8"/>
      </g>
     </g>
     <g id="text_30">
      <!-- −1 -->
      <g transform="translate(414.69519 179.117932) scale(0.1 -0.1)">
       <use xlink:href="#DejaVuSans-2212"/>
       <use xlink:href="#DejaVuSans-31" x="83.789062"/>
      </g>
     </g>
    </g>
    <g id="ytick_12">
     <g id="line2d_30">
      <g>
       <use xlink:href="#m9fd020f846" x="436.437378" y="137.659349" style="stroke: #000000; stroke-width: 0.8"/>
      </g>
     </g>
     <g id="text_31">
      <!-- 0 -->
      <g transform="translate(423.074878 141.458567) scale(0.1 -0.1)">
       <use xlink:href="#DejaVuSans-30"/>
      </g>
     </g>
    </g>
    <g id="ytick_13">
     <g id="line2d_31">
      <g>
       <use xlink:href="#m9fd020f846" x="436.437378" y="99.999984" style="stroke: #000000; stroke-width: 0.8"/>
      </g>
     </g>
     <g id="text_32">
      <!-- 1 -->
      <g transform="translate(423.074878 103.799202) scale(0.1 -0.1)">
       <use xlink:href="#DejaVuSans-31"/>
      </g>
     </g>
    </g>
    <g id="ytick_14">
     <g id="line2d_32">
      <g>
       <use xlink:href="#m9fd020f846" x="436.437378" y="62.340619" style="stroke: #000000; stroke-width: 0.8"/>
      </g>
     </g>
     <g id="text_33">
      <!-- 2 -->
      <g transform="translate(423.074878 66.139837) scale(0.1 -0.1)">
       <use xlink:href="#DejaVuSans-32"/>
      </g>
     </g>
    </g>
    <g id="text_34">
     <!-- $y$ -->
     <g transform="translate(407.33519 141.757187) rotate(-90) scale(0.16 -0.16)">
      <defs>
       <path id="Cmmi10-79" d="M 538 -916 
Q 672 -1147 1006 -1147 
Q 1309 -1147 1531 -934 
Q 1753 -722 1889 -420 
Q 2025 -119 2100 197 
Q 1816 -72 1484 -72 
Q 1231 -72 1053 15 
Q 875 103 776 276 
Q 678 450 678 697 
Q 678 906 734 1126 
Q 791 1347 892 1617 
Q 994 1888 1069 2088 
Q 1153 2322 1153 2472 
Q 1153 2663 1013 2663 
Q 759 2663 595 2402 
Q 431 2141 353 1819 
Q 341 1778 300 1778 
L 225 1778 
Q 172 1778 172 1838 
L 172 1856 
Q 275 2238 487 2533 
Q 700 2828 1025 2828 
Q 1253 2828 1411 2678 
Q 1569 2528 1569 2297 
Q 1569 2178 1516 2047 
Q 1488 1969 1388 1706 
Q 1288 1444 1234 1272 
Q 1181 1100 1147 934 
Q 1113 769 1113 603 
Q 1113 391 1203 244 
Q 1294 97 1491 97 
Q 1888 97 2203 581 
L 2688 2553 
Q 2709 2638 2787 2698 
Q 2866 2759 2956 2759 
Q 3034 2759 3092 2709 
Q 3150 2659 3150 2578 
Q 3150 2541 3144 2528 
L 2509 -19 
Q 2425 -347 2200 -647 
Q 1975 -947 1658 -1130 
Q 1341 -1313 997 -1313 
Q 831 -1313 668 -1248 
Q 506 -1184 406 -1056 
Q 306 -928 306 -756 
Q 306 -581 409 -453 
Q 513 -325 684 -325 
Q 788 -325 858 -389 
Q 928 -453 928 -556 
Q 928 -703 818 -812 
Q 709 -922 563 -922 
Q 556 -919 550 -917 
Q 544 -916 538 -916 
z
" transform="scale(0.015625)"/>
      </defs>
      <use xlink:href="#Cmmi10-79" transform="translate(0 0.8125)"/>
     </g>
    </g>
   </g>
   <g id="line2d_33">
    <path d="M 436.437378 137.659349 
L 437.702877 140.728125 
L 439.392012 144.244146 
L 440.658863 146.507382 
L 442.742802 149.658159 
L 444.82674 152.242259 
L 446.910678 154.398799 
L 448.994617 156.239131 
L 451.078555 157.85111 
L 455.246432 160.651599 
L 465.681461 167.129103 
L 468.465158 169.065057 
L 471.248854 171.196925 
L 474.032551 173.583269 
L 476.816248 176.288968 
L 479.599945 179.387537 
L 483.239075 184.172069 
L 486.878206 189.971144 
L 490.517336 197.010762 
L 494.156467 205.411675 
L 497.795597 215.045422 
L 501.434727 225.191081 
L 505.073858 234.036568 
L 508.712988 238.442572 
L 510.471262 237.866388 
L 512.229536 235.071505 
L 513.98781 229.950526 
L 515.746084 222.654682 
L 517.504358 213.586593 
L 521.020906 192.570103 
L 524.537453 171.86345 
L 526.295727 162.744563 
L 528.054001 154.717894 
L 529.812275 147.81211 
L 531.570549 141.968014 
L 533.328823 137.075035 
L 535.087097 133.000908 
L 536.84537 129.612231 
L 539.023278 126.17961 
L 541.201186 123.403305 
L 543.379094 121.116552 
L 545.557002 119.187271 
L 547.734909 117.512588 
L 552.090725 114.625706 
L 563.045539 107.884057 
L 565.971175 105.829885 
L 568.89681 103.545143 
L 571.822446 100.961124 
L 574.748081 98.000485 
L 577.673717 94.574626 
L 581.312847 89.505723 
L 584.951977 83.361517 
L 588.591108 75.925423 
L 592.230238 67.122878 
L 599.508499 47.204205 
L 603.14763 39.299198 
L 606.78676 36.957187 
L 608.622649 39.018546 
L 610.458539 43.604225 
L 612.294428 50.640149 
L 614.130317 59.740098 
L 615.966206 70.271584 
L 619.637985 92.644314 
L 621.473874 103.182977 
L 623.309763 112.715611 
L 625.145652 121.053197 
L 626.981542 128.168877 
L 628.817431 134.138478 
L 630.65332 139.091587 
L 632.489209 143.180274 
L 634.325098 146.555658 
L 636.160988 149.354106 
L 638.072535 151.784638 
L 639.984083 153.832557 
L 641.89563 155.589474 
L 643.807178 157.129147 
L 647.630273 159.780902 
L 654.075822 163.699136 
L 659.320732 166.959651 
L 661.943187 168.749888 
L 664.565642 170.70723 
L 667.188097 172.879285 
L 669.810552 175.31827 
L 672.433007 178.082843 
L 676.072138 182.582688 
L 679.711268 188.035255 
L 683.350399 194.668083 
L 686.989529 202.637162 
L 690.628659 211.923675 
L 694.26779 222.045603 
L 697.90692 231.58313 
L 701.546051 237.79895 
L 703.423987 238.493768 
L 705.301922 236.837808 
L 707.179858 232.558252 
L 709.057794 225.687558 
L 710.93573 216.592536 
L 712.813666 205.92259 
L 717.944322 175.049321 
L 719.319106 167.57463 
L 720.69389 160.728963 
L 722.068675 154.564453 
L 723.443459 149.087665 
L 724.818244 144.272042 
L 726.193028 140.069542 
L 727.567813 136.420283 
L 727.567813 136.420283 
" clip-path="url(#pb493346494)" style="fill: none; stroke: #0000ff; stroke-width: 2; stroke-linecap: square"/>
   </g>
   <g id="line2d_34">
    <path d="M 436.437378 137.658693 
L 437.702877 140.740899 
L 439.392012 144.260132 
L 440.658863 146.519224 
L 442.742802 149.658938 
L 444.82674 152.232691 
L 446.910678 154.38188 
L 448.994617 156.217601 
L 451.078555 157.826535 
L 455.246432 160.624374 
L 465.681461 167.124595 
L 468.465158 169.069254 
L 471.248854 171.208582 
L 474.032551 173.602762 
L 476.816248 176.318877 
L 479.599945 179.430142 
L 483.239075 184.224952 
L 486.878206 190.020074 
L 490.517336 197.020437 
L 494.156467 205.394159 
L 497.795597 215.063577 
L 501.434727 225.260256 
L 505.073858 234.050441 
L 508.712988 238.33606 
L 510.471262 237.740656 
L 512.229536 234.953895 
L 513.98781 229.834738 
L 515.746084 222.503654 
L 517.504358 213.371004 
L 521.020906 192.288173 
L 524.537453 171.684621 
L 526.295727 162.630807 
L 528.054001 154.650954 
L 529.812275 147.769769 
L 531.570549 141.932043 
L 533.328823 137.034644 
L 535.087097 132.95244 
L 536.84537 129.555649 
L 539.023278 126.116418 
L 541.201186 123.337654 
L 543.379094 121.051392 
L 545.557002 119.124872 
L 547.734909 117.454541 
L 552.090725 114.577454 
L 560.119904 109.70441 
L 563.045539 107.784692 
L 565.971175 105.684243 
L 568.89681 103.34469 
L 571.822446 100.704367 
L 574.748081 97.692383 
L 577.673717 94.222792 
L 581.312847 89.111155 
L 584.951977 82.903184 
L 588.591108 75.384077 
L 592.230238 66.475648 
L 599.508499 46.562776 
L 603.14763 39.009774 
L 606.78676 37.260662 
L 608.622649 39.680958 
L 610.458539 44.64824 
L 612.294428 52.057691 
L 614.130317 61.458947 
L 617.802095 83.329722 
L 619.637985 94.324745 
L 621.473874 104.625123 
L 623.309763 113.921296 
L 625.145652 122.066619 
L 626.981542 129.03616 
L 628.817431 134.88904 
L 630.65332 139.737001 
L 632.489209 143.720162 
L 634.325098 146.986981 
L 636.160988 149.680639 
L 638.072535 152.014004 
L 639.984083 153.986622 
L 641.89563 155.695658 
L 645.718725 158.599834 
L 649.54182 161.113457 
L 661.943187 168.887366 
L 664.565642 170.820272 
L 667.188097 172.982305 
L 669.810552 175.4307 
L 672.433007 178.222117 
L 676.072138 182.77431 
L 679.711268 188.278486 
L 683.350399 194.943679 
L 686.989529 202.958105 
L 690.628659 212.314795 
L 694.26779 222.484628 
L 697.90692 231.982675 
L 701.546051 238.020414 
L 703.423987 238.557187 
L 705.301922 236.708493 
L 707.179858 232.226437 
L 709.057794 225.176314 
L 710.93573 215.95289 
L 712.813666 205.212381 
L 717.944322 174.340254 
L 719.319106 166.900231 
L 720.69389 160.099796 
L 722.068675 153.988178 
L 723.443459 148.569102 
L 724.818244 143.813611 
L 726.193028 139.670461 
L 727.567813 136.075432 
L 727.567813 136.075432 
" clip-path="url(#pb493346494)" style="fill: none; stroke-dasharray: 12.8,3.2,2,3.2; stroke-dashoffset: 0; stroke: #ff0000; stroke-width: 2"/>
   </g>
   <g id="line2d_35">
    <path d="M 436.437378 137.593631 
L 437.702877 140.594851 
L 439.392012 144.056667 
L 440.658863 146.296767 
L 442.742802 149.42383 
L 444.82674 151.983169 
L 446.910678 154.099047 
L 448.994617 155.873892 
L 451.078555 157.391066 
L 453.162494 158.717969 
L 457.33037 161.008335 
L 468.465158 166.573979 
L 471.248854 168.130435 
L 474.032551 169.836059 
L 476.816248 171.731439 
L 479.599945 173.861131 
L 483.239075 177.082524 
L 486.878206 180.914832 
L 490.517336 185.476793 
L 494.156467 190.815995 
L 501.434727 202.768416 
L 505.073858 207.705611 
L 508.712988 210.121265 
L 510.471262 209.983011 
L 512.229536 208.861016 
L 513.98781 206.727858 
L 515.746084 203.620862 
L 517.504358 199.641641 
L 519.262632 194.947598 
L 522.779179 184.218541 
L 526.295727 173.066516 
L 529.812275 162.743229 
L 531.570549 158.109856 
L 533.328823 153.873994 
L 535.087097 150.038633 
L 536.84537 146.590463 
L 539.023278 142.820234 
L 541.201186 139.550598 
L 543.379094 136.719863 
L 545.557002 134.267437 
L 547.734909 132.137302 
L 549.912817 130.279734 
L 552.090725 128.65196 
L 554.268633 127.217933 
L 557.194268 125.545411 
L 560.119904 124.113243 
L 563.045539 122.8799 
L 565.971175 121.815871 
L 568.89681 120.900655 
L 571.822446 120.120728 
L 574.748081 119.467452 
L 577.673717 118.935642 
L 581.312847 118.439288 
L 584.951977 118.123184 
L 588.591108 117.985222 
L 592.230238 118.023002 
L 595.869369 118.233057 
L 599.508499 118.610182 
L 603.14763 119.147756 
L 608.622649 120.239857 
L 614.130317 121.650437 
L 619.637985 123.333552 
L 625.145652 125.245506 
L 632.489209 128.073079 
L 641.89563 132.006642 
L 672.433007 145.092433 
L 679.711268 147.940218 
L 686.989529 150.607067 
L 694.26779 153.075826 
L 703.423987 155.888006 
L 710.93573 157.949959 
L 719.319106 159.997311 
L 727.567813 161.763402 
L 727.567813 161.763402 
" clip-path="url(#pb493346494)" style="fill: none; stroke-dasharray: 7.4,3.2; stroke-dashoffset: 0; stroke: #000000; stroke-width: 2"/>
   </g>
   <g id="patch_9">
    <path d="M 436.437378 248.637187 
L 436.437378 26.877187 
" style="fill: none; stroke: #000000; stroke-width: 0.8; stroke-linejoin: miter; stroke-linecap: square"/>
   </g>
   <g id="patch_10">
    <path d="M 727.567813 248.637187 
L 727.567813 26.877187 
" style="fill: none; stroke: #000000; stroke-width: 0.8; stroke-linejoin: miter; stroke-linecap: square"/>
   </g>
   <g id="patch_11">
    <path d="M 436.437378 248.637187 
L 727.567813 248.637187 
" style="fill: none; stroke: #000000; stroke-width: 0.8; stroke-linejoin: miter; stroke-linecap: square"/>
   </g>
   <g id="patch_12">
    <path d="M 436.437378 26.877187 
L 727.567813 26.877187 
" style="fill: none; stroke: #000000; stroke-width: 0.8; stroke-linejoin: miter; stroke-linecap: square"/>
   </g>
   <g id="text_35">
    <!-- Oscillator Velocity -->
    <g transform="translate(501.361189 20.877187) scale(0.18 -0.18)">
     <defs>
      <path id="DejaVuSans-79" d="M 2059 -325 
Q 1816 -950 1584 -1140 
Q 1353 -1331 966 -1331 
L 506 -1331 
L 506 -850 
L 844 -850 
Q 1081 -850 1212 -737 
Q 1344 -625 1503 -206 
L 1606 56 
L 191 3500 
L 800 3500 
L 1894 763 
L 2988 3500 
L 3597 3500 
L 2059 -325 
z
" transform="scale(0.015625)"/>
     </defs>
     <use xlink:href="#DejaVuSans-4f"/>
     <use xlink:href="#DejaVuSans-73" x="78.710938"/>
     <use xlink:href="#DejaVuSans-63" x="130.810547"/>
     <use xlink:href="#DejaVuSans-69" x="185.791016"/>
     <use xlink:href="#DejaVuSans-6c" x="213.574219"/>
     <use xlink:href="#DejaVuSans-6c" x="241.357422"/>
     <use xlink:href="#DejaVuSans-61" x="269.140625"/>
     <use xlink:href="#DejaVuSans-74" x="330.419922"/>
     <use xlink:href="#DejaVuSans-6f" x="369.628906"/>
     <use xlink:href="#DejaVuSans-72" x="430.810547"/>
     <use xlink:href="#DejaVuSans-20" x="471.923828"/>
     <use xlink:href="#DejaVuSans-56" x="503.710938"/>
     <use xlink:href="#DejaVuSans-65" x="564.369141"/>
     <use xlink:href="#DejaVuSans-6c" x="625.892578"/>
     <use xlink:href="#DejaVuSans-6f" x="653.675781"/>
     <use xlink:href="#DejaVuSans-63" x="714.857422"/>
     <use xlink:href="#DejaVuSans-69" x="769.837891"/>
     <use xlink:href="#DejaVuSans-74" x="797.621094"/>
     <use xlink:href="#DejaVuSans-79" x="836.830078"/>
    </g>
   </g>
   <g id="legend_2">
    <g id="patch_13">
     <path d="M 443.437378 78.911562 
L 571.810815 78.911562 
Q 573.810815 78.911562 573.810815 76.911562 
L 573.810815 33.877187 
Q 573.810815 31.877187 571.810815 31.877187 
L 443.437378 31.877187 
Q 441.437378 31.877187 441.437378 33.877187 
L 441.437378 76.911562 
Q 441.437378 78.911562 443.437378 78.911562 
z
" style="fill: #ffffff; opacity: 0.8; stroke: #cccccc; stroke-linejoin: miter"/>
    </g>
    <g id="line2d_36">
     <path d="M 445.437378 39.975625 
L 455.437378 39.975625 
L 465.437378 39.975625 
" style="fill: none; stroke: #0000ff; stroke-width: 2; stroke-linecap: square"/>
    </g>
    <g id="text_36">
     <!-- Numerical Solver -->
     <g transform="translate(473.437378 43.475625) scale(0.1 -0.1)">
      <use xlink:href="#DejaVuSans-4e"/>
      <use xlink:href="#DejaVuSans-75" x="74.804688"/>
      <use xlink:href="#DejaVuSans-6d" x="138.183594"/>
      <use xlink:href="#DejaVuSans-65" x="235.595703"/>
      <use xlink:href="#DejaVuSans-72" x="297.119141"/>
      <use xlink:href="#DejaVuSans-69" x="338.232422"/>
      <use xlink:href="#DejaVuSans-63" x="366.015625"/>
      <use xlink:href="#DejaVuSans-61" x="420.996094"/>
      <use xlink:href="#DejaVuSans-6c" x="482.275391"/>
      <use xlink:href="#DejaVuSans-20" x="510.058594"/>
      <use xlink:href="#DejaVuSans-53" x="541.845703"/>
      <use xlink:href="#DejaVuSans-6f" x="605.322266"/>
      <use xlink:href="#DejaVuSans-6c" x="666.503906"/>
      <use xlink:href="#DejaVuSans-76" x="694.287109"/>
      <use xlink:href="#DejaVuSans-65" x="753.466797"/>
      <use xlink:href="#DejaVuSans-72" x="814.990234"/>
     </g>
    </g>
    <g id="line2d_37">
     <path d="M 445.437378 54.65375 
L 455.437378 54.65375 
L 465.437378 54.65375 
" style="fill: none; stroke-dasharray: 12.8,3.2,2,3.2; stroke-dashoffset: 0; stroke: #ff0000; stroke-width: 2"/>
    </g>
    <g id="text_37">
     <!-- co-PINN (Proposed) -->
     <g transform="translate(473.437378 58.15375) scale(0.1 -0.1)">
      <use xlink:href="#DejaVuSans-63"/>
      <use xlink:href="#DejaVuSans-6f" x="54.980469"/>
      <use xlink:href="#DejaVuSans-2d" x="118.037109"/>
      <use xlink:href="#DejaVuSans-50" x="154.121094"/>
      <use xlink:href="#DejaVuSans-49" x="214.423828"/>
      <use xlink:href="#DejaVuSans-4e" x="243.916016"/>
      <use xlink:href="#DejaVuSans-4e" x="318.720703"/>
      <use xlink:href="#DejaVuSans-20" x="393.525391"/>
      <use xlink:href="#DejaVuSans-28" x="425.3125"/>
      <use xlink:href="#DejaVuSans-50" x="464.326172"/>
      <use xlink:href="#DejaVuSans-72" x="522.878906"/>
      <use xlink:href="#DejaVuSans-6f" x="561.742188"/>
      <use xlink:href="#DejaVuSans-70" x="622.923828"/>
      <use xlink:href="#DejaVuSans-6f" x="686.400391"/>
      <use xlink:href="#DejaVuSans-73" x="747.582031"/>
      <use xlink:href="#DejaVuSans-65" x="799.681641"/>
      <use xlink:href="#DejaVuSans-64" x="861.205078"/>
      <use xlink:href="#DejaVuSans-29" x="924.681641"/>
     </g>
    </g>
    <g id="line2d_38">
     <path d="M 445.437378 69.331875 
L 455.437378 69.331875 
L 465.437378 69.331875 
" style="fill: none; stroke-dasharray: 7.4,3.2; stroke-dashoffset: 0; stroke: #000000; stroke-width: 2"/>
    </g>
    <g id="text_38">
     <!-- Vanilla PINN -->
     <g transform="translate(473.437378 72.831875) scale(0.1 -0.1)">
      <use xlink:href="#DejaVuSans-56"/>
      <use xlink:href="#DejaVuSans-61" x="60.658203"/>
      <use xlink:href="#DejaVuSans-6e" x="121.9375"/>
      <use xlink:href="#DejaVuSans-69" x="185.316406"/>
      <use xlink:href="#DejaVuSans-6c" x="213.099609"/>
      <use xlink:href="#DejaVuSans-6c" x="240.882812"/>
      <use xlink:href="#DejaVuSans-61" x="268.666016"/>
      <use xlink:href="#DejaVuSans-20" x="329.945312"/>
      <use xlink:href="#DejaVuSans-50" x="361.732422"/>
      <use xlink:href="#DejaVuSans-49" x="422.035156"/>
      <use xlink:href="#DejaVuSans-4e" x="451.527344"/>
      <use xlink:href="#DejaVuSans-4e" x="526.332031"/>
     </g>
    </g>
   </g>
  </g>
 </g>
 <defs>
  <clipPath id="pdfba6ba9d2">
   <rect x="57.967813" y="26.877187" width="291.130435" height="221.76"/>
  </clipPath>
  <clipPath id="pb493346494">
   <rect x="436.437378" y="26.877187" width="291.130435" height="221.76"/>
  </clipPath>
 </defs>
</svg>
