<?xml version="1.0" encoding="utf-8" standalone="no"?>
<!DOCTYPE svg PUBLIC "-//W3C//DTD SVG 1.1//EN"
  "http://www.w3.org/Graphics/SVG/1.1/DTD/svg11.dtd">
<svg xmlns:xlink="http://www.w3.org/1999/xlink" width="718.039062pt" height="273.838125pt" viewBox="0 0 718.039062 273.838125" xmlns="http://www.w3.org/2000/svg" version="1.1">
 <metadata>
  <rdf:RDF xmlns:dc="http://purl.org/dc/elements/1.1/" xmlns:cc="http://creativecommons.org/ns#" xmlns:rdf="http://www.w3.org/1999/02/22-rdf-syntax-ns#">
   <cc:Work>
    <dc:type rdf:resource="http://purl.org/dc/dcmitype/StillImage"/>
    <dc:date>2025-01-21T18:16:55.845665</dc:date>
    <dc:format>image/svg+xml</dc:format>
    <dc:creator>
     <cc:Agent>
      <dc:title>Matplotlib v3.9.0, https://matplotlib.org/</dc:title>
     </cc:Agent>
    </dc:creator>
   </cc:Work>
  </rdf:RDF>
 </metadata>
 <defs>
  <style type="text/css">*{stroke-linejoin: round; stroke-linecap: butt}</style>
 </defs>
 <g id="figure_1">
  <g id="patch_1">
   <path d="M 0 273.838125 
L 718.039062 273.838125 
L 718.039062 0 
L 0 0 
L 0 273.838125 
z
" style="fill: none"/>
  </g>
  <g id="axes_1">
   <g id="patch_2">
    <path d="M 33.2875 249.96 
L 337.651136 249.96 
L 337.651136 28.2 
L 33.2875 28.2 
L 33.2875 249.96 
z
" style="fill: none"/>
   </g>
   <g id="matplotlib.axis_1">
    <g id="xtick_1">
     <g id="line2d_1">
      <defs>
       <path id="m4d31a15287" d="M 0 0 
L 0 3.5 
" style="stroke: #000000; stroke-width: 0.8"/>
      </defs>
      <g>
       <use xlink:href="#m4d31a15287" x="33.2875" y="249.96" style="stroke: #000000; stroke-width: 0.8"/>
      </g>
     </g>
     <g id="text_1">
      <!-- 0.0 -->
      <g transform="translate(25.335938 264.558437) scale(0.1 -0.1)">
       <defs>
        <path id="DejaVuSans-30" d="M 2034 4250 
Q 1547 4250 1301 3770 
Q 1056 3291 1056 2328 
Q 1056 1369 1301 889 
Q 1547 409 2034 409 
Q 2525 409 2770 889 
Q 3016 1369 3016 2328 
Q 3016 3291 2770 3770 
Q 2525 4250 2034 4250 
z
M 2034 4750 
Q 2819 4750 3233 4129 
Q 3647 3509 3647 2328 
Q 3647 1150 3233 529 
Q 2819 -91 2034 -91 
Q 1250 -91 836 529 
Q 422 1150 422 2328 
Q 422 3509 836 4129 
Q 1250 4750 2034 4750 
z
" transform="scale(0.015625)"/>
        <path id="DejaVuSans-2e" d="M 684 794 
L 1344 794 
L 1344 0 
L 684 0 
L 684 794 
z
" transform="scale(0.015625)"/>
       </defs>
       <use xlink:href="#DejaVuSans-30"/>
       <use xlink:href="#DejaVuSans-2e" x="63.623047"/>
       <use xlink:href="#DejaVuSans-30" x="95.410156"/>
      </g>
     </g>
    </g>
    <g id="xtick_2">
     <g id="line2d_2">
      <g>
       <use xlink:href="#m4d31a15287" x="94.160227" y="249.96" style="stroke: #000000; stroke-width: 0.8"/>
      </g>
     </g>
     <g id="text_2">
      <!-- 0.2 -->
      <g transform="translate(86.208665 264.558437) scale(0.1 -0.1)">
       <defs>
        <path id="DejaVuSans-32" d="M 1228 531 
L 3431 531 
L 3431 0 
L 469 0 
L 469 531 
Q 828 903 1448 1529 
Q 2069 2156 2228 2338 
Q 2531 2678 2651 2914 
Q 2772 3150 2772 3378 
Q 2772 3750 2511 3984 
Q 2250 4219 1831 4219 
Q 1534 4219 1204 4116 
Q 875 4013 500 3803 
L 500 4441 
Q 881 4594 1212 4672 
Q 1544 4750 1819 4750 
Q 2544 4750 2975 4387 
Q 3406 4025 3406 3419 
Q 3406 3131 3298 2873 
Q 3191 2616 2906 2266 
Q 2828 2175 2409 1742 
Q 1991 1309 1228 531 
z
" transform="scale(0.015625)"/>
       </defs>
       <use xlink:href="#DejaVuSans-30"/>
       <use xlink:href="#DejaVuSans-2e" x="63.623047"/>
       <use xlink:href="#DejaVuSans-32" x="95.410156"/>
      </g>
     </g>
    </g>
    <g id="xtick_3">
     <g id="line2d_3">
      <g>
       <use xlink:href="#m4d31a15287" x="155.032955" y="249.96" style="stroke: #000000; stroke-width: 0.8"/>
      </g>
     </g>
     <g id="text_3">
      <!-- 0.4 -->
      <g transform="translate(147.081392 264.558437) scale(0.1 -0.1)">
       <defs>
        <path id="DejaVuSans-34" d="M 2419 4116 
L 825 1625 
L 2419 1625 
L 2419 4116 
z
M 2253 4666 
L 3047 4666 
L 3047 1625 
L 3713 1625 
L 3713 1100 
L 3047 1100 
L 3047 0 
L 2419 0 
L 2419 1100 
L 313 1100 
L 313 1709 
L 2253 4666 
z
" transform="scale(0.015625)"/>
       </defs>
       <use xlink:href="#DejaVuSans-30"/>
       <use xlink:href="#DejaVuSans-2e" x="63.623047"/>
       <use xlink:href="#DejaVuSans-34" x="95.410156"/>
      </g>
     </g>
    </g>
    <g id="xtick_4">
     <g id="line2d_4">
      <g>
       <use xlink:href="#m4d31a15287" x="215.905682" y="249.96" style="stroke: #000000; stroke-width: 0.8"/>
      </g>
     </g>
     <g id="text_4">
      <!-- 0.6 -->
      <g transform="translate(207.954119 264.558437) scale(0.1 -0.1)">
       <defs>
        <path id="DejaVuSans-36" d="M 2113 2584 
Q 1688 2584 1439 2293 
Q 1191 2003 1191 1497 
Q 1191 994 1439 701 
Q 1688 409 2113 409 
Q 2538 409 2786 701 
Q 3034 994 3034 1497 
Q 3034 2003 2786 2293 
Q 2538 2584 2113 2584 
z
M 3366 4563 
L 3366 3988 
Q 3128 4100 2886 4159 
Q 2644 4219 2406 4219 
Q 1781 4219 1451 3797 
Q 1122 3375 1075 2522 
Q 1259 2794 1537 2939 
Q 1816 3084 2150 3084 
Q 2853 3084 3261 2657 
Q 3669 2231 3669 1497 
Q 3669 778 3244 343 
Q 2819 -91 2113 -91 
Q 1303 -91 875 529 
Q 447 1150 447 2328 
Q 447 3434 972 4092 
Q 1497 4750 2381 4750 
Q 2619 4750 2861 4703 
Q 3103 4656 3366 4563 
z
" transform="scale(0.015625)"/>
       </defs>
       <use xlink:href="#DejaVuSans-30"/>
       <use xlink:href="#DejaVuSans-2e" x="63.623047"/>
       <use xlink:href="#DejaVuSans-36" x="95.410156"/>
      </g>
     </g>
    </g>
    <g id="xtick_5">
     <g id="line2d_5">
      <g>
       <use xlink:href="#m4d31a15287" x="276.778409" y="249.96" style="stroke: #000000; stroke-width: 0.8"/>
      </g>
     </g>
     <g id="text_5">
      <!-- 0.8 -->
      <g transform="translate(268.826847 264.558437) scale(0.1 -0.1)">
       <defs>
        <path id="DejaVuSans-38" d="M 2034 2216 
Q 1584 2216 1326 1975 
Q 1069 1734 1069 1313 
Q 1069 891 1326 650 
Q 1584 409 2034 409 
Q 2484 409 2743 651 
Q 3003 894 3003 1313 
Q 3003 1734 2745 1975 
Q 2488 2216 2034 2216 
z
M 1403 2484 
Q 997 2584 770 2862 
Q 544 3141 544 3541 
Q 544 4100 942 4425 
Q 1341 4750 2034 4750 
Q 2731 4750 3128 4425 
Q 3525 4100 3525 3541 
Q 3525 3141 3298 2862 
Q 3072 2584 2669 2484 
Q 3125 2378 3379 2068 
Q 3634 1759 3634 1313 
Q 3634 634 3220 271 
Q 2806 -91 2034 -91 
Q 1263 -91 848 271 
Q 434 634 434 1313 
Q 434 1759 690 2068 
Q 947 2378 1403 2484 
z
M 1172 3481 
Q 1172 3119 1398 2916 
Q 1625 2713 2034 2713 
Q 2441 2713 2670 2916 
Q 2900 3119 2900 3481 
Q 2900 3844 2670 4047 
Q 2441 4250 2034 4250 
Q 1625 4250 1398 4047 
Q 1172 3844 1172 3481 
z
" transform="scale(0.015625)"/>
       </defs>
       <use xlink:href="#DejaVuSans-30"/>
       <use xlink:href="#DejaVuSans-2e" x="63.623047"/>
       <use xlink:href="#DejaVuSans-38" x="95.410156"/>
      </g>
     </g>
    </g>
    <g id="xtick_6">
     <g id="line2d_6">
      <g>
       <use xlink:href="#m4d31a15287" x="337.651136" y="249.96" style="stroke: #000000; stroke-width: 0.8"/>
      </g>
     </g>
     <g id="text_6">
      <!-- 1.0 -->
      <g transform="translate(329.699574 264.558437) scale(0.1 -0.1)">
       <defs>
        <path id="DejaVuSans-31" d="M 794 531 
L 1825 531 
L 1825 4091 
L 703 3866 
L 703 4441 
L 1819 4666 
L 2450 4666 
L 2450 531 
L 3481 531 
L 3481 0 
L 794 0 
L 794 531 
z
" transform="scale(0.015625)"/>
       </defs>
       <use xlink:href="#DejaVuSans-31"/>
       <use xlink:href="#DejaVuSans-2e" x="63.623047"/>
       <use xlink:href="#DejaVuSans-30" x="95.410156"/>
      </g>
     </g>
    </g>
   </g>
   <g id="matplotlib.axis_2">
    <g id="ytick_1">
     <g id="line2d_7">
      <defs>
       <path id="m99bf4f1783" d="M 0 0 
L -3.5 0 
" style="stroke: #000000; stroke-width: 0.8"/>
      </defs>
      <g>
       <use xlink:href="#m99bf4f1783" x="33.2875" y="249.96" style="stroke: #000000; stroke-width: 0.8"/>
      </g>
     </g>
     <g id="text_7">
      <!-- 300 -->
      <g transform="translate(7.2 253.759219) scale(0.1 -0.1)">
       <defs>
        <path id="DejaVuSans-33" d="M 2597 2516 
Q 3050 2419 3304 2112 
Q 3559 1806 3559 1356 
Q 3559 666 3084 287 
Q 2609 -91 1734 -91 
Q 1441 -91 1130 -33 
Q 819 25 488 141 
L 488 750 
Q 750 597 1062 519 
Q 1375 441 1716 441 
Q 2309 441 2620 675 
Q 2931 909 2931 1356 
Q 2931 1769 2642 2001 
Q 2353 2234 1838 2234 
L 1294 2234 
L 1294 2753 
L 1863 2753 
Q 2328 2753 2575 2939 
Q 2822 3125 2822 3475 
Q 2822 3834 2567 4026 
Q 2313 4219 1838 4219 
Q 1578 4219 1281 4162 
Q 984 4106 628 3988 
L 628 4550 
Q 988 4650 1302 4700 
Q 1616 4750 1894 4750 
Q 2613 4750 3031 4423 
Q 3450 4097 3450 3541 
Q 3450 3153 3228 2886 
Q 3006 2619 2597 2516 
z
" transform="scale(0.015625)"/>
       </defs>
       <use xlink:href="#DejaVuSans-33"/>
       <use xlink:href="#DejaVuSans-30" x="63.623047"/>
       <use xlink:href="#DejaVuSans-30" x="127.246094"/>
      </g>
     </g>
    </g>
    <g id="ytick_2">
     <g id="line2d_8">
      <g>
       <use xlink:href="#m99bf4f1783" x="33.2875" y="213" style="stroke: #000000; stroke-width: 0.8"/>
      </g>
     </g>
     <g id="text_8">
      <!-- 310 -->
      <g transform="translate(7.2 216.799219) scale(0.1 -0.1)">
       <use xlink:href="#DejaVuSans-33"/>
       <use xlink:href="#DejaVuSans-31" x="63.623047"/>
       <use xlink:href="#DejaVuSans-30" x="127.246094"/>
      </g>
     </g>
    </g>
    <g id="ytick_3">
     <g id="line2d_9">
      <g>
       <use xlink:href="#m99bf4f1783" x="33.2875" y="176.04" style="stroke: #000000; stroke-width: 0.8"/>
      </g>
     </g>
     <g id="text_9">
      <!-- 320 -->
      <g transform="translate(7.2 179.839219) scale(0.1 -0.1)">
       <use xlink:href="#DejaVuSans-33"/>
       <use xlink:href="#DejaVuSans-32" x="63.623047"/>
       <use xlink:href="#DejaVuSans-30" x="127.246094"/>
      </g>
     </g>
    </g>
    <g id="ytick_4">
     <g id="line2d_10">
      <g>
       <use xlink:href="#m99bf4f1783" x="33.2875" y="139.08" style="stroke: #000000; stroke-width: 0.8"/>
      </g>
     </g>
     <g id="text_10">
      <!-- 330 -->
      <g transform="translate(7.2 142.879219) scale(0.1 -0.1)">
       <use xlink:href="#DejaVuSans-33"/>
       <use xlink:href="#DejaVuSans-33" x="63.623047"/>
       <use xlink:href="#DejaVuSans-30" x="127.246094"/>
      </g>
     </g>
    </g>
    <g id="ytick_5">
     <g id="line2d_11">
      <g>
       <use xlink:href="#m99bf4f1783" x="33.2875" y="102.12" style="stroke: #000000; stroke-width: 0.8"/>
      </g>
     </g>
     <g id="text_11">
      <!-- 340 -->
      <g transform="translate(7.2 105.919219) scale(0.1 -0.1)">
       <use xlink:href="#DejaVuSans-33"/>
       <use xlink:href="#DejaVuSans-34" x="63.623047"/>
       <use xlink:href="#DejaVuSans-30" x="127.246094"/>
      </g>
     </g>
    </g>
    <g id="ytick_6">
     <g id="line2d_12">
      <g>
       <use xlink:href="#m99bf4f1783" x="33.2875" y="65.16" style="stroke: #000000; stroke-width: 0.8"/>
      </g>
     </g>
     <g id="text_12">
      <!-- 350 -->
      <g transform="translate(7.2 68.959219) scale(0.1 -0.1)">
       <defs>
        <path id="DejaVuSans-35" d="M 691 4666 
L 3169 4666 
L 3169 4134 
L 1269 4134 
L 1269 2991 
Q 1406 3038 1543 3061 
Q 1681 3084 1819 3084 
Q 2600 3084 3056 2656 
Q 3513 2228 3513 1497 
Q 3513 744 3044 326 
Q 2575 -91 1722 -91 
Q 1428 -91 1123 -41 
Q 819 9 494 109 
L 494 744 
Q 775 591 1075 516 
Q 1375 441 1709 441 
Q 2250 441 2565 725 
Q 2881 1009 2881 1497 
Q 2881 1984 2565 2268 
Q 2250 2553 1709 2553 
Q 1456 2553 1204 2497 
Q 953 2441 691 2322 
L 691 4666 
z
" transform="scale(0.015625)"/>
       </defs>
       <use xlink:href="#DejaVuSans-33"/>
       <use xlink:href="#DejaVuSans-35" x="63.623047"/>
       <use xlink:href="#DejaVuSans-30" x="127.246094"/>
      </g>
     </g>
    </g>
    <g id="ytick_7">
     <g id="line2d_13">
      <g>
       <use xlink:href="#m99bf4f1783" x="33.2875" y="28.2" style="stroke: #000000; stroke-width: 0.8"/>
      </g>
     </g>
     <g id="text_13">
      <!-- 360 -->
      <g transform="translate(7.2 31.999219) scale(0.1 -0.1)">
       <use xlink:href="#DejaVuSans-33"/>
       <use xlink:href="#DejaVuSans-36" x="63.623047"/>
       <use xlink:href="#DejaVuSans-30" x="127.246094"/>
      </g>
     </g>
    </g>
   </g>
   <g id="line2d_14">
    <path d="M 33.2875 249.950525 
L 36.331136 246.286784 
L 39.344029 242.671206 
L 42.356921 239.066229 
L 45.369814 235.473097 
L 48.382707 231.891807 
L 51.395599 228.323038 
L 54.408492 224.76769 
L 57.421384 221.226442 
L 60.434277 217.701098 
L 63.447169 214.19256 
L 66.460062 210.703761 
L 69.472955 207.236279 
L 72.485847 203.793161 
L 75.49874 200.377564 
L 78.511632 196.992535 
L 81.524525 193.642696 
L 84.537417 190.331546 
L 87.55031 187.063257 
L 90.563202 183.843018 
L 93.576095 180.674325 
L 96.588988 177.563382 
L 99.60188 174.511881 
L 102.614773 171.525349 
L 105.627665 168.606831 
L 108.640558 165.758583 
L 111.65345 162.981958 
L 114.666343 160.277521 
L 117.679236 157.643918 
L 120.692128 155.079344 
L 123.705021 152.578273 
L 126.717913 150.135741 
L 129.730806 147.74453 
L 132.743698 145.395729 
L 135.756591 143.080654 
L 138.769483 140.790054 
L 141.782376 138.514682 
L 144.795269 136.247205 
L 147.808161 133.983224 
L 150.821054 131.719695 
L 153.833946 129.457293 
L 156.846839 127.199178 
L 159.859731 124.952455 
L 162.872624 122.72705 
L 165.885517 120.532888 
L 168.898409 118.382377 
L 171.911302 116.287474 
L 174.924194 114.257087 
L 177.937087 112.297986 
L 180.949979 110.41096 
L 183.962872 108.592512 
L 186.975764 106.832941 
L 189.988657 105.120519 
L 193.00155 103.440354 
L 196.014442 101.778237 
L 199.027335 100.124354 
L 202.040227 98.472727 
L 205.05312 96.822565 
L 208.066012 95.180525 
L 211.078905 93.55845 
L 214.091798 91.972129 
L 217.10469 90.437694 
L 220.117583 88.968453 
L 223.130475 87.571061 
L 226.143368 86.242811 
L 229.15626 84.974228 
L 232.169153 83.749184 
L 235.182045 82.549969 
L 238.194938 81.361131 
L 241.207831 80.174549 
L 244.220723 78.990223 
L 247.233616 77.818642 
L 250.246508 76.677516 
L 253.259401 75.586469 
L 256.272293 74.561294 
L 259.285186 73.607517 
L 262.298079 72.718821 
L 265.310971 71.880205 
L 268.323864 71.071141 
L 271.336756 70.273808 
L 274.349649 69.478053 
L 277.362541 68.686811 
L 280.375434 67.915532 
L 283.388326 67.186438 
L 286.401219 66.519381 
L 289.414112 65.923044 
L 292.427004 65.391902 
L 295.439897 64.907682 
L 298.452789 64.4476 
L 301.465682 63.993608 
L 304.478574 63.541534 
L 307.491467 63.102995 
L 310.50436 62.702128 
L 313.517252 62.361832 
L 316.530145 62.093159 
L 319.543037 61.886974 
L 322.55593 61.72004 
L 325.568822 61.568446 
L 328.581715 61.420349 
L 331.594607 61.281501 
L 334.6075 61.171641 
L 337.651136 61.116598 
" clip-path="url(#p65d7828188)" style="fill: none; stroke: #ff0000; stroke-width: 3; stroke-linecap: square"/>
   </g>
   <g id="line2d_15">
    <path d="M 33.2875 249.96 
L 63.723864 232.355523 
L 90.778409 198.992194 
L 117.832955 170.826897 
L 144.8875 149.710537 
L 171.942045 128.665153 
L 198.996591 115.138206 
L 226.051136 103.056216 
L 253.105682 92.504818 
L 280.160227 86.186126 
L 307.214773 84.500768 
L 337.651136 84.417997 
" clip-path="url(#p65d7828188)" style="fill: none; stroke-dasharray: 11.1,4.8; stroke-dashoffset: 0; stroke: #0000ff; stroke-width: 3"/>
   </g>
   <g id="line2d_16">
    <path d="M 33.2875 249.96 
L 36.331136 248.106901 
L 39.344029 244.41287 
L 42.356921 240.73098 
L 45.369814 237.061354 
L 48.382707 233.404364 
L 51.395599 229.760662 
L 54.408492 226.131093 
L 57.421384 222.51677 
L 60.434277 218.919145 
L 63.447169 215.339945 
L 66.460062 211.781199 
L 69.472955 208.245342 
L 72.485847 204.73517 
L 75.49874 201.253779 
L 78.511632 197.804682 
L 81.524525 194.391775 
L 84.537417 191.019155 
L 87.55031 187.691197 
L 90.563202 184.412511 
L 93.576095 181.187737 
L 96.588988 178.021413 
L 99.60188 174.917891 
L 102.614773 171.881116 
L 105.627665 168.914337 
L 108.640558 166.019955 
L 111.65345 163.199303 
L 114.666343 160.452407 
L 117.679236 157.777829 
L 120.692128 155.172565 
L 123.705021 152.63196 
L 126.717913 150.149753 
L 129.730806 147.718335 
L 132.743698 145.329099 
L 135.756591 142.972804 
L 138.769483 140.640113 
L 141.782376 138.322326 
L 144.795269 136.012194 
L 147.808161 133.704595 
L 150.821054 131.397116 
L 153.833946 129.090538 
L 156.846839 126.789072 
L 159.859731 124.500165 
L 162.872624 122.233922 
L 165.885517 120.002269 
L 168.898409 117.817749 
L 171.911302 115.691994 
L 174.924194 113.634101 
L 177.937087 111.649271 
L 180.949979 109.737903 
L 183.962872 107.895179 
L 186.975764 106.111398 
L 189.988657 104.37319 
L 193.00155 102.665566 
L 196.014442 100.974417 
L 199.027335 99.288943 
L 202.040227 97.603784 
L 205.05312 95.920391 
L 208.066012 94.247192 
L 211.078905 92.598256 
L 214.091798 90.990516 
L 217.10469 89.44018 
L 220.117583 87.959139 
L 223.130475 86.552012 
L 226.143368 85.214615 
L 229.15626 83.934494 
L 232.169153 82.693725 
L 235.182045 81.473489 
L 238.194938 80.259264 
L 241.207831 79.045071 
L 244.220723 77.835439 
L 247.233616 76.644497 
L 250.246508 75.492134 
L 253.259401 74.398041 
L 256.272293 73.375292 
L 259.285186 72.425612 
L 262.298079 71.538261 
L 265.310971 70.693352 
L 268.323864 69.868804 
L 271.336756 69.048503 
L 274.349649 68.228572 
L 277.362541 67.419159 
L 280.375434 66.640888 
L 283.388326 65.916946 
L 286.401219 65.263629 
L 289.414112 64.683171 
L 292.427004 64.162198 
L 295.439897 63.67708 
L 298.452789 63.204409 
L 301.465682 62.732101 
L 304.478574 62.265727 
L 307.491467 61.826401 
L 310.50436 61.440529 
L 313.517252 61.126141 
L 316.530145 60.882939 
L 319.543037 60.691882 
L 322.55593 60.525273 
L 325.568822 60.362324 
L 328.581715 60.201438 
L 331.594607 60.061671 
L 334.6075 59.971772 
L 337.651136 59.962272 
" clip-path="url(#p65d7828188)" style="fill: none; stroke-dasharray: 19.2,4.8,3,4.8; stroke-dashoffset: 0; stroke: #000000; stroke-width: 3"/>
   </g>
   <g id="patch_3">
    <path d="M 33.2875 249.96 
L 33.2875 28.2 
" style="fill: none; stroke: #000000; stroke-width: 0.8; stroke-linejoin: miter; stroke-linecap: square"/>
   </g>
   <g id="patch_4">
    <path d="M 337.651136 249.96 
L 337.651136 28.2 
" style="fill: none; stroke: #000000; stroke-width: 0.8; stroke-linejoin: miter; stroke-linecap: square"/>
   </g>
   <g id="patch_5">
    <path d="M 33.2875 249.96 
L 337.651136 249.96 
" style="fill: none; stroke: #000000; stroke-width: 0.8; stroke-linejoin: miter; stroke-linecap: square"/>
   </g>
   <g id="patch_6">
    <path d="M 33.2875 28.2 
L 337.651136 28.2 
" style="fill: none; stroke: #000000; stroke-width: 0.8; stroke-linejoin: miter; stroke-linecap: square"/>
   </g>
   <g id="text_14">
    <!-- $T(x)$ -->
    <g transform="translate(166.069318 22.2) scale(0.2 -0.2)">
     <defs>
      <path id="Cmmi10-54" d="M 294 84 
Q 297 100 308 140 
Q 319 181 336 203 
Q 353 225 384 225 
Q 934 225 1113 256 
Q 1284 300 1319 441 
L 2194 3956 
Q 2222 4034 2222 4097 
Q 2222 4147 1997 4147 
L 1625 4147 
Q 1197 4147 964 4015 
Q 731 3884 622 3668 
Q 513 3453 341 2963 
Q 319 2906 275 2906 
L 219 2906 
Q 153 2906 153 2988 
L 609 4313 
Q 622 4372 672 4372 
L 4453 4372 
Q 4519 4372 4519 4288 
L 4306 2963 
Q 4306 2944 4284 2925 
Q 4263 2906 4244 2906 
L 4184 2906 
Q 4122 2906 4122 2988 
Q 4191 3441 4191 3628 
Q 4191 3853 4097 3968 
Q 4003 4084 3853 4115 
Q 3703 4147 3463 4147 
L 3084 4147 
Q 2913 4147 2853 4115 
Q 2794 4084 2753 3928 
L 1875 416 
Q 1872 403 1870 390 
Q 1869 378 1863 359 
Q 1863 278 1959 256 
Q 2125 225 2669 225 
Q 2731 225 2731 141 
Q 2709 50 2696 25 
Q 2684 0 2625 0 
L 359 0 
Q 294 0 294 84 
z
" transform="scale(0.015625)"/>
      <path id="Cmr10-28" d="M 1984 -1588 
Q 1628 -1306 1370 -942 
Q 1113 -578 948 -165 
Q 784 247 703 697 
Q 622 1147 622 1600 
Q 622 2059 703 2509 
Q 784 2959 951 3375 
Q 1119 3791 1378 4153 
Q 1638 4516 1984 4788 
Q 1984 4800 2016 4800 
L 2075 4800 
Q 2094 4800 2109 4783 
Q 2125 4766 2125 4744 
Q 2125 4716 2113 4703 
Q 1800 4397 1592 4047 
Q 1384 3697 1257 3301 
Q 1131 2906 1075 2482 
Q 1019 2059 1019 1600 
Q 1019 -434 2106 -1491 
Q 2125 -1509 2125 -1544 
Q 2125 -1559 2108 -1579 
Q 2091 -1600 2075 -1600 
L 2016 -1600 
Q 1984 -1600 1984 -1588 
z
" transform="scale(0.015625)"/>
      <path id="Cmmi10-78" d="M 500 184 
Q 613 97 819 97 
Q 1019 97 1172 289 
Q 1325 481 1381 709 
L 1672 1844 
Q 1741 2153 1741 2266 
Q 1741 2425 1652 2544 
Q 1563 2663 1403 2663 
Q 1200 2663 1022 2536 
Q 844 2409 722 2214 
Q 600 2019 550 1819 
Q 538 1778 500 1778 
L 422 1778 
Q 372 1778 372 1838 
L 372 1856 
Q 434 2094 584 2320 
Q 734 2547 951 2687 
Q 1169 2828 1416 2828 
Q 1650 2828 1839 2703 
Q 2028 2578 2106 2363 
Q 2216 2559 2386 2693 
Q 2556 2828 2759 2828 
Q 2897 2828 3040 2779 
Q 3184 2731 3275 2631 
Q 3366 2531 3366 2381 
Q 3366 2219 3261 2101 
Q 3156 1984 2994 1984 
Q 2891 1984 2822 2050 
Q 2753 2116 2753 2216 
Q 2753 2350 2845 2451 
Q 2938 2553 3066 2572 
Q 2950 2663 2747 2663 
Q 2541 2663 2389 2472 
Q 2238 2281 2175 2047 
L 1894 916 
Q 1825 659 1825 494 
Q 1825 331 1917 214 
Q 2009 97 2163 97 
Q 2463 97 2698 361 
Q 2934 625 3009 941 
Q 3022 978 3059 978 
L 3138 978 
Q 3163 978 3178 961 
Q 3194 944 3194 922 
Q 3194 916 3188 903 
Q 3097 522 2806 225 
Q 2516 -72 2150 -72 
Q 1916 -72 1727 54 
Q 1538 181 1459 397 
Q 1359 209 1182 68 
Q 1006 -72 806 -72 
Q 669 -72 523 -23 
Q 378 25 287 125 
Q 197 225 197 378 
Q 197 528 301 651 
Q 406 775 563 775 
Q 669 775 741 711 
Q 813 647 813 544 
Q 813 409 723 309 
Q 634 209 500 184 
z
" transform="scale(0.015625)"/>
      <path id="Cmr10-29" d="M 416 -1600 
Q 359 -1600 359 -1544 
Q 359 -1516 372 -1503 
Q 1466 -434 1466 1600 
Q 1466 3634 384 4691 
Q 359 4706 359 4744 
Q 359 4766 376 4783 
Q 394 4800 416 4800 
L 475 4800 
Q 494 4800 506 4788 
Q 966 4425 1272 3906 
Q 1578 3388 1720 2800 
Q 1863 2213 1863 1600 
Q 1863 1147 1786 708 
Q 1709 269 1542 -157 
Q 1375 -584 1119 -945 
Q 863 -1306 506 -1588 
Q 494 -1600 475 -1600 
L 416 -1600 
z
" transform="scale(0.015625)"/>
     </defs>
     <use xlink:href="#Cmmi10-54"/>
     <use xlink:href="#Cmr10-28" transform="translate(58.398438 0)"/>
     <use xlink:href="#Cmmi10-78" transform="translate(97.216797 0)"/>
     <use xlink:href="#Cmr10-29" transform="translate(154.296875 0)"/>
    </g>
   </g>
   <g id="legend_1">
    <g id="patch_7">
     <path d="M 120.993636 241.96 
L 326.451136 241.96 
Q 329.651136 241.96 329.651136 238.76 
L 329.651136 169.905 
Q 329.651136 166.705 326.451136 166.705 
L 120.993636 166.705 
Q 117.793636 166.705 117.793636 169.905 
L 117.793636 238.76 
Q 117.793636 241.96 120.993636 241.96 
z
" style="fill: #ffffff; opacity: 0.8; stroke: #cccccc; stroke-linejoin: miter"/>
    </g>
    <g id="line2d_17">
     <path d="M 124.193636 179.6625 
L 140.193636 179.6625 
L 156.193636 179.6625 
" style="fill: none; stroke: #ff0000; stroke-width: 3; stroke-linecap: square"/>
    </g>
    <g id="text_15">
     <!-- coPINN (Proposed) -->
     <g transform="translate(168.993636 185.2625) scale(0.16 -0.16)">
      <defs>
       <path id="DejaVuSans-63" d="M 3122 3366 
L 3122 2828 
Q 2878 2963 2633 3030 
Q 2388 3097 2138 3097 
Q 1578 3097 1268 2742 
Q 959 2388 959 1747 
Q 959 1106 1268 751 
Q 1578 397 2138 397 
Q 2388 397 2633 464 
Q 2878 531 3122 666 
L 3122 134 
Q 2881 22 2623 -34 
Q 2366 -91 2075 -91 
Q 1284 -91 818 406 
Q 353 903 353 1747 
Q 353 2603 823 3093 
Q 1294 3584 2113 3584 
Q 2378 3584 2631 3529 
Q 2884 3475 3122 3366 
z
" transform="scale(0.015625)"/>
       <path id="DejaVuSans-6f" d="M 1959 3097 
Q 1497 3097 1228 2736 
Q 959 2375 959 1747 
Q 959 1119 1226 758 
Q 1494 397 1959 397 
Q 2419 397 2687 759 
Q 2956 1122 2956 1747 
Q 2956 2369 2687 2733 
Q 2419 3097 1959 3097 
z
M 1959 3584 
Q 2709 3584 3137 3096 
Q 3566 2609 3566 1747 
Q 3566 888 3137 398 
Q 2709 -91 1959 -91 
Q 1206 -91 779 398 
Q 353 888 353 1747 
Q 353 2609 779 3096 
Q 1206 3584 1959 3584 
z
" transform="scale(0.015625)"/>
       <path id="DejaVuSans-50" d="M 1259 4147 
L 1259 2394 
L 2053 2394 
Q 2494 2394 2734 2622 
Q 2975 2850 2975 3272 
Q 2975 3691 2734 3919 
Q 2494 4147 2053 4147 
L 1259 4147 
z
M 628 4666 
L 2053 4666 
Q 2838 4666 3239 4311 
Q 3641 3956 3641 3272 
Q 3641 2581 3239 2228 
Q 2838 1875 2053 1875 
L 1259 1875 
L 1259 0 
L 628 0 
L 628 4666 
z
" transform="scale(0.015625)"/>
       <path id="DejaVuSans-49" d="M 628 4666 
L 1259 4666 
L 1259 0 
L 628 0 
L 628 4666 
z
" transform="scale(0.015625)"/>
       <path id="DejaVuSans-4e" d="M 628 4666 
L 1478 4666 
L 3547 763 
L 3547 4666 
L 4159 4666 
L 4159 0 
L 3309 0 
L 1241 3903 
L 1241 0 
L 628 0 
L 628 4666 
z
" transform="scale(0.015625)"/>
       <path id="DejaVuSans-20" transform="scale(0.015625)"/>
       <path id="DejaVuSans-28" d="M 1984 4856 
Q 1566 4138 1362 3434 
Q 1159 2731 1159 2009 
Q 1159 1288 1364 580 
Q 1569 -128 1984 -844 
L 1484 -844 
Q 1016 -109 783 600 
Q 550 1309 550 2009 
Q 550 2706 781 3412 
Q 1013 4119 1484 4856 
L 1984 4856 
z
" transform="scale(0.015625)"/>
       <path id="DejaVuSans-72" d="M 2631 2963 
Q 2534 3019 2420 3045 
Q 2306 3072 2169 3072 
Q 1681 3072 1420 2755 
Q 1159 2438 1159 1844 
L 1159 0 
L 581 0 
L 581 3500 
L 1159 3500 
L 1159 2956 
Q 1341 3275 1631 3429 
Q 1922 3584 2338 3584 
Q 2397 3584 2469 3576 
Q 2541 3569 2628 3553 
L 2631 2963 
z
" transform="scale(0.015625)"/>
       <path id="DejaVuSans-70" d="M 1159 525 
L 1159 -1331 
L 581 -1331 
L 581 3500 
L 1159 3500 
L 1159 2969 
Q 1341 3281 1617 3432 
Q 1894 3584 2278 3584 
Q 2916 3584 3314 3078 
Q 3713 2572 3713 1747 
Q 3713 922 3314 415 
Q 2916 -91 2278 -91 
Q 1894 -91 1617 61 
Q 1341 213 1159 525 
z
M 3116 1747 
Q 3116 2381 2855 2742 
Q 2594 3103 2138 3103 
Q 1681 3103 1420 2742 
Q 1159 2381 1159 1747 
Q 1159 1113 1420 752 
Q 1681 391 2138 391 
Q 2594 391 2855 752 
Q 3116 1113 3116 1747 
z
" transform="scale(0.015625)"/>
       <path id="DejaVuSans-73" d="M 2834 3397 
L 2834 2853 
Q 2591 2978 2328 3040 
Q 2066 3103 1784 3103 
Q 1356 3103 1142 2972 
Q 928 2841 928 2578 
Q 928 2378 1081 2264 
Q 1234 2150 1697 2047 
L 1894 2003 
Q 2506 1872 2764 1633 
Q 3022 1394 3022 966 
Q 3022 478 2636 193 
Q 2250 -91 1575 -91 
Q 1294 -91 989 -36 
Q 684 19 347 128 
L 347 722 
Q 666 556 975 473 
Q 1284 391 1588 391 
Q 1994 391 2212 530 
Q 2431 669 2431 922 
Q 2431 1156 2273 1281 
Q 2116 1406 1581 1522 
L 1381 1569 
Q 847 1681 609 1914 
Q 372 2147 372 2553 
Q 372 3047 722 3315 
Q 1072 3584 1716 3584 
Q 2034 3584 2315 3537 
Q 2597 3491 2834 3397 
z
" transform="scale(0.015625)"/>
       <path id="DejaVuSans-65" d="M 3597 1894 
L 3597 1613 
L 953 1613 
Q 991 1019 1311 708 
Q 1631 397 2203 397 
Q 2534 397 2845 478 
Q 3156 559 3463 722 
L 3463 178 
Q 3153 47 2828 -22 
Q 2503 -91 2169 -91 
Q 1331 -91 842 396 
Q 353 884 353 1716 
Q 353 2575 817 3079 
Q 1281 3584 2069 3584 
Q 2775 3584 3186 3129 
Q 3597 2675 3597 1894 
z
M 3022 2063 
Q 3016 2534 2758 2815 
Q 2500 3097 2075 3097 
Q 1594 3097 1305 2825 
Q 1016 2553 972 2059 
L 3022 2063 
z
" transform="scale(0.015625)"/>
       <path id="DejaVuSans-64" d="M 2906 2969 
L 2906 4863 
L 3481 4863 
L 3481 0 
L 2906 0 
L 2906 525 
Q 2725 213 2448 61 
Q 2172 -91 1784 -91 
Q 1150 -91 751 415 
Q 353 922 353 1747 
Q 353 2572 751 3078 
Q 1150 3584 1784 3584 
Q 2172 3584 2448 3432 
Q 2725 3281 2906 2969 
z
M 947 1747 
Q 947 1113 1208 752 
Q 1469 391 1925 391 
Q 2381 391 2643 752 
Q 2906 1113 2906 1747 
Q 2906 2381 2643 2742 
Q 2381 3103 1925 3103 
Q 1469 3103 1208 2742 
Q 947 2381 947 1747 
z
" transform="scale(0.015625)"/>
       <path id="DejaVuSans-29" d="M 513 4856 
L 1013 4856 
Q 1481 4119 1714 3412 
Q 1947 2706 1947 2009 
Q 1947 1309 1714 600 
Q 1481 -109 1013 -844 
L 513 -844 
Q 928 -128 1133 580 
Q 1338 1288 1338 2009 
Q 1338 2731 1133 3434 
Q 928 4138 513 4856 
z
" transform="scale(0.015625)"/>
      </defs>
      <use xlink:href="#DejaVuSans-63"/>
      <use xlink:href="#DejaVuSans-6f" x="54.980469"/>
      <use xlink:href="#DejaVuSans-50" x="116.162109"/>
      <use xlink:href="#DejaVuSans-49" x="176.464844"/>
      <use xlink:href="#DejaVuSans-4e" x="205.957031"/>
      <use xlink:href="#DejaVuSans-4e" x="280.761719"/>
      <use xlink:href="#DejaVuSans-20" x="355.566406"/>
      <use xlink:href="#DejaVuSans-28" x="387.353516"/>
      <use xlink:href="#DejaVuSans-50" x="426.367188"/>
      <use xlink:href="#DejaVuSans-72" x="484.919922"/>
      <use xlink:href="#DejaVuSans-6f" x="523.783203"/>
      <use xlink:href="#DejaVuSans-70" x="584.964844"/>
      <use xlink:href="#DejaVuSans-6f" x="648.441406"/>
      <use xlink:href="#DejaVuSans-73" x="709.623047"/>
      <use xlink:href="#DejaVuSans-65" x="761.722656"/>
      <use xlink:href="#DejaVuSans-64" x="823.246094"/>
      <use xlink:href="#DejaVuSans-29" x="886.722656"/>
     </g>
    </g>
    <g id="line2d_18">
     <path d="M 124.193636 203.1475 
L 140.193636 203.1475 
L 156.193636 203.1475 
" style="fill: none; stroke-dasharray: 11.1,4.8; stroke-dashoffset: 0; stroke: #0000ff; stroke-width: 3"/>
    </g>
    <g id="text_16">
     <!-- FVM (Coarse Mesh) -->
     <g transform="translate(168.993636 208.7475) scale(0.16 -0.16)">
      <defs>
       <path id="DejaVuSans-46" d="M 628 4666 
L 3309 4666 
L 3309 4134 
L 1259 4134 
L 1259 2759 
L 3109 2759 
L 3109 2228 
L 1259 2228 
L 1259 0 
L 628 0 
L 628 4666 
z
" transform="scale(0.015625)"/>
       <path id="DejaVuSans-56" d="M 1831 0 
L 50 4666 
L 709 4666 
L 2188 738 
L 3669 4666 
L 4325 4666 
L 2547 0 
L 1831 0 
z
" transform="scale(0.015625)"/>
       <path id="DejaVuSans-4d" d="M 628 4666 
L 1569 4666 
L 2759 1491 
L 3956 4666 
L 4897 4666 
L 4897 0 
L 4281 0 
L 4281 4097 
L 3078 897 
L 2444 897 
L 1241 4097 
L 1241 0 
L 628 0 
L 628 4666 
z
" transform="scale(0.015625)"/>
       <path id="DejaVuSans-43" d="M 4122 4306 
L 4122 3641 
Q 3803 3938 3442 4084 
Q 3081 4231 2675 4231 
Q 1875 4231 1450 3742 
Q 1025 3253 1025 2328 
Q 1025 1406 1450 917 
Q 1875 428 2675 428 
Q 3081 428 3442 575 
Q 3803 722 4122 1019 
L 4122 359 
Q 3791 134 3420 21 
Q 3050 -91 2638 -91 
Q 1578 -91 968 557 
Q 359 1206 359 2328 
Q 359 3453 968 4101 
Q 1578 4750 2638 4750 
Q 3056 4750 3426 4639 
Q 3797 4528 4122 4306 
z
" transform="scale(0.015625)"/>
       <path id="DejaVuSans-61" d="M 2194 1759 
Q 1497 1759 1228 1600 
Q 959 1441 959 1056 
Q 959 750 1161 570 
Q 1363 391 1709 391 
Q 2188 391 2477 730 
Q 2766 1069 2766 1631 
L 2766 1759 
L 2194 1759 
z
M 3341 1997 
L 3341 0 
L 2766 0 
L 2766 531 
Q 2569 213 2275 61 
Q 1981 -91 1556 -91 
Q 1019 -91 701 211 
Q 384 513 384 1019 
Q 384 1609 779 1909 
Q 1175 2209 1959 2209 
L 2766 2209 
L 2766 2266 
Q 2766 2663 2505 2880 
Q 2244 3097 1772 3097 
Q 1472 3097 1187 3025 
Q 903 2953 641 2809 
L 641 3341 
Q 956 3463 1253 3523 
Q 1550 3584 1831 3584 
Q 2591 3584 2966 3190 
Q 3341 2797 3341 1997 
z
" transform="scale(0.015625)"/>
       <path id="DejaVuSans-68" d="M 3513 2113 
L 3513 0 
L 2938 0 
L 2938 2094 
Q 2938 2591 2744 2837 
Q 2550 3084 2163 3084 
Q 1697 3084 1428 2787 
Q 1159 2491 1159 1978 
L 1159 0 
L 581 0 
L 581 4863 
L 1159 4863 
L 1159 2956 
Q 1366 3272 1645 3428 
Q 1925 3584 2291 3584 
Q 2894 3584 3203 3211 
Q 3513 2838 3513 2113 
z
" transform="scale(0.015625)"/>
      </defs>
      <use xlink:href="#DejaVuSans-46"/>
      <use xlink:href="#DejaVuSans-56" x="57.519531"/>
      <use xlink:href="#DejaVuSans-4d" x="125.927734"/>
      <use xlink:href="#DejaVuSans-20" x="212.207031"/>
      <use xlink:href="#DejaVuSans-28" x="243.994141"/>
      <use xlink:href="#DejaVuSans-43" x="283.007812"/>
      <use xlink:href="#DejaVuSans-6f" x="352.832031"/>
      <use xlink:href="#DejaVuSans-61" x="414.013672"/>
      <use xlink:href="#DejaVuSans-72" x="475.292969"/>
      <use xlink:href="#DejaVuSans-73" x="516.40625"/>
      <use xlink:href="#DejaVuSans-65" x="568.505859"/>
      <use xlink:href="#DejaVuSans-20" x="630.029297"/>
      <use xlink:href="#DejaVuSans-4d" x="661.816406"/>
      <use xlink:href="#DejaVuSans-65" x="748.095703"/>
      <use xlink:href="#DejaVuSans-73" x="809.619141"/>
      <use xlink:href="#DejaVuSans-68" x="861.71875"/>
      <use xlink:href="#DejaVuSans-29" x="925.097656"/>
     </g>
    </g>
    <g id="line2d_19">
     <path d="M 124.193636 226.6325 
L 140.193636 226.6325 
L 156.193636 226.6325 
" style="fill: none; stroke-dasharray: 19.2,4.8,3,4.8; stroke-dashoffset: 0; stroke: #000000; stroke-width: 3"/>
    </g>
    <g id="text_17">
     <!-- FVM (Fine Mesh) -->
     <g transform="translate(168.993636 232.2325) scale(0.16 -0.16)">
      <defs>
       <path id="DejaVuSans-69" d="M 603 3500 
L 1178 3500 
L 1178 0 
L 603 0 
L 603 3500 
z
M 603 4863 
L 1178 4863 
L 1178 4134 
L 603 4134 
L 603 4863 
z
" transform="scale(0.015625)"/>
       <path id="DejaVuSans-6e" d="M 3513 2113 
L 3513 0 
L 2938 0 
L 2938 2094 
Q 2938 2591 2744 2837 
Q 2550 3084 2163 3084 
Q 1697 3084 1428 2787 
Q 1159 2491 1159 1978 
L 1159 0 
L 581 0 
L 581 3500 
L 1159 3500 
L 1159 2956 
Q 1366 3272 1645 3428 
Q 1925 3584 2291 3584 
Q 2894 3584 3203 3211 
Q 3513 2838 3513 2113 
z
" transform="scale(0.015625)"/>
      </defs>
      <use xlink:href="#DejaVuSans-46"/>
      <use xlink:href="#DejaVuSans-56" x="57.519531"/>
      <use xlink:href="#DejaVuSans-4d" x="125.927734"/>
      <use xlink:href="#DejaVuSans-20" x="212.207031"/>
      <use xlink:href="#DejaVuSans-28" x="243.994141"/>
      <use xlink:href="#DejaVuSans-46" x="283.007812"/>
      <use xlink:href="#DejaVuSans-69" x="333.277344"/>
      <use xlink:href="#DejaVuSans-6e" x="361.060547"/>
      <use xlink:href="#DejaVuSans-65" x="424.439453"/>
      <use xlink:href="#DejaVuSans-20" x="485.962891"/>
      <use xlink:href="#DejaVuSans-4d" x="517.75"/>
      <use xlink:href="#DejaVuSans-65" x="604.029297"/>
      <use xlink:href="#DejaVuSans-73" x="665.552734"/>
      <use xlink:href="#DejaVuSans-68" x="717.652344"/>
      <use xlink:href="#DejaVuSans-29" x="781.03125"/>
     </g>
    </g>
   </g>
  </g>
  <g id="axes_2">
   <g id="patch_8">
    <path d="M 398.523864 249.96 
L 702.8875 249.96 
L 702.8875 28.2 
L 398.523864 28.2 
L 398.523864 249.96 
z
" style="fill: none"/>
   </g>
   <g id="matplotlib.axis_3">
    <g id="xtick_7">
     <g id="line2d_20">
      <g>
       <use xlink:href="#m4d31a15287" x="398.523864" y="249.96" style="stroke: #000000; stroke-width: 0.8"/>
      </g>
     </g>
     <g id="text_18">
      <!-- 0.0 -->
      <g transform="translate(390.572301 264.558437) scale(0.1 -0.1)">
       <use xlink:href="#DejaVuSans-30"/>
       <use xlink:href="#DejaVuSans-2e" x="63.623047"/>
       <use xlink:href="#DejaVuSans-30" x="95.410156"/>
      </g>
     </g>
    </g>
    <g id="xtick_8">
     <g id="line2d_21">
      <g>
       <use xlink:href="#m4d31a15287" x="459.396591" y="249.96" style="stroke: #000000; stroke-width: 0.8"/>
      </g>
     </g>
     <g id="text_19">
      <!-- 0.2 -->
      <g transform="translate(451.445028 264.558437) scale(0.1 -0.1)">
       <use xlink:href="#DejaVuSans-30"/>
       <use xlink:href="#DejaVuSans-2e" x="63.623047"/>
       <use xlink:href="#DejaVuSans-32" x="95.410156"/>
      </g>
     </g>
    </g>
    <g id="xtick_9">
     <g id="line2d_22">
      <g>
       <use xlink:href="#m4d31a15287" x="520.269318" y="249.96" style="stroke: #000000; stroke-width: 0.8"/>
      </g>
     </g>
     <g id="text_20">
      <!-- 0.4 -->
      <g transform="translate(512.317756 264.558437) scale(0.1 -0.1)">
       <use xlink:href="#DejaVuSans-30"/>
       <use xlink:href="#DejaVuSans-2e" x="63.623047"/>
       <use xlink:href="#DejaVuSans-34" x="95.410156"/>
      </g>
     </g>
    </g>
    <g id="xtick_10">
     <g id="line2d_23">
      <g>
       <use xlink:href="#m4d31a15287" x="581.142045" y="249.96" style="stroke: #000000; stroke-width: 0.8"/>
      </g>
     </g>
     <g id="text_21">
      <!-- 0.6 -->
      <g transform="translate(573.190483 264.558437) scale(0.1 -0.1)">
       <use xlink:href="#DejaVuSans-30"/>
       <use xlink:href="#DejaVuSans-2e" x="63.623047"/>
       <use xlink:href="#DejaVuSans-36" x="95.410156"/>
      </g>
     </g>
    </g>
    <g id="xtick_11">
     <g id="line2d_24">
      <g>
       <use xlink:href="#m4d31a15287" x="642.014773" y="249.96" style="stroke: #000000; stroke-width: 0.8"/>
      </g>
     </g>
     <g id="text_22">
      <!-- 0.8 -->
      <g transform="translate(634.06321 264.558437) scale(0.1 -0.1)">
       <use xlink:href="#DejaVuSans-30"/>
       <use xlink:href="#DejaVuSans-2e" x="63.623047"/>
       <use xlink:href="#DejaVuSans-38" x="95.410156"/>
      </g>
     </g>
    </g>
    <g id="xtick_12">
     <g id="line2d_25">
      <g>
       <use xlink:href="#m4d31a15287" x="702.8875" y="249.96" style="stroke: #000000; stroke-width: 0.8"/>
      </g>
     </g>
     <g id="text_23">
      <!-- 1.0 -->
      <g transform="translate(694.935937 264.558437) scale(0.1 -0.1)">
       <use xlink:href="#DejaVuSans-31"/>
       <use xlink:href="#DejaVuSans-2e" x="63.623047"/>
       <use xlink:href="#DejaVuSans-30" x="95.410156"/>
      </g>
     </g>
    </g>
   </g>
   <g id="matplotlib.axis_4">
    <g id="ytick_8">
     <g id="line2d_26">
      <g>
       <use xlink:href="#m99bf4f1783" x="398.523864" y="249.96" style="stroke: #000000; stroke-width: 0.8"/>
      </g>
     </g>
     <g id="text_24">
      <!-- 0 -->
      <g transform="translate(385.161364 253.759219) scale(0.1 -0.1)">
       <use xlink:href="#DejaVuSans-30"/>
      </g>
     </g>
    </g>
    <g id="ytick_9">
     <g id="line2d_27">
      <g>
       <use xlink:href="#m99bf4f1783" x="398.523864" y="205.608" style="stroke: #000000; stroke-width: 0.8"/>
      </g>
     </g>
     <g id="text_25">
      <!-- 1 -->
      <g transform="translate(385.161364 209.407219) scale(0.1 -0.1)">
       <use xlink:href="#DejaVuSans-31"/>
      </g>
     </g>
    </g>
    <g id="ytick_10">
     <g id="line2d_28">
      <g>
       <use xlink:href="#m99bf4f1783" x="398.523864" y="161.256" style="stroke: #000000; stroke-width: 0.8"/>
      </g>
     </g>
     <g id="text_26">
      <!-- 2 -->
      <g transform="translate(385.161364 165.055219) scale(0.1 -0.1)">
       <use xlink:href="#DejaVuSans-32"/>
      </g>
     </g>
    </g>
    <g id="ytick_11">
     <g id="line2d_29">
      <g>
       <use xlink:href="#m99bf4f1783" x="398.523864" y="116.904" style="stroke: #000000; stroke-width: 0.8"/>
      </g>
     </g>
     <g id="text_27">
      <!-- 3 -->
      <g transform="translate(385.161364 120.703219) scale(0.1 -0.1)">
       <use xlink:href="#DejaVuSans-33"/>
      </g>
     </g>
    </g>
    <g id="ytick_12">
     <g id="line2d_30">
      <g>
       <use xlink:href="#m99bf4f1783" x="398.523864" y="72.552" style="stroke: #000000; stroke-width: 0.8"/>
      </g>
     </g>
     <g id="text_28">
      <!-- 4 -->
      <g transform="translate(385.161364 76.351219) scale(0.1 -0.1)">
       <use xlink:href="#DejaVuSans-34"/>
      </g>
     </g>
    </g>
    <g id="ytick_13">
     <g id="line2d_31">
      <g>
       <use xlink:href="#m99bf4f1783" x="398.523864" y="28.2" style="stroke: #000000; stroke-width: 0.8"/>
      </g>
     </g>
     <g id="text_29">
      <!-- 5 -->
      <g transform="translate(385.161364 31.999219) scale(0.1 -0.1)">
       <use xlink:href="#DejaVuSans-35"/>
      </g>
     </g>
    </g>
   </g>
   <g id="line2d_32">
    <path d="M 398.523864 72.406582 
L 401.5675 72.374393 
L 404.580393 72.376931 
L 407.593285 72.413963 
L 410.606178 72.485741 
L 413.61907 72.592172 
L 416.631963 72.733551 
L 419.644855 72.909889 
L 422.657748 73.121439 
L 425.67064 73.368265 
L 428.683533 73.650367 
L 431.696426 73.968021 
L 434.709318 74.321182 
L 437.722211 74.710001 
L 440.735103 75.134582 
L 443.747996 75.594862 
L 446.760888 76.091031 
L 449.773781 76.623132 
L 452.786674 77.191207 
L 455.799566 77.795319 
L 458.812459 78.435426 
L 461.825351 79.111803 
L 464.838244 79.824196 
L 467.851136 80.572712 
L 470.864029 81.357518 
L 473.876921 82.178499 
L 476.889814 83.035814 
L 479.902707 83.92924 
L 482.915599 84.858883 
L 485.928492 85.824891 
L 488.941384 86.827117 
L 491.954277 87.865633 
L 494.967169 88.940272 
L 497.980062 90.051233 
L 500.992955 91.198401 
L 504.005847 92.381681 
L 507.01874 93.60123 
L 510.031632 94.85688 
L 513.044525 96.148652 
L 516.057417 97.476451 
L 519.07031 98.840255 
L 522.083202 100.240171 
L 525.096095 101.675987 
L 528.108988 103.147734 
L 531.12188 104.655255 
L 534.134773 106.198643 
L 537.147665 107.777783 
L 540.160558 109.392602 
L 543.17345 111.042971 
L 546.186343 112.728954 
L 549.199236 114.450425 
L 552.212128 116.207331 
L 555.225021 117.999555 
L 558.237913 119.827107 
L 561.250806 121.689841 
L 564.263698 123.587681 
L 567.276591 125.520639 
L 570.289483 127.488598 
L 573.302376 129.491494 
L 576.315269 131.529254 
L 579.328161 133.601815 
L 582.341054 135.709143 
L 585.353946 137.851219 
L 588.366839 140.027969 
L 591.379731 142.239317 
L 594.392624 144.485307 
L 597.405517 146.765928 
L 600.418409 149.081053 
L 603.431302 151.430862 
L 606.444194 153.81527 
L 609.457087 156.234351 
L 612.469979 158.688159 
L 615.482872 161.176862 
L 618.495764 163.70037 
L 621.508657 166.258937 
L 624.52155 168.852707 
L 627.534442 171.481742 
L 630.547335 174.146259 
L 633.560227 176.846406 
L 636.57312 179.58258 
L 639.586012 182.354871 
L 642.598905 185.16348 
L 645.611798 188.008855 
L 648.62469 190.891129 
L 651.637583 193.810763 
L 654.650475 196.767872 
L 657.663368 199.762975 
L 660.67626 202.796251 
L 663.689153 205.868097 
L 666.702045 208.978751 
L 669.714938 212.128577 
L 672.727831 215.31774 
L 675.740723 218.546626 
L 678.753616 221.815266 
L 681.766508 225.123908 
L 684.779401 228.472655 
L 687.792293 231.86147 
L 690.805186 235.29025 
L 693.818079 238.758935 
L 696.830971 242.267212 
L 699.843864 245.814617 
L 702.8875 249.43756 
" clip-path="url(#pb38522d026)" style="fill: none; stroke: #ff0000; stroke-width: 3; stroke-linecap: square"/>
   </g>
   <g id="line2d_33">
    <path d="M 398.523864 72.552 
L 428.960227 73.487604 
L 456.014773 77.6425 
L 483.069318 84.921733 
L 510.123864 96.246037 
L 537.178409 110.933203 
L 564.232955 128.340802 
L 591.2875 149.12247 
L 618.342045 173.36007 
L 645.396591 200.515467 
L 672.451136 232.183102 
L 702.8875 249.96 
" clip-path="url(#pb38522d026)" style="fill: none; stroke-dasharray: 11.1,4.8; stroke-dashoffset: 0; stroke: #0000ff; stroke-width: 3"/>
   </g>
   <g id="line2d_34">
    <path d="M 398.523864 72.552 
L 401.5675 72.528952 
L 404.580393 72.524709 
L 407.593285 72.544681 
L 410.606178 72.604257 
L 413.61907 72.707015 
L 416.631963 72.837546 
L 419.644855 73.005053 
L 422.657748 73.21669 
L 425.67064 73.460167 
L 428.683533 73.736886 
L 431.696426 74.057885 
L 434.709318 74.415141 
L 437.722211 74.800461 
L 440.735103 75.228772 
L 443.747996 75.697689 
L 446.760888 76.189847 
L 449.773781 76.721207 
L 452.786674 77.296399 
L 455.799566 77.903477 
L 458.812459 78.542053 
L 461.825351 79.22421 
L 464.838244 79.946942 
L 467.851136 80.69492 
L 470.864029 81.479065 
L 473.876921 82.307482 
L 476.889814 83.175068 
L 479.902707 84.06726 
L 482.915599 84.994753 
L 485.928492 85.966093 
L 488.941384 86.979165 
L 491.954277 88.02289 
L 494.967169 89.094905 
L 497.980062 90.206967 
L 500.992955 91.363379 
L 504.005847 92.559616 
L 507.01874 93.784357 
L 510.031632 95.038622 
L 513.044525 96.333265 
L 516.057417 97.672257 
L 519.07031 99.051204 
L 522.083202 100.459007 
L 525.096095 101.895892 
L 528.108988 103.372808 
L 531.12188 104.89407 
L 534.134773 106.456032 
L 537.147665 108.048758 
L 540.160558 109.667575 
L 543.17345 111.323427 
L 546.186343 113.022644 
L 549.199236 114.76569 
L 552.212128 116.547639 
L 555.225021 118.359822 
L 558.237913 120.196359 
L 561.250806 122.066859 
L 564.263698 123.978407 
L 567.276591 125.934203 
L 570.289483 127.932937 
L 573.302376 129.969062 
L 576.315269 132.033992 
L 579.328161 134.124249 
L 582.341054 136.248791 
L 585.353946 138.414135 
L 588.366839 140.623499 
L 591.379731 142.876739 
L 594.392624 145.17083 
L 597.405517 147.500602 
L 600.418409 149.859509 
L 603.431302 152.240836 
L 606.444194 154.651723 
L 609.457087 157.098523 
L 612.469979 159.586103 
L 615.482872 162.117327 
L 618.495764 164.692865 
L 621.508657 167.311376 
L 624.52155 169.969965 
L 627.534442 172.664719 
L 630.547335 175.391145 
L 633.560227 178.144453 
L 636.57312 180.920142 
L 639.586012 183.723086 
L 642.598905 186.557912 
L 645.611798 189.428718 
L 648.62469 192.338829 
L 651.637583 195.290657 
L 654.650475 198.285741 
L 657.663368 201.324899 
L 660.67626 204.408406 
L 663.689153 207.536122 
L 666.702045 210.707546 
L 669.714938 213.921827 
L 672.727831 217.177793 
L 675.740723 220.474055 
L 678.753616 223.809184 
L 681.766508 227.181878 
L 684.779401 230.591054 
L 687.792293 234.035817 
L 690.805186 237.515358 
L 693.818079 241.028861 
L 696.830971 244.575496 
L 699.843864 248.154527 
L 702.8875 249.96 
" clip-path="url(#pb38522d026)" style="fill: none; stroke-dasharray: 19.2,4.8,3,4.8; stroke-dashoffset: 0; stroke: #000000; stroke-width: 3"/>
   </g>
   <g id="patch_9">
    <path d="M 398.523864 249.96 
L 398.523864 28.2 
" style="fill: none; stroke: #000000; stroke-width: 0.8; stroke-linejoin: miter; stroke-linecap: square"/>
   </g>
   <g id="patch_10">
    <path d="M 702.8875 249.96 
L 702.8875 28.2 
" style="fill: none; stroke: #000000; stroke-width: 0.8; stroke-linejoin: miter; stroke-linecap: square"/>
   </g>
   <g id="patch_11">
    <path d="M 398.523864 249.96 
L 702.8875 249.96 
" style="fill: none; stroke: #000000; stroke-width: 0.8; stroke-linejoin: miter; stroke-linecap: square"/>
   </g>
   <g id="patch_12">
    <path d="M 398.523864 28.2 
L 702.8875 28.2 
" style="fill: none; stroke: #000000; stroke-width: 0.8; stroke-linejoin: miter; stroke-linecap: square"/>
   </g>
   <g id="text_30">
    <!-- $C(x)$ -->
    <g transform="translate(530.005682 22.2) scale(0.2 -0.2)">
     <defs>
      <path id="Cmmi10-43" d="M 934 1381 
Q 934 997 1082 705 
Q 1231 413 1514 248 
Q 1797 84 2181 84 
Q 2584 84 2957 290 
Q 3331 497 3595 842 
Q 3859 1188 3956 1575 
Q 3969 1613 4006 1613 
L 4084 1613 
Q 4109 1613 4125 1595 
Q 4141 1578 4141 1556 
Q 4141 1550 4134 1538 
Q 4025 1094 3711 705 
Q 3397 316 2959 87 
Q 2522 -141 2059 -141 
Q 1559 -141 1162 84 
Q 766 309 545 709 
Q 325 1109 325 1613 
Q 325 2150 565 2676 
Q 806 3203 1212 3614 
Q 1619 4025 2139 4269 
Q 2659 4513 3194 4513 
Q 3406 4513 3600 4448 
Q 3794 4384 3959 4253 
Q 4125 4122 4231 3950 
L 4738 4500 
Q 4738 4513 4769 4513 
L 4806 4513 
Q 4831 4513 4847 4491 
Q 4863 4469 4863 4447 
L 4428 2719 
Q 4428 2675 4378 2675 
L 4263 2675 
Q 4213 2675 4213 2747 
Q 4238 2888 4238 3084 
Q 4238 3397 4131 3673 
Q 4025 3950 3801 4119 
Q 3578 4288 3256 4288 
Q 2734 4288 2300 4025 
Q 1866 3763 1564 3336 
Q 1263 2909 1098 2389 
Q 934 1869 934 1381 
z
" transform="scale(0.015625)"/>
     </defs>
     <use xlink:href="#Cmmi10-43"/>
     <use xlink:href="#Cmr10-28" transform="translate(71.386719 0)"/>
     <use xlink:href="#Cmmi10-78" transform="translate(110.205078 0)"/>
     <use xlink:href="#Cmr10-29" transform="translate(167.285156 0)"/>
    </g>
   </g>
   <g id="legend_2">
    <g id="patch_13">
     <path d="M 409.723864 241.96 
L 615.181364 241.96 
Q 618.381364 241.96 618.381364 238.76 
L 618.381364 169.905 
Q 618.381364 166.705 615.181364 166.705 
L 409.723864 166.705 
Q 406.523864 166.705 406.523864 169.905 
L 406.523864 238.76 
Q 406.523864 241.96 409.723864 241.96 
z
" style="fill: #ffffff; opacity: 0.8; stroke: #cccccc; stroke-linejoin: miter"/>
    </g>
    <g id="line2d_35">
     <path d="M 412.923864 179.6625 
L 428.923864 179.6625 
L 444.923864 179.6625 
" style="fill: none; stroke: #ff0000; stroke-width: 3; stroke-linecap: square"/>
    </g>
    <g id="text_31">
     <!-- coPINN (Proposed) -->
     <g transform="translate(457.723864 185.2625) scale(0.16 -0.16)">
      <use xlink:href="#DejaVuSans-63"/>
      <use xlink:href="#DejaVuSans-6f" x="54.980469"/>
      <use xlink:href="#DejaVuSans-50" x="116.162109"/>
      <use xlink:href="#DejaVuSans-49" x="176.464844"/>
      <use xlink:href="#DejaVuSans-4e" x="205.957031"/>
      <use xlink:href="#DejaVuSans-4e" x="280.761719"/>
      <use xlink:href="#DejaVuSans-20" x="355.566406"/>
      <use xlink:href="#DejaVuSans-28" x="387.353516"/>
      <use xlink:href="#DejaVuSans-50" x="426.367188"/>
      <use xlink:href="#DejaVuSans-72" x="484.919922"/>
      <use xlink:href="#DejaVuSans-6f" x="523.783203"/>
      <use xlink:href="#DejaVuSans-70" x="584.964844"/>
      <use xlink:href="#DejaVuSans-6f" x="648.441406"/>
      <use xlink:href="#DejaVuSans-73" x="709.623047"/>
      <use xlink:href="#DejaVuSans-65" x="761.722656"/>
      <use xlink:href="#DejaVuSans-64" x="823.246094"/>
      <use xlink:href="#DejaVuSans-29" x="886.722656"/>
     </g>
    </g>
    <g id="line2d_36">
     <path d="M 412.923864 203.1475 
L 428.923864 203.1475 
L 444.923864 203.1475 
" style="fill: none; stroke-dasharray: 11.1,4.8; stroke-dashoffset: 0; stroke: #0000ff; stroke-width: 3"/>
    </g>
    <g id="text_32">
     <!-- FVM (Coarse Mesh) -->
     <g transform="translate(457.723864 208.7475) scale(0.16 -0.16)">
      <use xlink:href="#DejaVuSans-46"/>
      <use xlink:href="#DejaVuSans-56" x="57.519531"/>
      <use xlink:href="#DejaVuSans-4d" x="125.927734"/>
      <use xlink:href="#DejaVuSans-20" x="212.207031"/>
      <use xlink:href="#DejaVuSans-28" x="243.994141"/>
      <use xlink:href="#DejaVuSans-43" x="283.007812"/>
      <use xlink:href="#DejaVuSans-6f" x="352.832031"/>
      <use xlink:href="#DejaVuSans-61" x="414.013672"/>
      <use xlink:href="#DejaVuSans-72" x="475.292969"/>
      <use xlink:href="#DejaVuSans-73" x="516.40625"/>
      <use xlink:href="#DejaVuSans-65" x="568.505859"/>
      <use xlink:href="#DejaVuSans-20" x="630.029297"/>
      <use xlink:href="#DejaVuSans-4d" x="661.816406"/>
      <use xlink:href="#DejaVuSans-65" x="748.095703"/>
      <use xlink:href="#DejaVuSans-73" x="809.619141"/>
      <use xlink:href="#DejaVuSans-68" x="861.71875"/>
      <use xlink:href="#DejaVuSans-29" x="925.097656"/>
     </g>
    </g>
    <g id="line2d_37">
     <path d="M 412.923864 226.6325 
L 428.923864 226.6325 
L 444.923864 226.6325 
" style="fill: none; stroke-dasharray: 19.2,4.8,3,4.8; stroke-dashoffset: 0; stroke: #000000; stroke-width: 3"/>
    </g>
    <g id="text_33">
     <!-- FVM (Fine Mesh) -->
     <g transform="translate(457.723864 232.2325) scale(0.16 -0.16)">
      <use xlink:href="#DejaVuSans-46"/>
      <use xlink:href="#DejaVuSans-56" x="57.519531"/>
      <use xlink:href="#DejaVuSans-4d" x="125.927734"/>
      <use xlink:href="#DejaVuSans-20" x="212.207031"/>
      <use xlink:href="#DejaVuSans-28" x="243.994141"/>
      <use xlink:href="#DejaVuSans-46" x="283.007812"/>
      <use xlink:href="#DejaVuSans-69" x="333.277344"/>
      <use xlink:href="#DejaVuSans-6e" x="361.060547"/>
      <use xlink:href="#DejaVuSans-65" x="424.439453"/>
      <use xlink:href="#DejaVuSans-20" x="485.962891"/>
      <use xlink:href="#DejaVuSans-4d" x="517.75"/>
      <use xlink:href="#DejaVuSans-65" x="604.029297"/>
      <use xlink:href="#DejaVuSans-73" x="665.552734"/>
      <use xlink:href="#DejaVuSans-68" x="717.652344"/>
      <use xlink:href="#DejaVuSans-29" x="781.03125"/>
     </g>
    </g>
   </g>
  </g>
 </g>
 <defs>
  <clipPath id="p65d7828188">
   <rect x="33.2875" y="28.2" width="304.363636" height="221.76"/>
  </clipPath>
  <clipPath id="pb38522d026">
   <rect x="398.523864" y="28.2" width="304.363636" height="221.76"/>
  </clipPath>
 </defs>
</svg>
