<?xml version="1.0" encoding="utf-8" standalone="no"?>
<!DOCTYPE svg PUBLIC "-//W3C//DTD SVG 1.1//EN"
  "http://www.w3.org/Graphics/SVG/1.1/DTD/svg11.dtd">
<svg xmlns:xlink="http://www.w3.org/1999/xlink" width="723.234375pt" height="273.838125pt" viewBox="0 0 723.234375 273.838125" xmlns="http://www.w3.org/2000/svg" version="1.1">
 <metadata>
  <rdf:RDF xmlns:dc="http://purl.org/dc/elements/1.1/" xmlns:cc="http://creativecommons.org/ns#" xmlns:rdf="http://www.w3.org/1999/02/22-rdf-syntax-ns#">
   <cc:Work>
    <dc:type rdf:resource="http://purl.org/dc/dcmitype/StillImage"/>
    <dc:date>2025-01-21T18:17:25.965769</dc:date>
    <dc:format>image/svg+xml</dc:format>
    <dc:creator>
     <cc:Agent>
      <dc:title>Matplotlib v3.9.0, https://matplotlib.org/</dc:title>
     </cc:Agent>
    </dc:creator>
   </cc:Work>
  </rdf:RDF>
 </metadata>
 <defs>
  <style type="text/css">*{stroke-linejoin: round; stroke-linecap: butt}</style>
 </defs>
 <g id="figure_1">
  <g id="patch_1">
   <path d="M 0 273.838125 
L 723.234375 273.838125 
L 723.234375 0 
L 0 0 
L 0 273.838125 
z
" style="fill: none"/>
  </g>
  <g id="axes_1">
   <g id="patch_2">
    <path d="M 38.482813 249.96 
L 342.846449 249.96 
L 342.846449 28.2 
L 38.482813 28.2 
L 38.482813 249.96 
z
" style="fill: none"/>
   </g>
   <g id="matplotlib.axis_1">
    <g id="xtick_1">
     <g id="line2d_1">
      <defs>
       <path id="md12eca216c" d="M 0 0 
L 0 3.5 
" style="stroke: #000000; stroke-width: 0.8"/>
      </defs>
      <g>
       <use xlink:href="#md12eca216c" x="38.482813" y="249.96" style="stroke: #000000; stroke-width: 0.8"/>
      </g>
     </g>
     <g id="text_1">
      <!-- 0.0 -->
      <g transform="translate(30.53125 264.558437) scale(0.1 -0.1)">
       <defs>
        <path id="DejaVuSans-30" d="M 2034 4250 
Q 1547 4250 1301 3770 
Q 1056 3291 1056 2328 
Q 1056 1369 1301 889 
Q 1547 409 2034 409 
Q 2525 409 2770 889 
Q 3016 1369 3016 2328 
Q 3016 3291 2770 3770 
Q 2525 4250 2034 4250 
z
M 2034 4750 
Q 2819 4750 3233 4129 
Q 3647 3509 3647 2328 
Q 3647 1150 3233 529 
Q 2819 -91 2034 -91 
Q 1250 -91 836 529 
Q 422 1150 422 2328 
Q 422 3509 836 4129 
Q 1250 4750 2034 4750 
z
" transform="scale(0.015625)"/>
        <path id="DejaVuSans-2e" d="M 684 794 
L 1344 794 
L 1344 0 
L 684 0 
L 684 794 
z
" transform="scale(0.015625)"/>
       </defs>
       <use xlink:href="#DejaVuSans-30"/>
       <use xlink:href="#DejaVuSans-2e" x="63.623047"/>
       <use xlink:href="#DejaVuSans-30" x="95.410156"/>
      </g>
     </g>
    </g>
    <g id="xtick_2">
     <g id="line2d_2">
      <g>
       <use xlink:href="#md12eca216c" x="99.35554" y="249.96" style="stroke: #000000; stroke-width: 0.8"/>
      </g>
     </g>
     <g id="text_2">
      <!-- 0.2 -->
      <g transform="translate(91.403977 264.558437) scale(0.1 -0.1)">
       <defs>
        <path id="DejaVuSans-32" d="M 1228 531 
L 3431 531 
L 3431 0 
L 469 0 
L 469 531 
Q 828 903 1448 1529 
Q 2069 2156 2228 2338 
Q 2531 2678 2651 2914 
Q 2772 3150 2772 3378 
Q 2772 3750 2511 3984 
Q 2250 4219 1831 4219 
Q 1534 4219 1204 4116 
Q 875 4013 500 3803 
L 500 4441 
Q 881 4594 1212 4672 
Q 1544 4750 1819 4750 
Q 2544 4750 2975 4387 
Q 3406 4025 3406 3419 
Q 3406 3131 3298 2873 
Q 3191 2616 2906 2266 
Q 2828 2175 2409 1742 
Q 1991 1309 1228 531 
z
" transform="scale(0.015625)"/>
       </defs>
       <use xlink:href="#DejaVuSans-30"/>
       <use xlink:href="#DejaVuSans-2e" x="63.623047"/>
       <use xlink:href="#DejaVuSans-32" x="95.410156"/>
      </g>
     </g>
    </g>
    <g id="xtick_3">
     <g id="line2d_3">
      <g>
       <use xlink:href="#md12eca216c" x="160.228267" y="249.96" style="stroke: #000000; stroke-width: 0.8"/>
      </g>
     </g>
     <g id="text_3">
      <!-- 0.4 -->
      <g transform="translate(152.276705 264.558437) scale(0.1 -0.1)">
       <defs>
        <path id="DejaVuSans-34" d="M 2419 4116 
L 825 1625 
L 2419 1625 
L 2419 4116 
z
M 2253 4666 
L 3047 4666 
L 3047 1625 
L 3713 1625 
L 3713 1100 
L 3047 1100 
L 3047 0 
L 2419 0 
L 2419 1100 
L 313 1100 
L 313 1709 
L 2253 4666 
z
" transform="scale(0.015625)"/>
       </defs>
       <use xlink:href="#DejaVuSans-30"/>
       <use xlink:href="#DejaVuSans-2e" x="63.623047"/>
       <use xlink:href="#DejaVuSans-34" x="95.410156"/>
      </g>
     </g>
    </g>
    <g id="xtick_4">
     <g id="line2d_4">
      <g>
       <use xlink:href="#md12eca216c" x="221.100994" y="249.96" style="stroke: #000000; stroke-width: 0.8"/>
      </g>
     </g>
     <g id="text_4">
      <!-- 0.6 -->
      <g transform="translate(213.149432 264.558437) scale(0.1 -0.1)">
       <defs>
        <path id="DejaVuSans-36" d="M 2113 2584 
Q 1688 2584 1439 2293 
Q 1191 2003 1191 1497 
Q 1191 994 1439 701 
Q 1688 409 2113 409 
Q 2538 409 2786 701 
Q 3034 994 3034 1497 
Q 3034 2003 2786 2293 
Q 2538 2584 2113 2584 
z
M 3366 4563 
L 3366 3988 
Q 3128 4100 2886 4159 
Q 2644 4219 2406 4219 
Q 1781 4219 1451 3797 
Q 1122 3375 1075 2522 
Q 1259 2794 1537 2939 
Q 1816 3084 2150 3084 
Q 2853 3084 3261 2657 
Q 3669 2231 3669 1497 
Q 3669 778 3244 343 
Q 2819 -91 2113 -91 
Q 1303 -91 875 529 
Q 447 1150 447 2328 
Q 447 3434 972 4092 
Q 1497 4750 2381 4750 
Q 2619 4750 2861 4703 
Q 3103 4656 3366 4563 
z
" transform="scale(0.015625)"/>
       </defs>
       <use xlink:href="#DejaVuSans-30"/>
       <use xlink:href="#DejaVuSans-2e" x="63.623047"/>
       <use xlink:href="#DejaVuSans-36" x="95.410156"/>
      </g>
     </g>
    </g>
    <g id="xtick_5">
     <g id="line2d_5">
      <g>
       <use xlink:href="#md12eca216c" x="281.973722" y="249.96" style="stroke: #000000; stroke-width: 0.8"/>
      </g>
     </g>
     <g id="text_5">
      <!-- 0.8 -->
      <g transform="translate(274.022159 264.558437) scale(0.1 -0.1)">
       <defs>
        <path id="DejaVuSans-38" d="M 2034 2216 
Q 1584 2216 1326 1975 
Q 1069 1734 1069 1313 
Q 1069 891 1326 650 
Q 1584 409 2034 409 
Q 2484 409 2743 651 
Q 3003 894 3003 1313 
Q 3003 1734 2745 1975 
Q 2488 2216 2034 2216 
z
M 1403 2484 
Q 997 2584 770 2862 
Q 544 3141 544 3541 
Q 544 4100 942 4425 
Q 1341 4750 2034 4750 
Q 2731 4750 3128 4425 
Q 3525 4100 3525 3541 
Q 3525 3141 3298 2862 
Q 3072 2584 2669 2484 
Q 3125 2378 3379 2068 
Q 3634 1759 3634 1313 
Q 3634 634 3220 271 
Q 2806 -91 2034 -91 
Q 1263 -91 848 271 
Q 434 634 434 1313 
Q 434 1759 690 2068 
Q 947 2378 1403 2484 
z
M 1172 3481 
Q 1172 3119 1398 2916 
Q 1625 2713 2034 2713 
Q 2441 2713 2670 2916 
Q 2900 3119 2900 3481 
Q 2900 3844 2670 4047 
Q 2441 4250 2034 4250 
Q 1625 4250 1398 4047 
Q 1172 3844 1172 3481 
z
" transform="scale(0.015625)"/>
       </defs>
       <use xlink:href="#DejaVuSans-30"/>
       <use xlink:href="#DejaVuSans-2e" x="63.623047"/>
       <use xlink:href="#DejaVuSans-38" x="95.410156"/>
      </g>
     </g>
    </g>
    <g id="xtick_6">
     <g id="line2d_6">
      <g>
       <use xlink:href="#md12eca216c" x="342.846449" y="249.96" style="stroke: #000000; stroke-width: 0.8"/>
      </g>
     </g>
     <g id="text_6">
      <!-- 1.0 -->
      <g transform="translate(334.894886 264.558437) scale(0.1 -0.1)">
       <defs>
        <path id="DejaVuSans-31" d="M 794 531 
L 1825 531 
L 1825 4091 
L 703 3866 
L 703 4441 
L 1819 4666 
L 2450 4666 
L 2450 531 
L 3481 531 
L 3481 0 
L 794 0 
L 794 531 
z
" transform="scale(0.015625)"/>
       </defs>
       <use xlink:href="#DejaVuSans-31"/>
       <use xlink:href="#DejaVuSans-2e" x="63.623047"/>
       <use xlink:href="#DejaVuSans-30" x="95.410156"/>
      </g>
     </g>
    </g>
   </g>
   <g id="matplotlib.axis_2">
    <g id="ytick_1">
     <g id="line2d_7">
      <defs>
       <path id="m9d0b8875c7" d="M 0 0 
L -3.5 0 
" style="stroke: #000000; stroke-width: 0.8"/>
      </defs>
      <g>
       <use xlink:href="#m9d0b8875c7" x="38.482813" y="221.050717" style="stroke: #000000; stroke-width: 0.8"/>
      </g>
     </g>
     <g id="text_7">
      <!-- −5.0 -->
      <g transform="translate(7.2 224.849936) scale(0.1 -0.1)">
       <defs>
        <path id="DejaVuSans-2212" d="M 678 2272 
L 4684 2272 
L 4684 1741 
L 678 1741 
L 678 2272 
z
" transform="scale(0.015625)"/>
        <path id="DejaVuSans-35" d="M 691 4666 
L 3169 4666 
L 3169 4134 
L 1269 4134 
L 1269 2991 
Q 1406 3038 1543 3061 
Q 1681 3084 1819 3084 
Q 2600 3084 3056 2656 
Q 3513 2228 3513 1497 
Q 3513 744 3044 326 
Q 2575 -91 1722 -91 
Q 1428 -91 1123 -41 
Q 819 9 494 109 
L 494 744 
Q 775 591 1075 516 
Q 1375 441 1709 441 
Q 2250 441 2565 725 
Q 2881 1009 2881 1497 
Q 2881 1984 2565 2268 
Q 2250 2553 1709 2553 
Q 1456 2553 1204 2497 
Q 953 2441 691 2322 
L 691 4666 
z
" transform="scale(0.015625)"/>
       </defs>
       <use xlink:href="#DejaVuSans-2212"/>
       <use xlink:href="#DejaVuSans-35" x="83.789062"/>
       <use xlink:href="#DejaVuSans-2e" x="147.412109"/>
       <use xlink:href="#DejaVuSans-30" x="179.199219"/>
      </g>
     </g>
    </g>
    <g id="ytick_2">
     <g id="line2d_8">
      <g>
       <use xlink:href="#m9d0b8875c7" x="38.482813" y="190.509103" style="stroke: #000000; stroke-width: 0.8"/>
      </g>
     </g>
     <g id="text_8">
      <!-- −2.5 -->
      <g transform="translate(7.2 194.308322) scale(0.1 -0.1)">
       <use xlink:href="#DejaVuSans-2212"/>
       <use xlink:href="#DejaVuSans-32" x="83.789062"/>
       <use xlink:href="#DejaVuSans-2e" x="147.412109"/>
       <use xlink:href="#DejaVuSans-35" x="179.199219"/>
      </g>
     </g>
    </g>
    <g id="ytick_3">
     <g id="line2d_9">
      <g>
       <use xlink:href="#m9d0b8875c7" x="38.482813" y="159.967489" style="stroke: #000000; stroke-width: 0.8"/>
      </g>
     </g>
     <g id="text_9">
      <!-- 0.0 -->
      <g transform="translate(15.579688 163.766708) scale(0.1 -0.1)">
       <use xlink:href="#DejaVuSans-30"/>
       <use xlink:href="#DejaVuSans-2e" x="63.623047"/>
       <use xlink:href="#DejaVuSans-30" x="95.410156"/>
      </g>
     </g>
    </g>
    <g id="ytick_4">
     <g id="line2d_10">
      <g>
       <use xlink:href="#m9d0b8875c7" x="38.482813" y="129.425875" style="stroke: #000000; stroke-width: 0.8"/>
      </g>
     </g>
     <g id="text_10">
      <!-- 2.5 -->
      <g transform="translate(15.579688 133.225094) scale(0.1 -0.1)">
       <use xlink:href="#DejaVuSans-32"/>
       <use xlink:href="#DejaVuSans-2e" x="63.623047"/>
       <use xlink:href="#DejaVuSans-35" x="95.410156"/>
      </g>
     </g>
    </g>
    <g id="ytick_5">
     <g id="line2d_11">
      <g>
       <use xlink:href="#m9d0b8875c7" x="38.482813" y="98.884261" style="stroke: #000000; stroke-width: 0.8"/>
      </g>
     </g>
     <g id="text_11">
      <!-- 5.0 -->
      <g transform="translate(15.579688 102.68348) scale(0.1 -0.1)">
       <use xlink:href="#DejaVuSans-35"/>
       <use xlink:href="#DejaVuSans-2e" x="63.623047"/>
       <use xlink:href="#DejaVuSans-30" x="95.410156"/>
      </g>
     </g>
    </g>
    <g id="ytick_6">
     <g id="line2d_12">
      <g>
       <use xlink:href="#m9d0b8875c7" x="38.482813" y="68.342647" style="stroke: #000000; stroke-width: 0.8"/>
      </g>
     </g>
     <g id="text_12">
      <!-- 7.5 -->
      <g transform="translate(15.579688 72.141866) scale(0.1 -0.1)">
       <defs>
        <path id="DejaVuSans-37" d="M 525 4666 
L 3525 4666 
L 3525 4397 
L 1831 0 
L 1172 0 
L 2766 4134 
L 525 4134 
L 525 4666 
z
" transform="scale(0.015625)"/>
       </defs>
       <use xlink:href="#DejaVuSans-37"/>
       <use xlink:href="#DejaVuSans-2e" x="63.623047"/>
       <use xlink:href="#DejaVuSans-35" x="95.410156"/>
      </g>
     </g>
    </g>
    <g id="ytick_7">
     <g id="line2d_13">
      <g>
       <use xlink:href="#m9d0b8875c7" x="38.482813" y="37.801033" style="stroke: #000000; stroke-width: 0.8"/>
      </g>
     </g>
     <g id="text_13">
      <!-- 10.0 -->
      <g transform="translate(9.217188 41.600252) scale(0.1 -0.1)">
       <use xlink:href="#DejaVuSans-31"/>
       <use xlink:href="#DejaVuSans-30" x="63.623047"/>
       <use xlink:href="#DejaVuSans-2e" x="127.246094"/>
       <use xlink:href="#DejaVuSans-30" x="159.033203"/>
      </g>
     </g>
    </g>
   </g>
   <g id="line2d_14">
    <path d="M 40.315008 159.089645 
L 41.031467 159.316631 
L 45.202249 160.169204 
L 46.344641 160.284363 
L 52.257605 160.364943 
L 56.260572 160.145454 
L 57.727557 160.050029 
L 62.135433 159.786114 
L 63.646478 159.718712 
L 65.947012 159.647436 
L 67.788163 159.622433 
L 68.300623 159.618472 
L 72.017352 159.6574 
L 74.649321 159.73797 
L 74.878 159.7452 
L 75.707598 159.779109 
L 79.27657 159.936318 
L 81.056082 160.015146 
L 85.805737 160.182532 
L 86.082895 160.189586 
L 86.70444 160.201989 
L 90.849909 160.223385 
L 91.369731 160.218043 
L 92.528874 160.1984 
L 95.62862 160.105614 
L 97.934782 160.003845 
L 100.976338 159.848559 
L 105.757284 159.622337 
L 105.852356 159.618166 
L 111.088554 159.52771 
L 117.631316 159.758825 
L 124.693685 160.241584 
L 125.214604 160.272703 
L 136.030527 160.154308 
L 136.917272 160.077641 
L 138.15565 159.958524 
L 142.889604 159.504866 
L 153.914358 159.905542 
L 155.590033 160.125692 
L 155.795662 160.151412 
L 156.884739 160.276398 
L 157.743387 160.357945 
L 161.996145 160.389668 
L 171.933095 159.017072 
L 177.02231 159.732261 
L 177.496072 159.849584 
L 179.58359 160.361737 
L 187.063981 160.32943 
L 190.651419 159.372639 
L 193.3265 158.921553 
L 195.113707 158.910567 
L 200.653972 160.109942 
L 201.726101 160.382911 
L 207.080114 160.640493 
L 208.439978 160.367901 
L 208.456422 160.363739 
L 208.791927 160.281942 
L 216.1062 158.949317 
L 218.538993 159.298308 
L 220.679265 159.826038 
L 222.877478 160.30233 
L 224.13011 160.445972 
L 228.26306 160.053029 
L 235.867198 159.430549 
L 236.225081 159.49295 
L 239.694978 160.211076 
L 243.708251 160.322838 
L 244.125783 160.261338 
L 245.844205 159.912747 
L 252.332332 159.481061 
L 252.730431 159.565418 
L 258.613089 160.461386 
L 260.763992 160.017168 
L 261.729118 159.723454 
L 263.32282 159.254198 
L 269.695917 159.682833 
L 270.627596 159.974372 
L 271.485596 160.217898 
L 273.231571 160.528733 
L 278.733995 159.620985 
L 281.418648 159.209528 
L 284.203942 159.533005 
L 293.349048 159.557769 
L 294.168937 159.382507 
L 299.250367 159.769829 
L 301.47015 160.39484 
L 305.075086 160.259271 
L 309.468033 158.531497 
L 312.927047 159.118258 
L 315.989176 161.092166 
L 318.854601 161.463241 
L 319.522638 161.143546 
L 319.795118 160.973609 
L 320.960923 160.023983 
L 320.989633 159.995894 
L 324.607979 157.176692 
L 328.363464 159.482402 
L 329.03872 160.366706 
L 335.112618 160.352996 
L 341.574821 161.62345 
" clip-path="url(#pe128b49b90)" style="fill: none; stroke: #ff0000; stroke-width: 2; stroke-linecap: square"/>
   </g>
   <g id="line2d_15">
    <path d="M 38.526937 152.589946 
L 40.107165 154.129546 
L 45.383364 158.533134 
L 45.81601 158.841445 
L 45.888082 158.891996 
L 46.218126 159.120521 
L 50.980208 161.856147 
L 52.978177 162.676115 
L 54.327848 163.114872 
L 54.807282 163.247917 
L 55.615878 163.444862 
L 56.814681 163.672735 
L 60.018137 163.898746 
L 63.228337 163.556472 
L 64.525162 163.256076 
L 64.749033 163.194832 
L 65.898869 162.837047 
L 69.979852 160.998712 
L 73.177475 158.981044 
L 79.135487 154.140076 
L 80.561239 152.835223 
L 97.217871 167.191703 
L 97.904519 168.460878 
L 105.392419 186.724595 
L 107.457029 193.580453 
L 109.195102 200.105424 
L 110.869263 207.095975 
L 112.209529 213.220715 
L 120.72467 186.531913 
L 122.926173 175.141804 
L 123.567641 172.034087 
L 125.150532 164.721835 
L 130.199348 143.703074 
L 134.537394 125.880969 
L 136.902825 114.973328 
L 142.783219 79.726554 
L 143.073093 77.585579 
L 147.557387 88.041218 
L 150.544694 113.455363 
L 152.893042 129.729385 
L 157.115635 151.968249 
L 157.323872 152.877705 
L 158.725734 158.670193 
L 161.326439 168.41035 
L 161.8074 170.152656 
L 169.505136 204.914054 
L 171.040603 215.241841 
L 173.360377 234.141486 
L 185.598175 219.275987 
L 191.997108 216.369695 
L 197.753102 197.727577 
L 202.365052 159.211428 
L 203.403025 147.283 
L 208.950641 96.236434 
L 210.913399 82.39965 
L 212.009096 74.500452 
L 219.26934 38.28 
L 223.018511 43.014767 
L 225.61951 58.074296 
L 225.674131 58.486825 
L 226.659163 66.536199 
L 228.764532 87.064481 
L 229.983952 100.46043 
L 236.530609 170.692464 
L 236.788702 172.804107 
L 236.872226 173.468791 
L 239.819434 190.217449 
L 239.87655 190.400762 
L 240.618644 192.258024 
L 242.932197 191.718496 
L 244.657334 185.324738 
L 247.389883 166.71723 
L 250.579923 138.075601 
L 253.097303 116.855467 
L 260.970457 111.404379 
L 266.150379 167.436756 
L 266.707657 174.807262 
L 269.718147 209.420394 
L 275.218915 239.88 
L 281.383058 199.321508 
L 290.660297 125.088027 
L 292.132088 129.242384 
L 295.846924 162.432456 
L 302.952172 231.044359 
L 306.685301 224.620861 
L 307.248905 219.9802 
L 311.032396 169.665102 
L 312.306495 148.714277 
L 314.140363 119.797246 
L 314.159623 119.515705 
L 314.195178 118.99764 
L 318.264873 80.96199 
L 321.708453 91.546928 
L 322.365781 97.676249 
L 324.80472 126.928612 
L 325.43707 135.14811 
L 327.532308 159.630596 
L 327.629759 160.573952 
L 333.430312 157.503782 
L 333.570204 155.849931 
" clip-path="url(#pe128b49b90)" style="fill: none; stroke-dasharray: 7.4,3.2; stroke-dashoffset: 0; stroke: #0000ff; stroke-width: 2"/>
   </g>
   <g id="line2d_16">
    <path d="M 40.315008 167.399855 
L 41.031467 164.872052 
L 45.202249 159.702338 
L 46.344641 160.46212 
L 52.257605 159.973464 
L 56.260572 159.934951 
L 57.727557 159.90964 
L 62.135433 159.938704 
L 63.646478 159.931388 
L 65.947012 159.941259 
L 67.788163 159.886074 
L 68.300623 159.922194 
L 72.017352 159.946725 
L 74.649321 159.944134 
L 74.878 159.944227 
L 75.707598 159.916795 
L 79.27657 159.879955 
L 81.056082 159.947779 
L 85.805737 159.890626 
L 86.082895 159.910436 
L 86.70444 159.93927 
L 90.849909 159.964552 
L 91.369731 159.965693 
L 92.528874 159.966943 
L 95.62862 159.980847 
L 97.934782 160.003948 
L 100.976338 160.064744 
L 105.757284 160.030992 
L 105.852356 160.036337 
L 111.088554 160.062094 
L 117.631316 160.073252 
L 124.693685 160.224345 
L 125.214604 160.415725 
L 136.030527 159.988867 
L 136.917272 159.987903 
L 138.15565 159.978628 
L 142.889604 159.753869 
L 153.914358 159.724335 
L 155.590033 159.067759 
L 155.795662 159.121412 
L 156.884739 159.703648 
L 157.743387 159.648273 
L 161.996145 159.390095 
L 171.933095 160.064201 
L 177.02231 161.004989 
L 177.496072 160.592618 
L 179.58359 160.822178 
L 187.063981 160.439271 
L 190.651419 160.155016 
L 193.3265 160.067906 
L 195.113707 159.743619 
L 200.653972 159.224969 
L 201.726101 158.969095 
L 207.080114 158.542866 
L 208.439978 159.335574 
L 208.456422 159.34653 
L 208.791927 159.498597 
L 216.1062 160.093956 
L 218.538993 160.321259 
L 220.679265 160.376449 
L 222.877478 161.55917 
L 224.13011 160.531003 
L 228.26306 161.454171 
L 235.867198 159.989342 
L 236.225081 159.881079 
L 239.694978 159.344908 
L 243.708251 157.546674 
L 244.125783 157.48958 
L 245.844205 159.130597 
L 252.332332 159.961647 
L 252.730431 159.987366 
L 258.613089 161.825124 
L 260.763992 160.833268 
L 261.729118 162.203636 
L 263.32282 160.990349 
L 269.695917 159.893124 
L 270.627596 159.171483 
L 271.485596 158.497215 
L 273.231571 159.004153 
L 278.733995 158.994176 
L 281.418648 158.966421 
L 284.203942 159.633978 
L 293.349048 162.048547 
L 294.168937 160.890454 
L 299.250367 159.942635 
L 301.47015 157.473702 
L 305.075086 155.988724 
L 309.468033 159.276578 
L 312.927047 160.660885 
L 315.989176 161.733759 
L 318.854601 161.561511 
L 319.522638 163.306225 
L 319.795118 164.487131 
L 320.960923 161.890533 
L 320.989633 161.821141 
L 324.607979 159.979788 
L 328.363464 157.741835 
L 329.03872 154.99246 
L 335.112618 160.694326 
L 341.574821 222.853023 
" clip-path="url(#pe128b49b90)" style="fill: none; stroke-dasharray: 12.8,3.2,2,3.2; stroke-dashoffset: 0; stroke: #000000; stroke-width: 2"/>
   </g>
   <g id="patch_3">
    <path d="M 38.482813 249.96 
L 38.482813 28.2 
" style="fill: none; stroke: #000000; stroke-width: 0.8; stroke-linejoin: miter; stroke-linecap: square"/>
   </g>
   <g id="patch_4">
    <path d="M 342.846449 249.96 
L 342.846449 28.2 
" style="fill: none; stroke: #000000; stroke-width: 0.8; stroke-linejoin: miter; stroke-linecap: square"/>
   </g>
   <g id="patch_5">
    <path d="M 38.482813 249.96 
L 342.846449 249.96 
" style="fill: none; stroke: #000000; stroke-width: 0.8; stroke-linejoin: miter; stroke-linecap: square"/>
   </g>
   <g id="patch_6">
    <path d="M 38.482813 28.2 
L 342.846449 28.2 
" style="fill: none; stroke: #000000; stroke-width: 0.8; stroke-linejoin: miter; stroke-linecap: square"/>
   </g>
   <g id="text_14">
    <!-- $f_1(x)$ -->
    <g transform="translate(168.164631 22.2) scale(0.2 -0.2)">
     <defs>
      <path id="Cmmi10-66" d="M 622 -1056 
Q 741 -1147 909 -1147 
Q 1138 -1147 1281 -641 
Q 1341 -397 1606 966 
L 1900 2534 
L 1350 2534 
Q 1288 2534 1288 2619 
Q 1313 2759 1369 2759 
L 1941 2759 
L 2016 3175 
Q 2053 3369 2084 3508 
Q 2116 3647 2152 3765 
Q 2188 3884 2259 4031 
Q 2369 4241 2555 4377 
Q 2741 4513 2956 4513 
Q 3097 4513 3230 4461 
Q 3363 4409 3447 4306 
Q 3531 4203 3531 4063 
Q 3531 3900 3423 3779 
Q 3316 3659 3163 3659 
Q 3059 3659 2986 3723 
Q 2913 3788 2913 3891 
Q 2913 4031 3008 4136 
Q 3103 4241 3244 4256 
Q 3125 4347 2950 4347 
Q 2853 4347 2767 4256 
Q 2681 4166 2656 4063 
Q 2616 3900 2478 3181 
L 2400 2759 
L 3059 2759 
Q 3122 2759 3122 2675 
Q 3119 2659 3109 2620 
Q 3100 2581 3083 2557 
Q 3066 2534 3041 2534 
L 2356 2534 
L 2059 972 
Q 2003 631 1929 279 
Q 1856 -72 1723 -442 
Q 1591 -813 1384 -1063 
Q 1178 -1313 897 -1313 
Q 681 -1313 511 -1189 
Q 341 -1066 341 -863 
Q 341 -700 445 -579 
Q 550 -459 709 -459 
Q 816 -459 887 -523 
Q 959 -588 959 -691 
Q 959 -828 857 -942 
Q 756 -1056 622 -1056 
z
" transform="scale(0.015625)"/>
      <path id="Cmr10-31" d="M 594 0 
L 594 225 
Q 1394 225 1394 428 
L 1394 3788 
Q 1063 3628 556 3628 
L 556 3853 
Q 1341 3853 1741 4263 
L 1831 4263 
Q 1853 4263 1873 4245 
Q 1894 4228 1894 4206 
L 1894 428 
Q 1894 225 2694 225 
L 2694 0 
L 594 0 
z
" transform="scale(0.015625)"/>
      <path id="Cmr10-28" d="M 1984 -1588 
Q 1628 -1306 1370 -942 
Q 1113 -578 948 -165 
Q 784 247 703 697 
Q 622 1147 622 1600 
Q 622 2059 703 2509 
Q 784 2959 951 3375 
Q 1119 3791 1378 4153 
Q 1638 4516 1984 4788 
Q 1984 4800 2016 4800 
L 2075 4800 
Q 2094 4800 2109 4783 
Q 2125 4766 2125 4744 
Q 2125 4716 2113 4703 
Q 1800 4397 1592 4047 
Q 1384 3697 1257 3301 
Q 1131 2906 1075 2482 
Q 1019 2059 1019 1600 
Q 1019 -434 2106 -1491 
Q 2125 -1509 2125 -1544 
Q 2125 -1559 2108 -1579 
Q 2091 -1600 2075 -1600 
L 2016 -1600 
Q 1984 -1600 1984 -1588 
z
" transform="scale(0.015625)"/>
      <path id="Cmmi10-78" d="M 500 184 
Q 613 97 819 97 
Q 1019 97 1172 289 
Q 1325 481 1381 709 
L 1672 1844 
Q 1741 2153 1741 2266 
Q 1741 2425 1652 2544 
Q 1563 2663 1403 2663 
Q 1200 2663 1022 2536 
Q 844 2409 722 2214 
Q 600 2019 550 1819 
Q 538 1778 500 1778 
L 422 1778 
Q 372 1778 372 1838 
L 372 1856 
Q 434 2094 584 2320 
Q 734 2547 951 2687 
Q 1169 2828 1416 2828 
Q 1650 2828 1839 2703 
Q 2028 2578 2106 2363 
Q 2216 2559 2386 2693 
Q 2556 2828 2759 2828 
Q 2897 2828 3040 2779 
Q 3184 2731 3275 2631 
Q 3366 2531 3366 2381 
Q 3366 2219 3261 2101 
Q 3156 1984 2994 1984 
Q 2891 1984 2822 2050 
Q 2753 2116 2753 2216 
Q 2753 2350 2845 2451 
Q 2938 2553 3066 2572 
Q 2950 2663 2747 2663 
Q 2541 2663 2389 2472 
Q 2238 2281 2175 2047 
L 1894 916 
Q 1825 659 1825 494 
Q 1825 331 1917 214 
Q 2009 97 2163 97 
Q 2463 97 2698 361 
Q 2934 625 3009 941 
Q 3022 978 3059 978 
L 3138 978 
Q 3163 978 3178 961 
Q 3194 944 3194 922 
Q 3194 916 3188 903 
Q 3097 522 2806 225 
Q 2516 -72 2150 -72 
Q 1916 -72 1727 54 
Q 1538 181 1459 397 
Q 1359 209 1182 68 
Q 1006 -72 806 -72 
Q 669 -72 523 -23 
Q 378 25 287 125 
Q 197 225 197 378 
Q 197 528 301 651 
Q 406 775 563 775 
Q 669 775 741 711 
Q 813 647 813 544 
Q 813 409 723 309 
Q 634 209 500 184 
z
" transform="scale(0.015625)"/>
      <path id="Cmr10-29" d="M 416 -1600 
Q 359 -1600 359 -1544 
Q 359 -1516 372 -1503 
Q 1466 -434 1466 1600 
Q 1466 3634 384 4691 
Q 359 4706 359 4744 
Q 359 4766 376 4783 
Q 394 4800 416 4800 
L 475 4800 
Q 494 4800 506 4788 
Q 966 4425 1272 3906 
Q 1578 3388 1720 2800 
Q 1863 2213 1863 1600 
Q 1863 1147 1786 708 
Q 1709 269 1542 -157 
Q 1375 -584 1119 -945 
Q 863 -1306 506 -1588 
Q 494 -1600 475 -1600 
L 416 -1600 
z
" transform="scale(0.015625)"/>
     </defs>
     <use xlink:href="#Cmmi10-66"/>
     <use xlink:href="#Cmr10-31" transform="translate(48.876953 -17.00625) scale(0.7)"/>
     <use xlink:href="#Cmr10-28" transform="translate(90.254297 0)"/>
     <use xlink:href="#Cmmi10-78" transform="translate(129.072656 0)"/>
     <use xlink:href="#Cmr10-29" transform="translate(186.152734 0)"/>
    </g>
   </g>
   <g id="legend_1">
    <g id="patch_7">
     <path d="M 49.682813 111.455 
L 255.140313 111.455 
Q 258.340313 111.455 258.340313 108.255 
L 258.340313 39.4 
Q 258.340313 36.2 255.140313 36.2 
L 49.682813 36.2 
Q 46.482813 36.2 46.482813 39.4 
L 46.482813 108.255 
Q 46.482813 111.455 49.682813 111.455 
z
" style="fill: #ffffff; opacity: 0.8; stroke: #cccccc; stroke-linejoin: miter"/>
    </g>
    <g id="line2d_17">
     <path d="M 52.882813 49.1575 
L 68.882812 49.1575 
L 84.882812 49.1575 
" style="fill: none; stroke: #ff0000; stroke-width: 2; stroke-linecap: square"/>
    </g>
    <g id="text_15">
     <!-- coPINN (Proposed) -->
     <g transform="translate(97.682813 54.7575) scale(0.16 -0.16)">
      <defs>
       <path id="DejaVuSans-63" d="M 3122 3366 
L 3122 2828 
Q 2878 2963 2633 3030 
Q 2388 3097 2138 3097 
Q 1578 3097 1268 2742 
Q 959 2388 959 1747 
Q 959 1106 1268 751 
Q 1578 397 2138 397 
Q 2388 397 2633 464 
Q 2878 531 3122 666 
L 3122 134 
Q 2881 22 2623 -34 
Q 2366 -91 2075 -91 
Q 1284 -91 818 406 
Q 353 903 353 1747 
Q 353 2603 823 3093 
Q 1294 3584 2113 3584 
Q 2378 3584 2631 3529 
Q 2884 3475 3122 3366 
z
" transform="scale(0.015625)"/>
       <path id="DejaVuSans-6f" d="M 1959 3097 
Q 1497 3097 1228 2736 
Q 959 2375 959 1747 
Q 959 1119 1226 758 
Q 1494 397 1959 397 
Q 2419 397 2687 759 
Q 2956 1122 2956 1747 
Q 2956 2369 2687 2733 
Q 2419 3097 1959 3097 
z
M 1959 3584 
Q 2709 3584 3137 3096 
Q 3566 2609 3566 1747 
Q 3566 888 3137 398 
Q 2709 -91 1959 -91 
Q 1206 -91 779 398 
Q 353 888 353 1747 
Q 353 2609 779 3096 
Q 1206 3584 1959 3584 
z
" transform="scale(0.015625)"/>
       <path id="DejaVuSans-50" d="M 1259 4147 
L 1259 2394 
L 2053 2394 
Q 2494 2394 2734 2622 
Q 2975 2850 2975 3272 
Q 2975 3691 2734 3919 
Q 2494 4147 2053 4147 
L 1259 4147 
z
M 628 4666 
L 2053 4666 
Q 2838 4666 3239 4311 
Q 3641 3956 3641 3272 
Q 3641 2581 3239 2228 
Q 2838 1875 2053 1875 
L 1259 1875 
L 1259 0 
L 628 0 
L 628 4666 
z
" transform="scale(0.015625)"/>
       <path id="DejaVuSans-49" d="M 628 4666 
L 1259 4666 
L 1259 0 
L 628 0 
L 628 4666 
z
" transform="scale(0.015625)"/>
       <path id="DejaVuSans-4e" d="M 628 4666 
L 1478 4666 
L 3547 763 
L 3547 4666 
L 4159 4666 
L 4159 0 
L 3309 0 
L 1241 3903 
L 1241 0 
L 628 0 
L 628 4666 
z
" transform="scale(0.015625)"/>
       <path id="DejaVuSans-20" transform="scale(0.015625)"/>
       <path id="DejaVuSans-28" d="M 1984 4856 
Q 1566 4138 1362 3434 
Q 1159 2731 1159 2009 
Q 1159 1288 1364 580 
Q 1569 -128 1984 -844 
L 1484 -844 
Q 1016 -109 783 600 
Q 550 1309 550 2009 
Q 550 2706 781 3412 
Q 1013 4119 1484 4856 
L 1984 4856 
z
" transform="scale(0.015625)"/>
       <path id="DejaVuSans-72" d="M 2631 2963 
Q 2534 3019 2420 3045 
Q 2306 3072 2169 3072 
Q 1681 3072 1420 2755 
Q 1159 2438 1159 1844 
L 1159 0 
L 581 0 
L 581 3500 
L 1159 3500 
L 1159 2956 
Q 1341 3275 1631 3429 
Q 1922 3584 2338 3584 
Q 2397 3584 2469 3576 
Q 2541 3569 2628 3553 
L 2631 2963 
z
" transform="scale(0.015625)"/>
       <path id="DejaVuSans-70" d="M 1159 525 
L 1159 -1331 
L 581 -1331 
L 581 3500 
L 1159 3500 
L 1159 2969 
Q 1341 3281 1617 3432 
Q 1894 3584 2278 3584 
Q 2916 3584 3314 3078 
Q 3713 2572 3713 1747 
Q 3713 922 3314 415 
Q 2916 -91 2278 -91 
Q 1894 -91 1617 61 
Q 1341 213 1159 525 
z
M 3116 1747 
Q 3116 2381 2855 2742 
Q 2594 3103 2138 3103 
Q 1681 3103 1420 2742 
Q 1159 2381 1159 1747 
Q 1159 1113 1420 752 
Q 1681 391 2138 391 
Q 2594 391 2855 752 
Q 3116 1113 3116 1747 
z
" transform="scale(0.015625)"/>
       <path id="DejaVuSans-73" d="M 2834 3397 
L 2834 2853 
Q 2591 2978 2328 3040 
Q 2066 3103 1784 3103 
Q 1356 3103 1142 2972 
Q 928 2841 928 2578 
Q 928 2378 1081 2264 
Q 1234 2150 1697 2047 
L 1894 2003 
Q 2506 1872 2764 1633 
Q 3022 1394 3022 966 
Q 3022 478 2636 193 
Q 2250 -91 1575 -91 
Q 1294 -91 989 -36 
Q 684 19 347 128 
L 347 722 
Q 666 556 975 473 
Q 1284 391 1588 391 
Q 1994 391 2212 530 
Q 2431 669 2431 922 
Q 2431 1156 2273 1281 
Q 2116 1406 1581 1522 
L 1381 1569 
Q 847 1681 609 1914 
Q 372 2147 372 2553 
Q 372 3047 722 3315 
Q 1072 3584 1716 3584 
Q 2034 3584 2315 3537 
Q 2597 3491 2834 3397 
z
" transform="scale(0.015625)"/>
       <path id="DejaVuSans-65" d="M 3597 1894 
L 3597 1613 
L 953 1613 
Q 991 1019 1311 708 
Q 1631 397 2203 397 
Q 2534 397 2845 478 
Q 3156 559 3463 722 
L 3463 178 
Q 3153 47 2828 -22 
Q 2503 -91 2169 -91 
Q 1331 -91 842 396 
Q 353 884 353 1716 
Q 353 2575 817 3079 
Q 1281 3584 2069 3584 
Q 2775 3584 3186 3129 
Q 3597 2675 3597 1894 
z
M 3022 2063 
Q 3016 2534 2758 2815 
Q 2500 3097 2075 3097 
Q 1594 3097 1305 2825 
Q 1016 2553 972 2059 
L 3022 2063 
z
" transform="scale(0.015625)"/>
       <path id="DejaVuSans-64" d="M 2906 2969 
L 2906 4863 
L 3481 4863 
L 3481 0 
L 2906 0 
L 2906 525 
Q 2725 213 2448 61 
Q 2172 -91 1784 -91 
Q 1150 -91 751 415 
Q 353 922 353 1747 
Q 353 2572 751 3078 
Q 1150 3584 1784 3584 
Q 2172 3584 2448 3432 
Q 2725 3281 2906 2969 
z
M 947 1747 
Q 947 1113 1208 752 
Q 1469 391 1925 391 
Q 2381 391 2643 752 
Q 2906 1113 2906 1747 
Q 2906 2381 2643 2742 
Q 2381 3103 1925 3103 
Q 1469 3103 1208 2742 
Q 947 2381 947 1747 
z
" transform="scale(0.015625)"/>
       <path id="DejaVuSans-29" d="M 513 4856 
L 1013 4856 
Q 1481 4119 1714 3412 
Q 1947 2706 1947 2009 
Q 1947 1309 1714 600 
Q 1481 -109 1013 -844 
L 513 -844 
Q 928 -128 1133 580 
Q 1338 1288 1338 2009 
Q 1338 2731 1133 3434 
Q 928 4138 513 4856 
z
" transform="scale(0.015625)"/>
      </defs>
      <use xlink:href="#DejaVuSans-63"/>
      <use xlink:href="#DejaVuSans-6f" x="54.980469"/>
      <use xlink:href="#DejaVuSans-50" x="116.162109"/>
      <use xlink:href="#DejaVuSans-49" x="176.464844"/>
      <use xlink:href="#DejaVuSans-4e" x="205.957031"/>
      <use xlink:href="#DejaVuSans-4e" x="280.761719"/>
      <use xlink:href="#DejaVuSans-20" x="355.566406"/>
      <use xlink:href="#DejaVuSans-28" x="387.353516"/>
      <use xlink:href="#DejaVuSans-50" x="426.367188"/>
      <use xlink:href="#DejaVuSans-72" x="484.919922"/>
      <use xlink:href="#DejaVuSans-6f" x="523.783203"/>
      <use xlink:href="#DejaVuSans-70" x="584.964844"/>
      <use xlink:href="#DejaVuSans-6f" x="648.441406"/>
      <use xlink:href="#DejaVuSans-73" x="709.623047"/>
      <use xlink:href="#DejaVuSans-65" x="761.722656"/>
      <use xlink:href="#DejaVuSans-64" x="823.246094"/>
      <use xlink:href="#DejaVuSans-29" x="886.722656"/>
     </g>
    </g>
    <g id="line2d_18">
     <path d="M 52.882813 72.6425 
L 68.882812 72.6425 
L 84.882812 72.6425 
" style="fill: none; stroke-dasharray: 7.4,3.2; stroke-dashoffset: 0; stroke: #0000ff; stroke-width: 2"/>
    </g>
    <g id="text_16">
     <!-- FVM (Coarse Mesh) -->
     <g transform="translate(97.682813 78.2425) scale(0.16 -0.16)">
      <defs>
       <path id="DejaVuSans-46" d="M 628 4666 
L 3309 4666 
L 3309 4134 
L 1259 4134 
L 1259 2759 
L 3109 2759 
L 3109 2228 
L 1259 2228 
L 1259 0 
L 628 0 
L 628 4666 
z
" transform="scale(0.015625)"/>
       <path id="DejaVuSans-56" d="M 1831 0 
L 50 4666 
L 709 4666 
L 2188 738 
L 3669 4666 
L 4325 4666 
L 2547 0 
L 1831 0 
z
" transform="scale(0.015625)"/>
       <path id="DejaVuSans-4d" d="M 628 4666 
L 1569 4666 
L 2759 1491 
L 3956 4666 
L 4897 4666 
L 4897 0 
L 4281 0 
L 4281 4097 
L 3078 897 
L 2444 897 
L 1241 4097 
L 1241 0 
L 628 0 
L 628 4666 
z
" transform="scale(0.015625)"/>
       <path id="DejaVuSans-43" d="M 4122 4306 
L 4122 3641 
Q 3803 3938 3442 4084 
Q 3081 4231 2675 4231 
Q 1875 4231 1450 3742 
Q 1025 3253 1025 2328 
Q 1025 1406 1450 917 
Q 1875 428 2675 428 
Q 3081 428 3442 575 
Q 3803 722 4122 1019 
L 4122 359 
Q 3791 134 3420 21 
Q 3050 -91 2638 -91 
Q 1578 -91 968 557 
Q 359 1206 359 2328 
Q 359 3453 968 4101 
Q 1578 4750 2638 4750 
Q 3056 4750 3426 4639 
Q 3797 4528 4122 4306 
z
" transform="scale(0.015625)"/>
       <path id="DejaVuSans-61" d="M 2194 1759 
Q 1497 1759 1228 1600 
Q 959 1441 959 1056 
Q 959 750 1161 570 
Q 1363 391 1709 391 
Q 2188 391 2477 730 
Q 2766 1069 2766 1631 
L 2766 1759 
L 2194 1759 
z
M 3341 1997 
L 3341 0 
L 2766 0 
L 2766 531 
Q 2569 213 2275 61 
Q 1981 -91 1556 -91 
Q 1019 -91 701 211 
Q 384 513 384 1019 
Q 384 1609 779 1909 
Q 1175 2209 1959 2209 
L 2766 2209 
L 2766 2266 
Q 2766 2663 2505 2880 
Q 2244 3097 1772 3097 
Q 1472 3097 1187 3025 
Q 903 2953 641 2809 
L 641 3341 
Q 956 3463 1253 3523 
Q 1550 3584 1831 3584 
Q 2591 3584 2966 3190 
Q 3341 2797 3341 1997 
z
" transform="scale(0.015625)"/>
       <path id="DejaVuSans-68" d="M 3513 2113 
L 3513 0 
L 2938 0 
L 2938 2094 
Q 2938 2591 2744 2837 
Q 2550 3084 2163 3084 
Q 1697 3084 1428 2787 
Q 1159 2491 1159 1978 
L 1159 0 
L 581 0 
L 581 4863 
L 1159 4863 
L 1159 2956 
Q 1366 3272 1645 3428 
Q 1925 3584 2291 3584 
Q 2894 3584 3203 3211 
Q 3513 2838 3513 2113 
z
" transform="scale(0.015625)"/>
      </defs>
      <use xlink:href="#DejaVuSans-46"/>
      <use xlink:href="#DejaVuSans-56" x="57.519531"/>
      <use xlink:href="#DejaVuSans-4d" x="125.927734"/>
      <use xlink:href="#DejaVuSans-20" x="212.207031"/>
      <use xlink:href="#DejaVuSans-28" x="243.994141"/>
      <use xlink:href="#DejaVuSans-43" x="283.007812"/>
      <use xlink:href="#DejaVuSans-6f" x="352.832031"/>
      <use xlink:href="#DejaVuSans-61" x="414.013672"/>
      <use xlink:href="#DejaVuSans-72" x="475.292969"/>
      <use xlink:href="#DejaVuSans-73" x="516.40625"/>
      <use xlink:href="#DejaVuSans-65" x="568.505859"/>
      <use xlink:href="#DejaVuSans-20" x="630.029297"/>
      <use xlink:href="#DejaVuSans-4d" x="661.816406"/>
      <use xlink:href="#DejaVuSans-65" x="748.095703"/>
      <use xlink:href="#DejaVuSans-73" x="809.619141"/>
      <use xlink:href="#DejaVuSans-68" x="861.71875"/>
      <use xlink:href="#DejaVuSans-29" x="925.097656"/>
     </g>
    </g>
    <g id="line2d_19">
     <path d="M 52.882813 96.1275 
L 68.882812 96.1275 
L 84.882812 96.1275 
" style="fill: none; stroke-dasharray: 12.8,3.2,2,3.2; stroke-dashoffset: 0; stroke: #000000; stroke-width: 2"/>
    </g>
    <g id="text_17">
     <!-- FVM (Fine Mesh) -->
     <g transform="translate(97.682813 101.7275) scale(0.16 -0.16)">
      <defs>
       <path id="DejaVuSans-69" d="M 603 3500 
L 1178 3500 
L 1178 0 
L 603 0 
L 603 3500 
z
M 603 4863 
L 1178 4863 
L 1178 4134 
L 603 4134 
L 603 4863 
z
" transform="scale(0.015625)"/>
       <path id="DejaVuSans-6e" d="M 3513 2113 
L 3513 0 
L 2938 0 
L 2938 2094 
Q 2938 2591 2744 2837 
Q 2550 3084 2163 3084 
Q 1697 3084 1428 2787 
Q 1159 2491 1159 1978 
L 1159 0 
L 581 0 
L 581 3500 
L 1159 3500 
L 1159 2956 
Q 1366 3272 1645 3428 
Q 1925 3584 2291 3584 
Q 2894 3584 3203 3211 
Q 3513 2838 3513 2113 
z
" transform="scale(0.015625)"/>
      </defs>
      <use xlink:href="#DejaVuSans-46"/>
      <use xlink:href="#DejaVuSans-56" x="57.519531"/>
      <use xlink:href="#DejaVuSans-4d" x="125.927734"/>
      <use xlink:href="#DejaVuSans-20" x="212.207031"/>
      <use xlink:href="#DejaVuSans-28" x="243.994141"/>
      <use xlink:href="#DejaVuSans-46" x="283.007812"/>
      <use xlink:href="#DejaVuSans-69" x="333.277344"/>
      <use xlink:href="#DejaVuSans-6e" x="361.060547"/>
      <use xlink:href="#DejaVuSans-65" x="424.439453"/>
      <use xlink:href="#DejaVuSans-20" x="485.962891"/>
      <use xlink:href="#DejaVuSans-4d" x="517.75"/>
      <use xlink:href="#DejaVuSans-65" x="604.029297"/>
      <use xlink:href="#DejaVuSans-73" x="665.552734"/>
      <use xlink:href="#DejaVuSans-68" x="717.652344"/>
      <use xlink:href="#DejaVuSans-29" x="781.03125"/>
     </g>
    </g>
   </g>
  </g>
  <g id="axes_2">
   <g id="patch_8">
    <path d="M 403.719176 249.96 
L 708.082812 249.96 
L 708.082812 28.2 
L 403.719176 28.2 
L 403.719176 249.96 
z
" style="fill: none"/>
   </g>
   <g id="matplotlib.axis_3">
    <g id="xtick_7">
     <g id="line2d_20">
      <g>
       <use xlink:href="#md12eca216c" x="403.719176" y="249.96" style="stroke: #000000; stroke-width: 0.8"/>
      </g>
     </g>
     <g id="text_18">
      <!-- 0.0 -->
      <g transform="translate(395.767614 264.558437) scale(0.1 -0.1)">
       <use xlink:href="#DejaVuSans-30"/>
       <use xlink:href="#DejaVuSans-2e" x="63.623047"/>
       <use xlink:href="#DejaVuSans-30" x="95.410156"/>
      </g>
     </g>
    </g>
    <g id="xtick_8">
     <g id="line2d_21">
      <g>
       <use xlink:href="#md12eca216c" x="464.591903" y="249.96" style="stroke: #000000; stroke-width: 0.8"/>
      </g>
     </g>
     <g id="text_19">
      <!-- 0.2 -->
      <g transform="translate(456.640341 264.558437) scale(0.1 -0.1)">
       <use xlink:href="#DejaVuSans-30"/>
       <use xlink:href="#DejaVuSans-2e" x="63.623047"/>
       <use xlink:href="#DejaVuSans-32" x="95.410156"/>
      </g>
     </g>
    </g>
    <g id="xtick_9">
     <g id="line2d_22">
      <g>
       <use xlink:href="#md12eca216c" x="525.464631" y="249.96" style="stroke: #000000; stroke-width: 0.8"/>
      </g>
     </g>
     <g id="text_20">
      <!-- 0.4 -->
      <g transform="translate(517.513068 264.558437) scale(0.1 -0.1)">
       <use xlink:href="#DejaVuSans-30"/>
       <use xlink:href="#DejaVuSans-2e" x="63.623047"/>
       <use xlink:href="#DejaVuSans-34" x="95.410156"/>
      </g>
     </g>
    </g>
    <g id="xtick_10">
     <g id="line2d_23">
      <g>
       <use xlink:href="#md12eca216c" x="586.337358" y="249.96" style="stroke: #000000; stroke-width: 0.8"/>
      </g>
     </g>
     <g id="text_21">
      <!-- 0.6 -->
      <g transform="translate(578.385795 264.558437) scale(0.1 -0.1)">
       <use xlink:href="#DejaVuSans-30"/>
       <use xlink:href="#DejaVuSans-2e" x="63.623047"/>
       <use xlink:href="#DejaVuSans-36" x="95.410156"/>
      </g>
     </g>
    </g>
    <g id="xtick_11">
     <g id="line2d_24">
      <g>
       <use xlink:href="#md12eca216c" x="647.210085" y="249.96" style="stroke: #000000; stroke-width: 0.8"/>
      </g>
     </g>
     <g id="text_22">
      <!-- 0.8 -->
      <g transform="translate(639.258523 264.558437) scale(0.1 -0.1)">
       <use xlink:href="#DejaVuSans-30"/>
       <use xlink:href="#DejaVuSans-2e" x="63.623047"/>
       <use xlink:href="#DejaVuSans-38" x="95.410156"/>
      </g>
     </g>
    </g>
    <g id="xtick_12">
     <g id="line2d_25">
      <g>
       <use xlink:href="#md12eca216c" x="708.082812" y="249.96" style="stroke: #000000; stroke-width: 0.8"/>
      </g>
     </g>
     <g id="text_23">
      <!-- 1.0 -->
      <g transform="translate(700.13125 264.558437) scale(0.1 -0.1)">
       <use xlink:href="#DejaVuSans-31"/>
       <use xlink:href="#DejaVuSans-2e" x="63.623047"/>
       <use xlink:href="#DejaVuSans-30" x="95.410156"/>
      </g>
     </g>
    </g>
   </g>
   <g id="matplotlib.axis_4">
    <g id="ytick_8">
     <g id="line2d_26">
      <g>
       <use xlink:href="#m9d0b8875c7" x="403.719176" y="234.525713" style="stroke: #000000; stroke-width: 0.8"/>
      </g>
     </g>
     <g id="text_24">
      <!-- −5 -->
      <g transform="translate(381.976989 238.324931) scale(0.1 -0.1)">
       <use xlink:href="#DejaVuSans-2212"/>
       <use xlink:href="#DejaVuSans-35" x="83.789062"/>
      </g>
     </g>
    </g>
    <g id="ytick_9">
     <g id="line2d_27">
      <g>
       <use xlink:href="#m9d0b8875c7" x="403.719176" y="198.232531" style="stroke: #000000; stroke-width: 0.8"/>
      </g>
     </g>
     <g id="text_25">
      <!-- −4 -->
      <g transform="translate(381.976989 202.03175) scale(0.1 -0.1)">
       <use xlink:href="#DejaVuSans-2212"/>
       <use xlink:href="#DejaVuSans-34" x="83.789062"/>
      </g>
     </g>
    </g>
    <g id="ytick_10">
     <g id="line2d_28">
      <g>
       <use xlink:href="#m9d0b8875c7" x="403.719176" y="161.93935" style="stroke: #000000; stroke-width: 0.8"/>
      </g>
     </g>
     <g id="text_26">
      <!-- −3 -->
      <g transform="translate(381.976989 165.738569) scale(0.1 -0.1)">
       <defs>
        <path id="DejaVuSans-33" d="M 2597 2516 
Q 3050 2419 3304 2112 
Q 3559 1806 3559 1356 
Q 3559 666 3084 287 
Q 2609 -91 1734 -91 
Q 1441 -91 1130 -33 
Q 819 25 488 141 
L 488 750 
Q 750 597 1062 519 
Q 1375 441 1716 441 
Q 2309 441 2620 675 
Q 2931 909 2931 1356 
Q 2931 1769 2642 2001 
Q 2353 2234 1838 2234 
L 1294 2234 
L 1294 2753 
L 1863 2753 
Q 2328 2753 2575 2939 
Q 2822 3125 2822 3475 
Q 2822 3834 2567 4026 
Q 2313 4219 1838 4219 
Q 1578 4219 1281 4162 
Q 984 4106 628 3988 
L 628 4550 
Q 988 4650 1302 4700 
Q 1616 4750 1894 4750 
Q 2613 4750 3031 4423 
Q 3450 4097 3450 3541 
Q 3450 3153 3228 2886 
Q 3006 2619 2597 2516 
z
" transform="scale(0.015625)"/>
       </defs>
       <use xlink:href="#DejaVuSans-2212"/>
       <use xlink:href="#DejaVuSans-33" x="83.789062"/>
      </g>
     </g>
    </g>
    <g id="ytick_11">
     <g id="line2d_29">
      <g>
       <use xlink:href="#m9d0b8875c7" x="403.719176" y="125.646168" style="stroke: #000000; stroke-width: 0.8"/>
      </g>
     </g>
     <g id="text_27">
      <!-- −2 -->
      <g transform="translate(381.976989 129.445387) scale(0.1 -0.1)">
       <use xlink:href="#DejaVuSans-2212"/>
       <use xlink:href="#DejaVuSans-32" x="83.789062"/>
      </g>
     </g>
    </g>
    <g id="ytick_12">
     <g id="line2d_30">
      <g>
       <use xlink:href="#m9d0b8875c7" x="403.719176" y="89.352987" style="stroke: #000000; stroke-width: 0.8"/>
      </g>
     </g>
     <g id="text_28">
      <!-- −1 -->
      <g transform="translate(381.976989 93.152206) scale(0.1 -0.1)">
       <use xlink:href="#DejaVuSans-2212"/>
       <use xlink:href="#DejaVuSans-31" x="83.789062"/>
      </g>
     </g>
    </g>
    <g id="ytick_13">
     <g id="line2d_31">
      <g>
       <use xlink:href="#m9d0b8875c7" x="403.719176" y="53.059805" style="stroke: #000000; stroke-width: 0.8"/>
      </g>
     </g>
     <g id="text_29">
      <!-- 0 -->
      <g transform="translate(390.356676 56.859024) scale(0.1 -0.1)">
       <use xlink:href="#DejaVuSans-30"/>
      </g>
     </g>
    </g>
   </g>
   <g id="line2d_32">
    <path d="M 405.551371 48.313345 
L 406.26783 51.047177 
L 410.438612 53.573712 
L 411.581005 48.873038 
L 417.493969 59.168336 
L 421.496935 48.749619 
L 422.963921 46.126729 
L 427.371797 59.772368 
L 428.882841 60.346319 
L 431.183375 49.671296 
L 433.024527 46.37262 
L 433.536987 46.510088 
L 437.253716 59.541619 
L 439.885685 55.408598 
L 440.114363 54.3315 
L 440.943961 50.900174 
L 444.512934 48.010591 
L 446.292445 54.066976 
L 451.042101 51.82303 
L 451.319259 50.827145 
L 451.940804 48.959475 
L 456.086272 51.478508 
L 456.606095 53.487022 
L 457.765237 58.82853 
L 460.864984 55.535846 
L 463.171145 48.087578 
L 466.212701 49.093555 
L 470.993648 60.980906 
L 471.08872 60.530671 
L 476.324917 47.050994 
L 482.86768 62.632918 
L 489.930049 47.576904 
L 490.450968 48.223512 
L 501.266891 48.49411 
L 502.153635 47.446521 
L 503.392014 47.019185 
L 508.125968 55.632495 
L 519.150722 47.027858 
L 520.826397 48.806227 
L 521.032025 49.159921 
L 522.121102 51.473963 
L 522.979751 53.770193 
L 527.232508 61.396504 
L 537.169458 49.864935 
L 542.258674 64.69993 
L 542.732436 63.104092 
L 544.819954 56.461316 
L 552.300345 46.70484 
L 555.887783 51.378246 
L 558.562864 57.544399 
L 560.350071 62.304235 
L 565.890335 52.336095 
L 566.962464 50.295249 
L 572.316478 46.092214 
L 573.676341 46.799013 
L 573.692786 46.811787 
L 574.028291 47.098183 
L 581.342564 61.431652 
L 583.775357 60.22876 
L 585.915629 55.128544 
L 588.113842 50.81486 
L 589.366474 48.900211 
L 593.499423 45.743876 
L 601.103561 51.194424 
L 601.461444 51.716865 
L 604.931341 57.532127 
L 608.944615 62.475544 
L 609.362147 61.676737 
L 611.080569 58.4512 
L 617.568695 48.811109 
L 617.966795 48.421516 
L 623.849452 46.036781 
L 626.000356 46.647266 
L 626.965482 47.133359 
L 628.559184 48.181175 
L 634.93228 54.495619 
L 635.86396 55.606813 
L 636.72196 56.660189 
L 638.467934 58.879537 
L 643.970358 64.217787 
L 646.655012 60.989892 
L 649.440305 57.875399 
L 658.585412 51.069763 
L 659.405301 50.745372 
L 664.486731 49.528077 
L 666.706514 49.329997 
L 670.311449 49.335987 
L 674.704397 49.841252 
L 678.163411 50.581323 
L 681.225539 51.390172 
L 684.090965 52.156224 
L 684.759001 52.323964 
L 685.031482 52.390808 
L 686.197286 52.664216 
L 686.225996 52.67034 
L 689.844343 53.369089 
L 693.599828 53.884092 
L 694.275083 53.959701 
L 700.348981 54.463921 
L 706.811184 54.304319 
" clip-path="url(#p2ecbfc1520)" style="fill: none; stroke: #ff0000; stroke-width: 2; stroke-linecap: square"/>
   </g>
   <g id="line2d_33">
    <path d="M 403.7633 43.442732 
L 405.343529 45.44287 
L 410.619727 51.070066 
L 411.052374 49.069667 
L 411.124446 48.756817 
L 411.45449 47.406218 
L 416.216572 47.297737 
L 418.214541 56.814277 
L 419.564212 56.212479 
L 420.043645 53.603314 
L 420.852242 49.561091 
L 422.051045 44.839407 
L 425.2545 43.002927 
L 428.464701 55.910785 
L 429.761525 55.798851 
L 429.985397 54.587233 
L 431.135232 48.826743 
L 435.216216 41.302406 
L 438.413839 51.988438 
L 444.37185 40.333484 
L 445.797603 40.122733 
L 462.454234 63.563758 
L 463.140883 60.713346 
L 470.628783 51.576783 
L 472.693392 58.28168 
L 474.431465 65.709055 
L 476.105626 67.378811 
L 477.445892 62.926582 
L 485.961033 55.546284 
L 488.162536 60.576047 
L 488.804005 62.357896 
L 490.386896 67.064781 
L 495.435711 53.408023 
L 499.773757 47.38608 
L 502.139189 48.618781 
L 508.019583 62.441177 
L 508.309457 62.052418 
L 512.79375 47.357585 
L 515.781057 42.591657 
L 518.129406 43.032361 
L 522.351998 52.188162 
L 522.560235 52.829346 
L 523.962097 57.339136 
L 526.562802 50.191133 
L 527.043764 48.582081 
L 534.7415 38.998881 
L 536.276967 41.013849 
L 538.596741 45.710066 
L 550.834539 40.373844 
L 557.233472 42.877199 
L 562.989466 52.158088 
L 567.601415 61.969452 
L 568.639389 61.818313 
L 574.187005 52.981731 
L 576.149763 50.336268 
L 577.245459 49.109663 
L 584.505704 46.780788 
L 588.254874 49.826372 
L 590.855874 53.415409 
L 590.910495 53.501524 
L 591.895527 55.11921 
L 594.000896 58.919146 
L 595.220316 61.271298 
L 601.766972 57.1623 
L 602.025066 56.622207 
L 602.10859 56.448888 
L 605.055798 50.871561 
L 605.112913 50.77512 
L 605.855008 49.567088 
L 608.168561 46.372895 
L 609.893698 44.593646 
L 612.626247 42.868034 
L 615.816287 42.491893 
L 618.333667 43.301445 
L 626.20682 49.973614 
L 631.386743 51.092873 
L 631.944021 50.078823 
L 634.95451 48.223855 
L 640.455279 46.41176 
L 646.619422 46.981721 
L 655.89666 52.211862 
L 657.368451 53.376021 
L 661.083288 56.550579 
L 668.188535 59.411716 
L 671.921664 60.48145 
L 672.485269 60.637357 
L 676.26876 61.628678 
L 677.542859 61.937934 
L 679.376727 62.359437 
L 679.395987 62.363714 
L 679.431542 62.3716 
L 683.501237 63.203902 
L 686.944817 63.803685 
L 687.602145 63.908151 
L 690.041084 64.270405 
L 690.673434 64.358265 
L 692.768671 64.633562 
L 692.866122 64.645818 
L 698.666675 65.308559 
L 698.806567 65.32332 
" clip-path="url(#p2ecbfc1520)" style="fill: none; stroke-dasharray: 7.4,3.2; stroke-dashoffset: 0; stroke: #0000ff; stroke-width: 2"/>
   </g>
   <g id="line2d_34">
    <path d="M 405.551371 75.13986 
L 406.26783 67.63027 
L 410.438612 52.272094 
L 411.581005 54.529252 
L 417.493969 53.077554 
L 421.496935 52.963141 
L 422.963921 52.887947 
L 427.371797 52.97429 
L 428.882841 52.952557 
L 431.183375 52.981882 
L 433.024527 52.817937 
L 433.536987 52.925244 
L 437.253716 52.998119 
L 439.885685 52.990423 
L 440.114363 52.9907 
L 440.943961 52.909203 
L 444.512934 52.799759 
L 446.292445 53.001251 
L 451.042101 52.831462 
L 451.319259 52.890313 
L 451.940804 52.975973 
L 456.086272 53.051079 
L 456.606095 53.05447 
L 457.765237 53.058182 
L 460.864984 53.09949 
L 463.171145 53.168117 
L 466.212701 53.348731 
L 470.993648 53.248458 
L 471.08872 53.264339 
L 476.324917 53.340856 
L 482.86768 53.374005 
L 489.930049 53.822872 
L 490.450968 54.391422 
L 501.266891 53.123316 
L 502.153635 53.120451 
L 503.392014 53.092896 
L 508.125968 52.425182 
L 519.150722 52.337445 
L 520.826397 50.386889 
L 521.032025 50.546282 
L 522.121102 52.275987 
L 522.979751 52.111478 
L 527.232508 51.344486 
L 537.169458 53.347116 
L 542.258674 56.142009 
L 542.732436 54.916937 
L 544.819954 55.598914 
L 552.300345 54.461375 
L 555.887783 53.616909 
L 558.562864 53.358125 
L 560.350071 52.394734 
L 565.890335 50.853927 
L 566.962464 50.093779 
L 572.316478 48.827538 
L 573.676341 51.182513 
L 573.692786 51.21506 
L 574.028291 51.666821 
L 581.342564 53.435512 
L 583.775357 54.110785 
L 585.915629 54.274743 
L 588.113842 57.788366 
L 589.366474 54.733892 
L 593.499423 57.476437 
L 601.103561 53.124727 
L 601.461444 52.803099 
L 604.931341 51.210243 
L 608.944615 45.868052 
L 609.362147 45.698438 
L 611.080569 50.573569 
L 617.568695 53.042449 
L 617.966795 53.118855 
L 623.849452 58.578462 
L 626.000356 55.63186 
L 626.965482 59.702944 
L 628.559184 56.098514 
L 634.93228 52.83888 
L 635.86396 50.695031 
L 636.72196 48.691918 
L 638.467934 50.19793 
L 643.970358 50.168289 
L 646.655012 50.085834 
L 649.440305 52.06901 
L 658.585412 59.242208 
L 659.405301 55.801747 
L 664.486731 52.98597 
L 666.706514 45.651269 
L 670.311449 41.2397 
L 674.704397 51.007248 
L 678.163411 55.119744 
L 681.225539 58.307037 
L 684.090965 57.795321 
L 684.759001 62.978513 
L 685.031482 66.486747 
L 686.197286 58.772779 
L 686.225996 58.566631 
L 689.844343 53.096342 
L 693.599828 46.447839 
L 694.275083 38.28 
L 700.348981 55.219091 
L 706.811184 239.88 
" clip-path="url(#p2ecbfc1520)" style="fill: none; stroke-dasharray: 12.8,3.2,2,3.2; stroke-dashoffset: 0; stroke: #000000; stroke-width: 2"/>
   </g>
   <g id="patch_9">
    <path d="M 403.719176 249.96 
L 403.719176 28.2 
" style="fill: none; stroke: #000000; stroke-width: 0.8; stroke-linejoin: miter; stroke-linecap: square"/>
   </g>
   <g id="patch_10">
    <path d="M 708.082812 249.96 
L 708.082812 28.2 
" style="fill: none; stroke: #000000; stroke-width: 0.8; stroke-linejoin: miter; stroke-linecap: square"/>
   </g>
   <g id="patch_11">
    <path d="M 403.719176 249.96 
L 708.082812 249.96 
" style="fill: none; stroke: #000000; stroke-width: 0.8; stroke-linejoin: miter; stroke-linecap: square"/>
   </g>
   <g id="patch_12">
    <path d="M 403.719176 28.2 
L 708.082812 28.2 
" style="fill: none; stroke: #000000; stroke-width: 0.8; stroke-linejoin: miter; stroke-linecap: square"/>
   </g>
   <g id="text_30">
    <!-- $f_2(x)$ -->
    <g transform="translate(533.400994 22.2) scale(0.2 -0.2)">
     <defs>
      <path id="Cmr10-32" d="M 319 0 
L 319 172 
Q 319 188 331 206 
L 1325 1306 
Q 1550 1550 1690 1715 
Q 1831 1881 1968 2097 
Q 2106 2313 2186 2536 
Q 2266 2759 2266 3009 
Q 2266 3272 2169 3511 
Q 2072 3750 1880 3894 
Q 1688 4038 1416 4038 
Q 1138 4038 916 3870 
Q 694 3703 603 3438 
Q 628 3444 672 3444 
Q 816 3444 917 3347 
Q 1019 3250 1019 3097 
Q 1019 2950 917 2848 
Q 816 2747 672 2747 
Q 522 2747 420 2851 
Q 319 2956 319 3097 
Q 319 3338 409 3548 
Q 500 3759 670 3923 
Q 841 4088 1055 4175 
Q 1269 4263 1509 4263 
Q 1875 4263 2190 4108 
Q 2506 3953 2690 3670 
Q 2875 3388 2875 3009 
Q 2875 2731 2753 2481 
Q 2631 2231 2440 2026 
Q 2250 1822 1953 1562 
Q 1656 1303 1563 1216 
L 838 519 
L 1453 519 
Q 1906 519 2211 526 
Q 2516 534 2534 550 
Q 2609 631 2688 1141 
L 2875 1141 
L 2694 0 
L 319 0 
z
" transform="scale(0.015625)"/>
     </defs>
     <use xlink:href="#Cmmi10-66"/>
     <use xlink:href="#Cmr10-32" transform="translate(48.876953 -17.00625) scale(0.7)"/>
     <use xlink:href="#Cmr10-28" transform="translate(90.254297 0)"/>
     <use xlink:href="#Cmmi10-78" transform="translate(129.072656 0)"/>
     <use xlink:href="#Cmr10-29" transform="translate(186.152734 0)"/>
    </g>
   </g>
   <g id="legend_2">
    <g id="patch_13">
     <path d="M 414.919176 241.96 
L 620.376676 241.96 
Q 623.576676 241.96 623.576676 238.76 
L 623.576676 169.905 
Q 623.576676 166.705 620.376676 166.705 
L 414.919176 166.705 
Q 411.719176 166.705 411.719176 169.905 
L 411.719176 238.76 
Q 411.719176 241.96 414.919176 241.96 
z
" style="fill: #ffffff; opacity: 0.8; stroke: #cccccc; stroke-linejoin: miter"/>
    </g>
    <g id="line2d_35">
     <path d="M 418.119176 179.6625 
L 434.119176 179.6625 
L 450.119176 179.6625 
" style="fill: none; stroke: #ff0000; stroke-width: 2; stroke-linecap: square"/>
    </g>
    <g id="text_31">
     <!-- coPINN (Proposed) -->
     <g transform="translate(462.919176 185.2625) scale(0.16 -0.16)">
      <use xlink:href="#DejaVuSans-63"/>
      <use xlink:href="#DejaVuSans-6f" x="54.980469"/>
      <use xlink:href="#DejaVuSans-50" x="116.162109"/>
      <use xlink:href="#DejaVuSans-49" x="176.464844"/>
      <use xlink:href="#DejaVuSans-4e" x="205.957031"/>
      <use xlink:href="#DejaVuSans-4e" x="280.761719"/>
      <use xlink:href="#DejaVuSans-20" x="355.566406"/>
      <use xlink:href="#DejaVuSans-28" x="387.353516"/>
      <use xlink:href="#DejaVuSans-50" x="426.367188"/>
      <use xlink:href="#DejaVuSans-72" x="484.919922"/>
      <use xlink:href="#DejaVuSans-6f" x="523.783203"/>
      <use xlink:href="#DejaVuSans-70" x="584.964844"/>
      <use xlink:href="#DejaVuSans-6f" x="648.441406"/>
      <use xlink:href="#DejaVuSans-73" x="709.623047"/>
      <use xlink:href="#DejaVuSans-65" x="761.722656"/>
      <use xlink:href="#DejaVuSans-64" x="823.246094"/>
      <use xlink:href="#DejaVuSans-29" x="886.722656"/>
     </g>
    </g>
    <g id="line2d_36">
     <path d="M 418.119176 203.1475 
L 434.119176 203.1475 
L 450.119176 203.1475 
" style="fill: none; stroke-dasharray: 7.4,3.2; stroke-dashoffset: 0; stroke: #0000ff; stroke-width: 2"/>
    </g>
    <g id="text_32">
     <!-- FVM (Coarse Mesh) -->
     <g transform="translate(462.919176 208.7475) scale(0.16 -0.16)">
      <use xlink:href="#DejaVuSans-46"/>
      <use xlink:href="#DejaVuSans-56" x="57.519531"/>
      <use xlink:href="#DejaVuSans-4d" x="125.927734"/>
      <use xlink:href="#DejaVuSans-20" x="212.207031"/>
      <use xlink:href="#DejaVuSans-28" x="243.994141"/>
      <use xlink:href="#DejaVuSans-43" x="283.007812"/>
      <use xlink:href="#DejaVuSans-6f" x="352.832031"/>
      <use xlink:href="#DejaVuSans-61" x="414.013672"/>
      <use xlink:href="#DejaVuSans-72" x="475.292969"/>
      <use xlink:href="#DejaVuSans-73" x="516.40625"/>
      <use xlink:href="#DejaVuSans-65" x="568.505859"/>
      <use xlink:href="#DejaVuSans-20" x="630.029297"/>
      <use xlink:href="#DejaVuSans-4d" x="661.816406"/>
      <use xlink:href="#DejaVuSans-65" x="748.095703"/>
      <use xlink:href="#DejaVuSans-73" x="809.619141"/>
      <use xlink:href="#DejaVuSans-68" x="861.71875"/>
      <use xlink:href="#DejaVuSans-29" x="925.097656"/>
     </g>
    </g>
    <g id="line2d_37">
     <path d="M 418.119176 226.6325 
L 434.119176 226.6325 
L 450.119176 226.6325 
" style="fill: none; stroke-dasharray: 12.8,3.2,2,3.2; stroke-dashoffset: 0; stroke: #000000; stroke-width: 2"/>
    </g>
    <g id="text_33">
     <!-- FVM (Fine Mesh) -->
     <g transform="translate(462.919176 232.2325) scale(0.16 -0.16)">
      <use xlink:href="#DejaVuSans-46"/>
      <use xlink:href="#DejaVuSans-56" x="57.519531"/>
      <use xlink:href="#DejaVuSans-4d" x="125.927734"/>
      <use xlink:href="#DejaVuSans-20" x="212.207031"/>
      <use xlink:href="#DejaVuSans-28" x="243.994141"/>
      <use xlink:href="#DejaVuSans-46" x="283.007812"/>
      <use xlink:href="#DejaVuSans-69" x="333.277344"/>
      <use xlink:href="#DejaVuSans-6e" x="361.060547"/>
      <use xlink:href="#DejaVuSans-65" x="424.439453"/>
      <use xlink:href="#DejaVuSans-20" x="485.962891"/>
      <use xlink:href="#DejaVuSans-4d" x="517.75"/>
      <use xlink:href="#DejaVuSans-65" x="604.029297"/>
      <use xlink:href="#DejaVuSans-73" x="665.552734"/>
      <use xlink:href="#DejaVuSans-68" x="717.652344"/>
      <use xlink:href="#DejaVuSans-29" x="781.03125"/>
     </g>
    </g>
   </g>
  </g>
 </g>
 <defs>
  <clipPath id="pe128b49b90">
   <rect x="38.482813" y="28.2" width="304.363636" height="221.76"/>
  </clipPath>
  <clipPath id="p2ecbfc1520">
   <rect x="403.719176" y="28.2" width="304.363636" height="221.76"/>
  </clipPath>
 </defs>
</svg>
